<?xml version="1.0" encoding="UTF-8" standalone="no"?>
<!DOCTYPE svg PUBLIC "-//W3C//DTD SVG 1.1//EN"
 "http://www.w3.org/Graphics/SVG/1.1/DTD/svg11.dtd">
<!-- Generated by graphviz version 2.43.0 (0)
 -->
<!-- Title: %3 Pages: 1 -->
<svg width="3853pt" height="1983pt"
 viewBox="0.00 0.00 1541.00 793.00" xmlns="http://www.w3.org/2000/svg" xmlns:xlink="http://www.w3.org/1999/xlink">
<g id="graph0" class="graph" transform="scale(2.5 2.5) rotate(0) translate(4 789)">
<title>%3</title>
<polygon fill="white" stroke="transparent" points="-4,4 -4,-789 1537,-789 1537,4 -4,4"/>
<text text-anchor="middle" x="766.5" y="-769.8" font-family="Helvetica,sans-Serif" font-size="14.00">FMS — Authentication (class diagram)</text>
<g id="clust1" class="cluster">
<title>cluster_com</title>
<path fill="none" stroke="#333333" stroke-width="1.2" d="M20,-8C20,-8 1513,-8 1513,-8 1519,-8 1525,-14 1525,-20 1525,-20 1525,-742 1525,-742 1525,-748 1519,-754 1513,-754 1513,-754 20,-754 20,-754 14,-754 8,-748 8,-742 8,-742 8,-20 8,-20 8,-14 14,-8 20,-8"/>
<text text-anchor="middle" x="30" y="-740.4" font-family="Helvetica,sans-Serif" font-weight="bold" font-size="12.00">com</text>
</g>
<g id="clust2" class="cluster">
<title>cluster_fms</title>
<path fill="none" stroke="#333333" stroke-width="1.2" d="M28,-16C28,-16 1505,-16 1505,-16 1511,-16 1517,-22 1517,-28 1517,-28 1517,-713 1517,-713 1517,-719 1511,-725 1505,-725 1505,-725 28,-725 28,-725 22,-725 16,-719 16,-713 16,-713 16,-28 16,-28 16,-22 22,-16 28,-16"/>
<text text-anchor="middle" x="37" y="-711.4" font-family="Helvetica,sans-Serif" font-weight="bold" font-size="12.00">fms</text>
</g>
<g id="clust3" class="cluster">
<title>cluster_auth</title>
<path fill="none" stroke="#333333" stroke-width="1.2" d="M36,-24C36,-24 1497,-24 1497,-24 1503,-24 1509,-30 1509,-36 1509,-36 1509,-684 1509,-684 1509,-690 1503,-696 1497,-696 1497,-696 36,-696 36,-696 30,-696 24,-690 24,-684 24,-684 24,-36 24,-36 24,-30 30,-24 36,-24"/>
<text text-anchor="middle" x="47.5" y="-682.4" font-family="Helvetica,sans-Serif" font-weight="bold" font-size="12.00">auth</text>
</g>
<!-- ctrl -->
<g id="node1" class="node">
<title>ctrl</title>
<polygon fill="#fffde7" stroke="transparent" points="997.5,-539 997.5,-646 1332.5,-646 1332.5,-539 997.5,-539"/>
<polygon fill="#fff59d" stroke="transparent" points="999,-627.5 999,-644.5 1332,-644.5 1332,-627.5 999,-627.5"/>
<text text-anchor="start" x="1134" y="-634.5" font-family="Helvetica,sans-Serif" font-style="italic" font-size="10.00">«Java Class»</text>
<polygon fill="#fffde7" stroke="transparent" points="999,-606.5 999,-627.5 1332,-627.5 1332,-606.5 999,-606.5"/>
<text text-anchor="start" x="1107.5" y="-614.3" font-family="Helvetica,sans-Serif" font-weight="bold" font-size="14.00">AuthController</text>
<polygon fill="#fffde7" stroke="transparent" points="999,-590.5 999,-606.5 1332,-606.5 1332,-590.5 999,-590.5"/>
<text text-anchor="start" x="1144" y="-596.3" font-family="Helvetica,sans-Serif" font-size="9.00" fill="#666666">controller</text>
<text text-anchor="start" x="1002" y="-579.5" font-family="Helvetica,sans-Serif" font-size="10.00">&#45; authService: AuthService</text>
<text text-anchor="start" x="1002" y="-562.5" font-family="Helvetica,sans-Serif" font-size="10.00">+ register(req: RegisterRequest): ResponseEntity&lt;AuthResponse&gt;</text>
<text text-anchor="start" x="1002" y="-545.5" font-family="Helvetica,sans-Serif" font-size="10.00">+ login(req: LoginRequest): ResponseEntity&lt;AuthResponse&gt;</text>
<polygon fill="black" stroke="black" points="998,-590.5 998,-590.5 1333,-590.5 1333,-590.5 998,-590.5"/>
<polygon fill="black" stroke="black" points="998,-573.5 998,-573.5 1333,-573.5 1333,-573.5 998,-573.5"/>
<polygon fill="none" stroke="black" points="997.5,-539 997.5,-646 1332.5,-646 1332.5,-539 997.5,-539"/>
</g>
<!-- svc_if -->
<g id="node2" class="node">
<title>svc_if</title>
<polygon fill="#fffde7" stroke="transparent" points="704.5,-313 704.5,-420 947.5,-420 947.5,-313 704.5,-313"/>
<polygon fill="#ffe082" stroke="transparent" points="706,-401.5 706,-418.5 947,-418.5 947,-401.5 706,-401.5"/>
<text text-anchor="start" x="786.5" y="-408.5" font-family="Helvetica,sans-Serif" font-style="italic" font-size="10.00">«Java Interface»</text>
<polygon fill="#fffde7" stroke="transparent" points="706,-380.5 706,-401.5 947,-401.5 947,-380.5 706,-380.5"/>
<text text-anchor="start" x="779" y="-388.3" font-family="Helvetica,sans-Serif" font-weight="bold" font-size="14.00">AuthService</text>
<polygon fill="#fffde7" stroke="transparent" points="706,-364.5 706,-380.5 947,-380.5 947,-364.5 706,-364.5"/>
<text text-anchor="start" x="810.5" y="-370.3" font-family="Helvetica,sans-Serif" font-size="9.00" fill="#666666">service</text>
<text text-anchor="start" x="709" y="-353.5" font-family="Helvetica,sans-Serif" font-size="10.00"> </text>
<text text-anchor="start" x="709" y="-336.5" font-family="Helvetica,sans-Serif" font-size="10.00">+ register(req: RegisterRequest): AuthResponse</text>
<text text-anchor="start" x="709" y="-319.5" font-family="Helvetica,sans-Serif" font-size="10.00">+ login(req: LoginRequest): AuthResponse</text>
<polygon fill="black" stroke="black" points="705,-364.5 705,-364.5 948,-364.5 948,-364.5 705,-364.5"/>
<polygon fill="black" stroke="black" points="705,-347.5 705,-347.5 948,-347.5 948,-347.5 705,-347.5"/>
<polygon fill="none" stroke="black" points="704.5,-313 704.5,-420 947.5,-420 947.5,-313 704.5,-313"/>
</g>
<!-- ctrl&#45;&gt;svc_if -->
<g id="edge1" class="edge">
<title>ctrl&#45;&gt;svc_if</title>
<path fill="none" stroke="#444444" d="M1079.46,-534.98C1030.88,-502.88 969.99,-462.64 920.07,-429.66"/>
<polygon fill="#444444" stroke="#444444" points="911.52,-424.01 922.34,-425.77 915.69,-426.76 919.86,-429.52 919.86,-429.52 919.86,-429.52 915.69,-426.76 917.38,-433.27 911.52,-424.01 911.52,-424.01"/>
<text text-anchor="middle" x="1006.5" y="-477" font-family="Helvetica,sans-Serif" font-size="10.00" fill="#444444">uses</text>
</g>
<!-- dto_reg -->
<g id="node6" class="node">
<title>dto_reg</title>
<polygon fill="#fffde7" stroke="transparent" points="1003.5,-296 1003.5,-437 1142.5,-437 1142.5,-296 1003.5,-296"/>
<polygon fill="#fff59d" stroke="transparent" points="1005,-418.5 1005,-435.5 1142,-435.5 1142,-418.5 1005,-418.5"/>
<text text-anchor="start" x="1042" y="-425.5" font-family="Helvetica,sans-Serif" font-style="italic" font-size="10.00">«Java Class»</text>
<polygon fill="#fffde7" stroke="transparent" points="1005,-397.5 1005,-418.5 1142,-418.5 1142,-397.5 1005,-397.5"/>
<text text-anchor="start" x="1008" y="-405.3" font-family="Helvetica,sans-Serif" font-weight="bold" font-size="14.00">RegisterRequest</text>
<polygon fill="#fffde7" stroke="transparent" points="1005,-381.5 1005,-397.5 1142,-397.5 1142,-381.5 1005,-381.5"/>
<text text-anchor="start" x="1065.5" y="-387.3" font-family="Helvetica,sans-Serif" font-size="9.00" fill="#666666">dto</text>
<text text-anchor="start" x="1008" y="-370.5" font-family="Helvetica,sans-Serif" font-size="10.00">&#45; firstName: String</text>
<text text-anchor="start" x="1008" y="-353.5" font-family="Helvetica,sans-Serif" font-size="10.00">&#45; lastName: String</text>
<text text-anchor="start" x="1008" y="-336.5" font-family="Helvetica,sans-Serif" font-size="10.00">&#45; email: String</text>
<text text-anchor="start" x="1008" y="-319.5" font-family="Helvetica,sans-Serif" font-size="10.00">&#45; password: String</text>
<text text-anchor="start" x="1008" y="-302.5" font-family="Helvetica,sans-Serif" font-size="10.00"> </text>
<polygon fill="black" stroke="black" points="1004,-381.5 1004,-381.5 1143,-381.5 1143,-381.5 1004,-381.5"/>
<polygon fill="black" stroke="black" points="1004,-313.5 1004,-313.5 1143,-313.5 1143,-313.5 1004,-313.5"/>
<polygon fill="none" stroke="black" points="1003.5,-296 1003.5,-437 1142.5,-437 1142.5,-296 1003.5,-296"/>
</g>
<!-- ctrl&#45;&gt;dto_reg -->
<g id="edge6" class="edge">
<title>ctrl&#45;&gt;dto_reg</title>
<path fill="none" stroke="#444444" stroke-dasharray="5,2" d="M1141.78,-534.98C1131.31,-509.47 1118.73,-478.84 1107.21,-450.78"/>
<polygon fill="#444444" stroke="#444444" points="1103.34,-441.38 1111.31,-448.92 1105.24,-446 1107.14,-450.63 1107.14,-450.63 1107.14,-450.63 1105.24,-446 1102.98,-452.34 1103.34,-441.38 1103.34,-441.38"/>
<text text-anchor="middle" x="1140" y="-477" font-family="Helvetica,sans-Serif" font-size="10.00" fill="#444444">receives</text>
</g>
<!-- dto_log -->
<g id="node7" class="node">
<title>dto_log</title>
<polygon fill="#fffde7" stroke="transparent" points="1199,-313 1199,-420 1315,-420 1315,-313 1199,-313"/>
<polygon fill="#fff59d" stroke="transparent" points="1200,-401.5 1200,-418.5 1314,-418.5 1314,-401.5 1200,-401.5"/>
<text text-anchor="start" x="1225.5" y="-408.5" font-family="Helvetica,sans-Serif" font-style="italic" font-size="10.00">«Java Class»</text>
<polygon fill="#fffde7" stroke="transparent" points="1200,-380.5 1200,-401.5 1314,-401.5 1314,-380.5 1200,-380.5"/>
<text text-anchor="start" x="1203" y="-388.3" font-family="Helvetica,sans-Serif" font-weight="bold" font-size="14.00">LoginRequest</text>
<polygon fill="#fffde7" stroke="transparent" points="1200,-364.5 1200,-380.5 1314,-380.5 1314,-364.5 1200,-364.5"/>
<text text-anchor="start" x="1249" y="-370.3" font-family="Helvetica,sans-Serif" font-size="9.00" fill="#666666">dto</text>
<text text-anchor="start" x="1203" y="-353.5" font-family="Helvetica,sans-Serif" font-size="10.00">&#45; email: String</text>
<text text-anchor="start" x="1203" y="-336.5" font-family="Helvetica,sans-Serif" font-size="10.00">&#45; password: String</text>
<text text-anchor="start" x="1203" y="-319.5" font-family="Helvetica,sans-Serif" font-size="10.00"> </text>
<polygon fill="black" stroke="black" points="1199,-364.5 1199,-364.5 1315,-364.5 1315,-364.5 1199,-364.5"/>
<polygon fill="black" stroke="black" points="1199,-330.5 1199,-330.5 1315,-330.5 1315,-330.5 1199,-330.5"/>
<polygon fill="none" stroke="black" points="1199,-313 1199,-420 1315,-420 1315,-313 1199,-313"/>
</g>
<!-- ctrl&#45;&gt;dto_log -->
<g id="edge7" class="edge">
<title>ctrl&#45;&gt;dto_log</title>
<path fill="none" stroke="#444444" stroke-dasharray="5,2" d="M1188.22,-534.98C1200.91,-504.07 1216.7,-465.62 1229.95,-433.37"/>
<polygon fill="#444444" stroke="#444444" points="1233.79,-424.01 1234.16,-434.97 1231.89,-428.63 1229.99,-433.26 1229.99,-433.26 1229.99,-433.26 1231.89,-428.63 1225.83,-431.55 1233.79,-424.01 1233.79,-424.01"/>
<text text-anchor="middle" x="1232" y="-477" font-family="Helvetica,sans-Serif" font-size="10.00" fill="#444444">receives</text>
</g>
<!-- dto_res -->
<g id="node8" class="node">
<title>dto_res</title>
<polygon fill="#fffde7" stroke="transparent" points="1371.5,-296 1371.5,-437 1492.5,-437 1492.5,-296 1371.5,-296"/>
<polygon fill="#fff59d" stroke="transparent" points="1373,-418.5 1373,-435.5 1492,-435.5 1492,-418.5 1373,-418.5"/>
<text text-anchor="start" x="1401" y="-425.5" font-family="Helvetica,sans-Serif" font-style="italic" font-size="10.00">«Java Class»</text>
<polygon fill="#fffde7" stroke="transparent" points="1373,-397.5 1373,-418.5 1492,-418.5 1492,-397.5 1373,-397.5"/>
<text text-anchor="start" x="1376" y="-405.3" font-family="Helvetica,sans-Serif" font-weight="bold" font-size="14.00">AuthResponse</text>
<polygon fill="#fffde7" stroke="transparent" points="1373,-381.5 1373,-397.5 1492,-397.5 1492,-381.5 1373,-381.5"/>
<text text-anchor="start" x="1424.5" y="-387.3" font-family="Helvetica,sans-Serif" font-size="9.00" fill="#666666">dto</text>
<text text-anchor="start" x="1376" y="-370.5" font-family="Helvetica,sans-Serif" font-size="10.00">&#45; token: String</text>
<text text-anchor="start" x="1376" y="-353.5" font-family="Helvetica,sans-Serif" font-size="10.00">&#45; email: String</text>
<text text-anchor="start" x="1376" y="-336.5" font-family="Helvetica,sans-Serif" font-size="10.00">&#45; firstName: String</text>
<text text-anchor="start" x="1376" y="-319.5" font-family="Helvetica,sans-Serif" font-size="10.00">&#45; lastName: String</text>
<text text-anchor="start" x="1376" y="-302.5" font-family="Helvetica,sans-Serif" font-size="10.00"> </text>
<polygon fill="black" stroke="black" points="1372,-381.5 1372,-381.5 1493,-381.5 1493,-381.5 1372,-381.5"/>
<polygon fill="black" stroke="black" points="1372,-313.5 1372,-313.5 1493,-313.5 1493,-313.5 1372,-313.5"/>
<polygon fill="none" stroke="black" points="1371.5,-296 1371.5,-437 1492.5,-437 1492.5,-296 1371.5,-296"/>
</g>
<!-- ctrl&#45;&gt;dto_res -->
<g id="edge8" class="edge">
<title>ctrl&#45;&gt;dto_res</title>
<path fill="none" stroke="#444444" stroke-dasharray="5,2" d="M1232.38,-534.98C1269.89,-503.51 1316.72,-464.22 1355.59,-431.61"/>
<polygon fill="#444444" stroke="#444444" points="1363.25,-425.18 1358.48,-435.05 1359.42,-428.39 1355.59,-431.6 1355.59,-431.6 1355.59,-431.6 1359.42,-428.39 1352.7,-428.16 1363.25,-425.18 1363.25,-425.18"/>
<text text-anchor="middle" x="1315.5" y="-477" font-family="Helvetica,sans-Serif" font-size="10.00" fill="#444444">returns</text>
</g>
<!-- svc_impl -->
<g id="node3" class="node">
<title>svc_impl</title>
<polygon fill="#fffde7" stroke="transparent" points="298.5,-522 298.5,-663 541.5,-663 541.5,-522 298.5,-522"/>
<polygon fill="#fff59d" stroke="transparent" points="300,-644.5 300,-661.5 541,-661.5 541,-644.5 300,-644.5"/>
<text text-anchor="start" x="389" y="-651.5" font-family="Helvetica,sans-Serif" font-style="italic" font-size="10.00">«Java Class»</text>
<polygon fill="#fffde7" stroke="transparent" points="300,-623.5 300,-644.5 541,-644.5 541,-623.5 300,-623.5"/>
<text text-anchor="start" x="356" y="-631.3" font-family="Helvetica,sans-Serif" font-weight="bold" font-size="14.00">AuthServiceImpl</text>
<polygon fill="#fffde7" stroke="transparent" points="300,-607.5 300,-623.5 541,-623.5 541,-607.5 300,-607.5"/>
<text text-anchor="start" x="404.5" y="-613.3" font-family="Helvetica,sans-Serif" font-size="9.00" fill="#666666">service</text>
<text text-anchor="start" x="303" y="-596.5" font-family="Helvetica,sans-Serif" font-size="10.00">&#45; userRepository: UserRepository</text>
<text text-anchor="start" x="303" y="-579.5" font-family="Helvetica,sans-Serif" font-size="10.00">&#45; passwordEncoder: PasswordEncoder</text>
<text text-anchor="start" x="303" y="-562.5" font-family="Helvetica,sans-Serif" font-size="10.00">&#45; jwtUtil: JwtUtil</text>
<text text-anchor="start" x="303" y="-545.5" font-family="Helvetica,sans-Serif" font-size="10.00">+ register(req: RegisterRequest): AuthResponse</text>
<text text-anchor="start" x="303" y="-528.5" font-family="Helvetica,sans-Serif" font-size="10.00">+ login(req: LoginRequest): AuthResponse</text>
<polygon fill="black" stroke="black" points="299,-607.5 299,-607.5 542,-607.5 542,-607.5 299,-607.5"/>
<polygon fill="black" stroke="black" points="299,-556.5 299,-556.5 542,-556.5 542,-556.5 299,-556.5"/>
<polygon fill="none" stroke="black" points="298.5,-522 298.5,-663 541.5,-663 541.5,-522 298.5,-522"/>
</g>
<!-- svc_impl&#45;&gt;svc_if -->
<g id="edge2" class="edge">
<title>svc_impl&#45;&gt;svc_if</title>
<path fill="none" stroke="#444444" stroke-dasharray="5,2" d="M549.58,-520.01C602.67,-490.72 663.5,-457.16 714.56,-428.99"/>
<polygon fill="none" stroke="#444444" points="716.25,-432.05 723.32,-424.15 712.87,-425.92 716.25,-432.05"/>
<text text-anchor="middle" x="652.5" y="-477" font-family="Helvetica,sans-Serif" font-size="10.00" fill="#444444">implements</text>
</g>
<!-- repo -->
<g id="node4" class="node">
<title>repo</title>
<polygon fill="#fffde7" stroke="transparent" points="40,-313 40,-420 274,-420 274,-313 40,-313"/>
<polygon fill="#ffe082" stroke="transparent" points="41,-401.5 41,-418.5 273,-418.5 273,-401.5 41,-401.5"/>
<text text-anchor="start" x="117" y="-408.5" font-family="Helvetica,sans-Serif" font-style="italic" font-size="10.00">«Java Interface»</text>
<polygon fill="#fffde7" stroke="transparent" points="41,-380.5 41,-401.5 273,-401.5 273,-380.5 41,-380.5"/>
<text text-anchor="start" x="96.5" y="-388.3" font-family="Helvetica,sans-Serif" font-weight="bold" font-size="14.00">UserRepository</text>
<polygon fill="#fffde7" stroke="transparent" points="41,-364.5 41,-380.5 273,-380.5 273,-364.5 41,-364.5"/>
<text text-anchor="start" x="134" y="-370.3" font-family="Helvetica,sans-Serif" font-size="9.00" fill="#666666">repository</text>
<text text-anchor="start" x="44" y="-353.5" font-family="Helvetica,sans-Serif" font-size="10.00"> </text>
<text text-anchor="start" x="44" y="-336.5" font-family="Helvetica,sans-Serif" font-size="10.00">+ findByEmail(email: String): Optional&lt;User&gt;</text>
<text text-anchor="start" x="44" y="-319.5" font-family="Helvetica,sans-Serif" font-size="10.00">+ existsByEmail(email: String): boolean</text>
<polygon fill="black" stroke="black" points="40,-364.5 40,-364.5 274,-364.5 274,-364.5 40,-364.5"/>
<polygon fill="black" stroke="black" points="40,-347.5 40,-347.5 274,-347.5 274,-347.5 40,-347.5"/>
<polygon fill="none" stroke="black" points="40,-313 40,-420 274,-420 274,-313 40,-313"/>
</g>
<!-- svc_impl&#45;&gt;repo -->
<g id="edge3" class="edge">
<title>svc_impl&#45;&gt;repo</title>
<path fill="none" stroke="#444444" d="M333.52,-517.84C300.53,-489.75 263.25,-457.99 231.47,-430.93"/>
<polygon fill="#444444" stroke="#444444" points="223.52,-424.16 234.05,-427.21 227.33,-427.4 231.13,-430.64 231.13,-430.64 231.13,-430.64 227.33,-427.4 228.21,-434.07 223.52,-424.16 223.52,-424.16"/>
<text text-anchor="middle" x="299.5" y="-477" font-family="Helvetica,sans-Serif" font-size="10.00" fill="#444444">uses</text>
</g>
<!-- user -->
<g id="node5" class="node">
<title>user</title>
<polygon fill="#fffde7" stroke="transparent" points="239,-36 239,-211 381,-211 381,-36 239,-36"/>
<polygon fill="#fff59d" stroke="transparent" points="240,-192.5 240,-209.5 380,-209.5 380,-192.5 240,-192.5"/>
<text text-anchor="start" x="278.5" y="-199.5" font-family="Helvetica,sans-Serif" font-style="italic" font-size="10.00">«Java Class»</text>
<polygon fill="#fffde7" stroke="transparent" points="240,-171.5 240,-192.5 380,-192.5 380,-171.5 240,-171.5"/>
<text text-anchor="start" x="291.5" y="-179.3" font-family="Helvetica,sans-Serif" font-weight="bold" font-size="14.00">User</text>
<polygon fill="#fffde7" stroke="transparent" points="240,-155.5 240,-171.5 380,-171.5 380,-155.5 240,-155.5"/>
<text text-anchor="start" x="296" y="-161.3" font-family="Helvetica,sans-Serif" font-size="9.00" fill="#666666">model</text>
<text text-anchor="start" x="243" y="-144.5" font-family="Helvetica,sans-Serif" font-size="10.00">&#45; id: Long</text>
<text text-anchor="start" x="243" y="-127.5" font-family="Helvetica,sans-Serif" font-size="10.00">&#45; firstName: String</text>
<text text-anchor="start" x="243" y="-110.5" font-family="Helvetica,sans-Serif" font-size="10.00">&#45; lastName: String</text>
<text text-anchor="start" x="243" y="-93.5" font-family="Helvetica,sans-Serif" font-size="10.00">&#45; email: String</text>
<text text-anchor="start" x="243" y="-76.5" font-family="Helvetica,sans-Serif" font-size="10.00">&#45; passwordHash: String</text>
<text text-anchor="start" x="243" y="-59.5" font-family="Helvetica,sans-Serif" font-size="10.00">&#45; createdAt: LocalDateTime</text>
<text text-anchor="start" x="243" y="-42.5" font-family="Helvetica,sans-Serif" font-size="10.00"> </text>
<polygon fill="black" stroke="black" points="239,-155.5 239,-155.5 381,-155.5 381,-155.5 239,-155.5"/>
<polygon fill="black" stroke="black" points="239,-53.5 239,-53.5 381,-53.5 381,-53.5 239,-53.5"/>
<polygon fill="none" stroke="black" points="239,-36 239,-211 381,-211 381,-36 239,-36"/>
</g>
<!-- svc_impl&#45;&gt;user -->
<g id="edge9" class="edge">
<title>svc_impl&#45;&gt;user</title>
<path fill="none" stroke="#444444" d="M401.63,-517.68C395.62,-493.29 388.95,-466 383,-441 365.82,-368.88 347.03,-287.37 332.82,-225.13"/>
<polygon fill="#444444" stroke="#444444" points="330.58,-215.31 337.19,-224.05 331.69,-220.18 332.8,-225.05 332.8,-225.05 332.8,-225.05 331.69,-220.18 328.42,-226.06 330.58,-215.31 330.58,-215.31"/>
<text text-anchor="middle" x="401.5" y="-364" font-family="Helvetica,sans-Serif" font-size="10.00" fill="#444444">creates</text>
</g>
<!-- jwt -->
<g id="node9" class="node">
<title>jwt</title>
<polygon fill="#fffde7" stroke="transparent" points="447.5,-296 447.5,-437 648.5,-437 648.5,-296 447.5,-296"/>
<polygon fill="#fff59d" stroke="transparent" points="449,-418.5 449,-435.5 648,-435.5 648,-418.5 449,-418.5"/>
<text text-anchor="start" x="517" y="-425.5" font-family="Helvetica,sans-Serif" font-style="italic" font-size="10.00">«Java Class»</text>
<polygon fill="#fffde7" stroke="transparent" points="449,-397.5 449,-418.5 648,-418.5 648,-397.5 449,-397.5"/>
<text text-anchor="start" x="522.5" y="-405.3" font-family="Helvetica,sans-Serif" font-weight="bold" font-size="14.00">JwtUtil</text>
<polygon fill="#fffde7" stroke="transparent" points="449,-381.5 449,-397.5 648,-397.5 648,-381.5 449,-381.5"/>
<text text-anchor="start" x="534" y="-387.3" font-family="Helvetica,sans-Serif" font-size="9.00" fill="#666666">config</text>
<text text-anchor="start" x="452" y="-370.5" font-family="Helvetica,sans-Serif" font-size="10.00">&#45; jwtSecret: String</text>
<text text-anchor="start" x="452" y="-353.5" font-family="Helvetica,sans-Serif" font-size="10.00">&#45; jwtExpirationMs: long</text>
<text text-anchor="start" x="452" y="-336.5" font-family="Helvetica,sans-Serif" font-size="10.00">+ generateToken(email: String): String</text>
<text text-anchor="start" x="452" y="-319.5" font-family="Helvetica,sans-Serif" font-size="10.00">+ validateToken(token: String): boolean</text>
<text text-anchor="start" x="452" y="-302.5" font-family="Helvetica,sans-Serif" font-size="10.00">+ extractEmail(token: String): String</text>
<polygon fill="black" stroke="black" points="448,-381.5 448,-381.5 649,-381.5 649,-381.5 448,-381.5"/>
<polygon fill="black" stroke="black" points="448,-347.5 448,-347.5 649,-347.5 649,-347.5 448,-347.5"/>
<polygon fill="none" stroke="black" points="447.5,-296 447.5,-437 648.5,-437 648.5,-296 447.5,-296"/>
</g>
<!-- svc_impl&#45;&gt;jwt -->
<g id="edge4" class="edge">
<title>svc_impl&#45;&gt;jwt</title>
<path fill="none" stroke="#444444" d="M462.09,-517.84C474.5,-496.12 488.17,-472.2 500.88,-449.96"/>
<polygon fill="#444444" stroke="#444444" points="505.89,-441.2 504.83,-452.12 503.4,-445.54 500.92,-449.88 500.92,-449.88 500.92,-449.88 503.4,-445.54 497.02,-447.65 505.89,-441.2 505.89,-441.2"/>
<text text-anchor="middle" x="509" y="-477" font-family="Helvetica,sans-Serif" font-size="10.00" fill="#444444">signs with</text>
</g>
<!-- repo&#45;&gt;user -->
<g id="edge5" class="edge">
<title>repo&#45;&gt;user</title>
<path fill="none" stroke="#444444" d="M192.87,-309C209.03,-283.54 228.59,-252.73 247.07,-223.63"/>
<polygon fill="#444444" stroke="#444444" points="252.5,-215.07 250.94,-225.92 249.82,-219.29 247.14,-223.51 247.14,-223.51 247.14,-223.51 249.82,-219.29 243.34,-221.1 252.5,-215.07 252.5,-215.07"/>
<text text-anchor="middle" x="251" y="-251" font-family="Helvetica,sans-Serif" font-size="10.00" fill="#444444">manages</text>
</g>
</g>
</svg>
