<?xml version="1.0" encoding="UTF-8" standalone="no"?>
<!DOCTYPE svg PUBLIC "-//W3C//DTD SVG 1.1//EN"
 "http://www.w3.org/Graphics/SVG/1.1/DTD/svg11.dtd">
<!-- Generated by graphviz version 2.43.0 (0)
 -->
<!-- Title: %3 Pages: 1 -->
<svg width="4159pt" height="547pt"
 viewBox="0.00 0.00 1663.60 218.60" xmlns="http://www.w3.org/2000/svg" xmlns:xlink="http://www.w3.org/1999/xlink">
<g id="graph0" class="graph" transform="scale(2.5 2.5) rotate(0) translate(28.8 189.8)">
<title>%3</title>
<polygon fill="white" stroke="transparent" points="-28.8,28.8 -28.8,-189.8 1634.8,-189.8 1634.8,28.8 -28.8,28.8"/>
<text text-anchor="middle" x="803" y="-141" font-family="Helvetica,sans-Serif" font-size="20.00">FMS — MVC Architecture</text>
<!-- user -->
<g id="node1" class="node">
<title>user</title>
<text text-anchor="start" x="18.5" y="-94.3" font-family="Helvetica,sans-Serif" font-size="34.00" fill="#1f4e79">●</text>
<text text-anchor="start" x="20.5" y="-53.3" font-family="Helvetica,sans-Serif" font-size="34.00" fill="#1f4e79">▲</text>
<text text-anchor="start" x="15.5" y="-29.3" font-family="Helvetica,sans-Serif" font-weight="bold" font-size="14.00">User</text>
<text text-anchor="start" x="10.5" y="-12.5" font-family="Helvetica,sans-Serif" font-size="10.00" fill="#666666">(browser)</text>
</g>
<!-- view -->
<g id="node2" class="node">
<title>view</title>
<polygon fill="#f1f8f2" stroke="transparent" points="246,-4 246,-127 492,-127 492,-4 246,-4"/>
<polygon fill="#2e7d32" stroke="transparent" points="246,-79.5 246,-126.5 492,-126.5 492,-79.5 246,-79.5"/>
<text text-anchor="start" x="344.5" y="-104.7" font-family="Helvetica,sans-Serif" font-weight="bold" font-size="16.00" fill="#ffffff">VIEW</text>
<text text-anchor="start" x="295.5" y="-92.7" font-family="Helvetica,sans-Serif" font-style="italic" font-size="11.00" fill="#ddeeff">React 18 + Vite (frontend)</text>
<text text-anchor="start" x="249" y="-67.9" font-family="Helvetica,sans-Serif" font-size="12.00" fill="#1f4e79">• </text>
<text text-anchor="start" x="260" y="-67.9" font-family="Helvetica,sans-Serif" font-size="12.00">9 Pages (Login, Dashboard, Income…)</text>
<text text-anchor="start" x="249" y="-48.9" font-family="Helvetica,sans-Serif" font-size="12.00" fill="#1f4e79">• </text>
<text text-anchor="start" x="260" y="-48.9" font-family="Helvetica,sans-Serif" font-size="12.00">Components (Forms, Charts, Cards)</text>
<text text-anchor="start" x="249" y="-29.9" font-family="Helvetica,sans-Serif" font-size="12.00" fill="#1f4e79">• </text>
<text text-anchor="start" x="260" y="-29.9" font-family="Helvetica,sans-Serif" font-size="12.00">AuthContext (JWT + user state)</text>
<text text-anchor="start" x="249" y="-10.9" font-family="Helvetica,sans-Serif" font-size="12.00" fill="#1f4e79">• </text>
<text text-anchor="start" x="260" y="-10.9" font-family="Helvetica,sans-Serif" font-size="12.00">Axios client (Bearer token)</text>
</g>
<!-- user&#45;&gt;view -->
<g id="edge1" class="edge">
<title>user&#45;&gt;view</title>
<path fill="none" stroke="#1f4e79" stroke-width="2" d="M67.08,-65.5C104.5,-65.5 168.38,-65.5 227.68,-65.5"/>
<polygon fill="#1f4e79" stroke="#1f4e79" stroke-width="2" points="227.92,-69 237.92,-65.5 227.92,-62 227.92,-69"/>
<text text-anchor="middle" x="152.5" y="-68.7" font-family="Helvetica,sans-Serif" font-weight="bold" font-size="11.00" fill="#1f4e79"> &#160;uses (HTTPS) &#160;</text>
</g>
<!-- view&#45;&gt;user -->
<g id="edge8" class="edge">
<title>view&#45;&gt;user</title>
<path fill="none" stroke="#888888" stroke-width="1.4" stroke-dasharray="5,2" d="M237.86,-43.42C194.78,-39.24 146.7,-37.95 103,-44.5 93.77,-45.88 84.07,-48.26 74.96,-50.93"/>
<polygon fill="#888888" stroke="#888888" stroke-width="1.4" points="73.97,-48.3 67.14,-53.33 75.61,-53.66 73.97,-48.3"/>
<text text-anchor="middle" x="152.5" y="-47.5" font-family="Helvetica,sans-Serif" font-weight="bold" font-size="10.00" fill="#888888"> &#160;rendered UI &#160;</text>
</g>
<!-- ctrl -->
<g id="node3" class="node">
<title>ctrl</title>
<polygon fill="#f4f8fb" stroke="transparent" points="669,-4 669,-127 844,-127 844,-4 669,-4"/>
<polygon fill="#1f4e79" stroke="transparent" points="669.5,-79.5 669.5,-126.5 844.5,-126.5 844.5,-79.5 669.5,-79.5"/>
<text text-anchor="start" x="696.5" y="-104.7" font-family="Helvetica,sans-Serif" font-weight="bold" font-size="16.00" fill="#ffffff">CONTROLLER</text>
<text text-anchor="start" x="683" y="-92.7" font-family="Helvetica,sans-Serif" font-style="italic" font-size="11.00" fill="#ddeeff">Spring MVC REST (Java 17)</text>
<text text-anchor="start" x="672.5" y="-67.9" font-family="Helvetica,sans-Serif" font-size="12.00" fill="#1f4e79">• </text>
<text text-anchor="start" x="683.5" y="-67.9" font-family="Helvetica,sans-Serif" font-size="12.00">8 @RestControllers (/api/*)</text>
<text text-anchor="start" x="672.5" y="-48.9" font-family="Helvetica,sans-Serif" font-size="12.00" fill="#1f4e79">• </text>
<text text-anchor="start" x="683.5" y="-48.9" font-family="Helvetica,sans-Serif" font-size="12.00">JWT Authentication Filter</text>
<text text-anchor="start" x="672.5" y="-29.9" font-family="Helvetica,sans-Serif" font-size="12.00" fill="#1f4e79">• </text>
<text text-anchor="start" x="683.5" y="-29.9" font-family="Helvetica,sans-Serif" font-size="12.00">Bean Validation (@Valid)</text>
<text text-anchor="start" x="672.5" y="-10.9" font-family="Helvetica,sans-Serif" font-size="12.00" fill="#1f4e79">• </text>
<text text-anchor="start" x="683.5" y="-10.9" font-family="Helvetica,sans-Serif" font-size="12.00">DTO ↔ JSON marshalling</text>
</g>
<!-- view&#45;&gt;ctrl -->
<g id="edge2" class="edge">
<title>view&#45;&gt;ctrl</title>
<path fill="none" stroke="#1f4e79" stroke-width="2" d="M500.24,-65.5C549.3,-65.5 604.42,-65.5 650.85,-65.5"/>
<polygon fill="#1f4e79" stroke="#1f4e79" stroke-width="2" points="650.93,-69 660.93,-65.5 650.93,-62 650.93,-69"/>
<text text-anchor="middle" x="580.5" y="-68.7" font-family="Helvetica,sans-Serif" font-weight="bold" font-size="11.00" fill="#1f4e79"> &#160;HTTP / JSON &#160;</text>
</g>
<!-- ctrl&#45;&gt;view -->
<g id="edge7" class="edge">
<title>ctrl&#45;&gt;view</title>
<path fill="none" stroke="#888888" stroke-width="1.4" stroke-dasharray="5,2" d="M660.92,-48.46C648.86,-46.83 636.67,-45.43 625,-44.5 587.07,-41.47 545.98,-42.82 508.08,-45.95"/>
<polygon fill="#888888" stroke="#888888" stroke-width="1.4" points="507.77,-43.17 500.04,-46.65 508.25,-48.75 507.77,-43.17"/>
<text text-anchor="middle" x="580.5" y="-47.5" font-family="Helvetica,sans-Serif" font-weight="bold" font-size="10.00" fill="#888888"> &#160;JSON &#160;</text>
</g>
<!-- model -->
<g id="node4" class="node">
<title>model</title>
<polygon fill="#f8f2fb" stroke="transparent" points="995,-4 995,-127 1289,-127 1289,-4 995,-4"/>
<polygon fill="#6a1b9a" stroke="transparent" points="995,-79.5 995,-126.5 1289,-126.5 1289,-79.5 995,-79.5"/>
<text text-anchor="start" x="1109.5" y="-104.7" font-family="Helvetica,sans-Serif" font-weight="bold" font-size="16.00" fill="#ffffff">MODEL</text>
<text text-anchor="start" x="1054" y="-92.7" font-family="Helvetica,sans-Serif" font-style="italic" font-size="11.00" fill="#ddeeff">Service + JPA (business + data)</text>
<text text-anchor="start" x="998" y="-67.9" font-family="Helvetica,sans-Serif" font-size="12.00" fill="#1f4e79">• </text>
<text text-anchor="start" x="1009" y="-67.9" font-family="Helvetica,sans-Serif" font-size="12.00">8 Service interfaces + Impls</text>
<text text-anchor="start" x="998" y="-48.9" font-family="Helvetica,sans-Serif" font-size="12.00" fill="#1f4e79">• </text>
<text text-anchor="start" x="1009" y="-48.9" font-family="Helvetica,sans-Serif" font-size="12.00">4 Entities (User, Income, Expense, TuitionPlan)</text>
<text text-anchor="start" x="998" y="-29.9" font-family="Helvetica,sans-Serif" font-size="12.00" fill="#1f4e79">• </text>
<text text-anchor="start" x="1009" y="-29.9" font-family="Helvetica,sans-Serif" font-size="12.00">4 Spring Data JPA Repositories</text>
<text text-anchor="start" x="998" y="-10.9" font-family="Helvetica,sans-Serif" font-size="12.00" fill="#1f4e79">• </text>
<text text-anchor="start" x="1009" y="-10.9" font-family="Helvetica,sans-Serif" font-size="12.00">Algorithms: BCrypt, JWT, simulation, AI</text>
</g>
<!-- ctrl&#45;&gt;model -->
<g id="edge3" class="edge">
<title>ctrl&#45;&gt;model</title>
<path fill="none" stroke="#1f4e79" stroke-width="2" d="M852.3,-65.5C889.88,-65.5 934.2,-65.5 976.68,-65.5"/>
<polygon fill="#1f4e79" stroke="#1f4e79" stroke-width="2" points="976.86,-69 986.86,-65.5 976.86,-62 976.86,-69"/>
<text text-anchor="middle" x="919.5" y="-68.7" font-family="Helvetica,sans-Serif" font-weight="bold" font-size="11.00" fill="#1f4e79"> &#160;invokes &#160;</text>
</g>
<!-- model&#45;&gt;ctrl -->
<g id="edge6" class="edge">
<title>model&#45;&gt;ctrl</title>
<path fill="none" stroke="#888888" stroke-width="1.4" stroke-dasharray="5,2" d="M986.82,-44.7C954.19,-42.54 919.96,-41.94 888,-44.5 878.98,-45.22 869.64,-46.22 860.29,-47.39"/>
<polygon fill="#888888" stroke="#888888" stroke-width="1.4" points="859.65,-44.65 852.08,-48.46 860.38,-50.2 859.65,-44.65"/>
<text text-anchor="middle" x="919.5" y="-47.5" font-family="Helvetica,sans-Serif" font-weight="bold" font-size="10.00" fill="#888888"> &#160;DTO &#160;</text>
</g>
<!-- db -->
<g id="node5" class="node">
<title>db</title>
<polygon fill="#336791" stroke="transparent" points="1447.5,-52.5 1447.5,-107.5 1598.5,-107.5 1598.5,-52.5 1447.5,-52.5"/>
<text text-anchor="start" x="1470" y="-81.7" font-family="Helvetica,sans-Serif" font-weight="bold" font-size="16.00" fill="#ffffff">PostgreSQL</text>
<text text-anchor="start" x="1503" y="-69.7" font-family="Helvetica,sans-Serif" font-style="italic" font-size="11.00" fill="#cfe2f3">fms_db</text>
<text text-anchor="start" x="1450.5" y="-40.7" font-family="Helvetica,sans-Serif" font-size="11.00" fill="#444444">users · income · expenses</text>
<text text-anchor="start" x="1488" y="-28.7" font-family="Helvetica,sans-Serif" font-size="11.00" fill="#444444">tuition_plans</text>
</g>
<!-- model&#45;&gt;db -->
<g id="edge4" class="edge">
<title>model&#45;&gt;db</title>
<path fill="none" stroke="#1f4e79" stroke-width="2" d="M1297.22,-65.5C1341.82,-65.5 1389.1,-65.5 1428.7,-65.5"/>
<polygon fill="#1f4e79" stroke="#1f4e79" stroke-width="2" points="1428.85,-69 1438.85,-65.5 1428.85,-62 1428.85,-69"/>
<text text-anchor="middle" x="1368" y="-68.7" font-family="Helvetica,sans-Serif" font-weight="bold" font-size="11.00" fill="#1f4e79"> &#160;JPA / SQL &#160;</text>
</g>
<!-- db&#45;&gt;model -->
<g id="edge5" class="edge">
<title>db&#45;&gt;model</title>
<path fill="none" stroke="#888888" stroke-width="1.4" stroke-dasharray="5,2" d="M1438.87,-48.95C1426.88,-47.11 1414.66,-45.52 1403,-44.5 1371.39,-41.72 1337.61,-42.04 1305.22,-43.96"/>
<polygon fill="#888888" stroke="#888888" stroke-width="1.4" points="1304.82,-41.18 1297.01,-44.48 1305.17,-46.77 1304.82,-41.18"/>
<text text-anchor="middle" x="1368" y="-47.5" font-family="Helvetica,sans-Serif" font-weight="bold" font-size="10.00" fill="#888888"> &#160;ResultSet &#160;</text>
</g>
</g>
</svg>
