<?xml version="1.0" encoding="UTF-8" standalone="no"?>
<!DOCTYPE svg PUBLIC "-//W3C//DTD SVG 1.1//EN"
 "http://www.w3.org/Graphics/SVG/1.1/DTD/svg11.dtd">
<!-- Generated by graphviz version 2.43.0 (0)
 -->
<!-- Title: %3 Pages: 1 -->
<svg width="1021pt" height="2000pt"
 viewBox="0.00 0.00 367.50 720.00" xmlns="http://www.w3.org/2000/svg" xmlns:xlink="http://www.w3.org/1999/xlink">
<g id="graph0" class="graph" transform="scale(1.93 1.93) rotate(0) translate(28.8 1007.8)">
<title>%3</title>
<polygon fill="white" stroke="transparent" points="-28.8,28.8 -28.8,-1007.8 500.3,-1007.8 500.3,28.8 -28.8,28.8"/>
<text text-anchor="middle" x="235.75" y="-960.6" font-family="Helvetica,sans-Serif" font-size="18.00">Statechart S3 — Tuition Planning Calculation</text>
<text text-anchor="middle" x="235.75" y="-940.6" font-family="Helvetica,sans-Serif" font-size="18.00">SRS §3.1.5 Tuition Planning</text>
<!-- s3_start -->
<g id="node1" class="node">
<title>s3_start</title>
<ellipse fill="black" stroke="black" cx="234.5" cy="-921" rx="10" ry="10"/>
</g>
<!-- s3_idle -->
<g id="node2" class="node">
<title>s3_idle</title>
<path fill="#eceff1" stroke="#455a64" stroke-width="1.6" d="M327.5,-844C327.5,-844 141.5,-844 141.5,-844 135.5,-844 129.5,-838 129.5,-832 129.5,-832 129.5,-808 129.5,-808 129.5,-802 135.5,-796 141.5,-796 141.5,-796 327.5,-796 327.5,-796 333.5,-796 339.5,-802 339.5,-808 339.5,-808 339.5,-832 339.5,-832 339.5,-838 333.5,-844 327.5,-844"/>
<text text-anchor="start" x="222" y="-827.4" font-family="Helvetica,sans-Serif" font-weight="bold" font-size="12.00">Idle</text>
<text text-anchor="start" x="141.5" y="-807" font-family="Helvetica,sans-Serif" font-size="10.00">entry / navigate to TuitionPlannerPage</text>
<polygon fill="#455a64" stroke="#455a64" points="137.5,-819 137.5,-819 331.5,-819 331.5,-819 137.5,-819"/>
</g>
<!-- s3_start&#45;&gt;s3_idle -->
<g id="edge1" class="edge">
<title>s3_start&#45;&gt;s3_idle</title>
<path fill="none" stroke="#37474f" stroke-width="1.2" d="M234.5,-910.86C234.5,-897.89 234.5,-873.46 234.5,-853.35"/>
<polygon fill="#37474f" stroke="#37474f" stroke-width="1.2" points="234.5,-844.18 238.55,-853.18 234.6,-848.68 234.6,-853.18 234.5,-853.18 234.4,-853.18 234.4,-848.68 230.45,-853.18 234.5,-844.18 234.5,-844.18"/>
</g>
<!-- s3_input -->
<g id="node3" class="node">
<title>s3_input</title>
<path fill="#fff3e0" stroke="#e65100" stroke-width="1.6" d="M336,-719C336,-719 133,-719 133,-719 127,-719 121,-713 121,-707 121,-707 121,-645 121,-645 121,-639 127,-633 133,-633 133,-633 336,-633 336,-633 342,-633 348,-639 348,-645 348,-645 348,-707 348,-707 348,-713 342,-719 336,-719"/>
<text text-anchor="start" x="182.5" y="-702.4" font-family="Helvetica,sans-Serif" font-weight="bold" font-size="12.00">Entering Inputs</text>
<text text-anchor="start" x="133.5" y="-682" font-family="Helvetica,sans-Serif" font-size="10.00">entry / render TuitionForm</text>
<text text-anchor="start" x="133.5" y="-663" font-family="Helvetica,sans-Serif" font-size="10.00">do / collect tuitionPerCourse,</text>
<text text-anchor="start" x="133.5" y="-644" font-family="Helvetica,sans-Serif" font-size="10.00"> &#160;&#160;&#160;&#160;numberOfCourses, scholarshipAmount</text>
<polygon fill="#e65100" stroke="#e65100" points="129.5,-694 129.5,-694 340.5,-694 340.5,-694 129.5,-694"/>
</g>
<!-- s3_idle&#45;&gt;s3_input -->
<g id="edge2" class="edge">
<title>s3_idle&#45;&gt;s3_input</title>
<path fill="none" stroke="#37474f" stroke-width="1.2" d="M234.5,-795.87C234.5,-777.55 234.5,-751.28 234.5,-728.09"/>
<polygon fill="#37474f" stroke="#37474f" stroke-width="1.2" points="234.5,-719.05 238.55,-728.05 234.6,-723.55 234.6,-728.05 234.5,-728.05 234.4,-728.05 234.4,-723.55 230.45,-728.05 234.5,-719.05 234.5,-719.05"/>
<text text-anchor="middle" x="259" y="-755" font-family="Helvetica,sans-Serif" font-size="10.00" fill="#37474f">visit page</text>
</g>
<!-- s3_valid -->
<g id="node4" class="node">
<title>s3_valid</title>
<path fill="#fffde7" stroke="#f9a825" stroke-width="1.6" d="M266.5,-556C266.5,-556 70.5,-556 70.5,-556 64.5,-556 58.5,-550 58.5,-544 58.5,-544 58.5,-482 58.5,-482 58.5,-476 64.5,-470 70.5,-470 70.5,-470 266.5,-470 266.5,-470 272.5,-470 278.5,-476 278.5,-482 278.5,-482 278.5,-544 278.5,-544 278.5,-550 272.5,-556 266.5,-556"/>
<text text-anchor="start" x="134.5" y="-539.4" font-family="Helvetica,sans-Serif" font-weight="bold" font-size="12.00">Validating</text>
<text text-anchor="start" x="70.5" y="-519" font-family="Helvetica,sans-Serif" font-size="10.00">do / Bean Validation</text>
<text text-anchor="start" x="70.5" y="-500" font-family="Helvetica,sans-Serif" font-size="10.00"> &#160;@DecimalMin(&quot;0.01&quot;) tuitionPerCourse</text>
<text text-anchor="start" x="70.5" y="-481" font-family="Helvetica,sans-Serif" font-size="10.00"> &#160;@Min(1) numberOfCourses</text>
<polygon fill="#f9a825" stroke="#f9a825" points="66.5,-531 66.5,-531 270.5,-531 270.5,-531 66.5,-531"/>
</g>
<!-- s3_input&#45;&gt;s3_valid -->
<g id="edge3" class="edge">
<title>s3_input&#45;&gt;s3_valid</title>
<path fill="none" stroke="#37474f" stroke-width="1.2" d="M141.67,-632.86C130,-623.69 119.66,-612.8 112.5,-600 105.8,-588.01 108.21,-575.44 114.86,-563.73"/>
<polygon fill="#37474f" stroke="#37474f" stroke-width="1.2" points="119.79,-556.17 118.26,-565.92 117.41,-559.99 114.96,-563.76 114.87,-563.71 114.79,-563.65 117.25,-559.88 111.48,-561.5 119.79,-556.17 119.79,-556.17"/>
<text text-anchor="middle" x="148.5" y="-592" font-family="Helvetica,sans-Serif" font-size="10.00" fill="#37474f">click Calculate</text>
</g>
<!-- s3_valid&#45;&gt;s3_input -->
<g id="edge4" class="edge">
<title>s3_valid&#45;&gt;s3_input</title>
<path fill="none" stroke="#c62828" stroke-width="1.2" stroke-dasharray="5,2" d="M185.72,-556.02C194.27,-576.87 204.67,-602.22 213.66,-624.16"/>
<polygon fill="#c62828" stroke="#c62828" stroke-width="1.2" points="217.16,-632.7 210,-625.91 215.36,-628.57 213.65,-624.41 213.75,-624.37 213.84,-624.33 215.54,-628.5 217.49,-622.84 217.16,-632.7 217.16,-632.7"/>
<text text-anchor="middle" x="289.5" y="-592" font-family="Helvetica,sans-Serif" font-size="10.00" fill="#c62828">400 Bad Request [invalid numbers]</text>
</g>
<!-- s3_calc -->
<g id="node5" class="node">
<title>s3_calc</title>
<path fill="#e3f2fd" stroke="#1565c0" stroke-width="1.6" d="M393,-393C393,-393 228,-393 228,-393 222,-393 216,-387 216,-381 216,-381 216,-300 216,-300 216,-294 222,-288 228,-288 228,-288 393,-288 393,-288 399,-288 405,-294 405,-300 405,-300 405,-381 405,-381 405,-387 399,-393 393,-393"/>
<text text-anchor="start" x="273.5" y="-375.9" font-family="Helvetica,sans-Serif" font-weight="bold" font-size="12.00">Calculating</text>
<text text-anchor="start" x="228.5" y="-355.5" font-family="Helvetica,sans-Serif" font-size="10.00">do / POST /api/tuition/calculate</text>
<text text-anchor="start" x="228.5" y="-336.5" font-family="Helvetica,sans-Serif" font-size="10.00"> &#160;grossTuition = per × number</text>
<text text-anchor="start" x="228.5" y="-317.5" font-family="Helvetica,sans-Serif" font-size="10.00"> &#160;netTuition = gross − scholarship</text>
<text text-anchor="start" x="228.5" y="-298.5" font-family="Helvetica,sans-Serif" font-size="10.00"> &#160;persist TuitionPlan</text>
<polygon fill="#1565c0" stroke="#1565c0" points="224.5,-367.5 224.5,-367.5 397.5,-367.5 397.5,-367.5 224.5,-367.5"/>
</g>
<!-- s3_valid&#45;&gt;s3_calc -->
<g id="edge5" class="edge">
<title>s3_valid&#45;&gt;s3_calc</title>
<path fill="none" stroke="#2e7d32" stroke-width="1.2" d="M176.68,-469.75C180.92,-454.97 187.24,-438.87 196.5,-426 203.38,-416.44 211.67,-407.5 220.6,-399.29"/>
<polygon fill="#2e7d32" stroke="#2e7d32" stroke-width="1.2" points="227.54,-393.15 223.48,-402.15 224.23,-396.21 220.86,-399.19 220.79,-399.12 220.73,-399.04 224.1,-396.06 218.11,-396.08 227.54,-393.15 227.54,-393.15"/>
<text text-anchor="middle" x="299" y="-429" font-family="Helvetica,sans-Serif" font-size="10.00" fill="#2e7d32">pass / TuitionService.calculate(email, req)</text>
</g>
<!-- s3_calc&#45;&gt;s3_input -->
<g id="edge7" class="edge">
<title>s3_calc&#45;&gt;s3_input</title>
<path fill="none" stroke="#c62828" stroke-width="1.2" stroke-dasharray="5,2" d="M384.72,-393.3C393.95,-403.05 402.04,-414.01 407.5,-426 439.79,-496.95 430.92,-536.65 385.5,-600 377.39,-611.32 367.07,-621.02 355.66,-629.32"/>
<polygon fill="#c62828" stroke="#c62828" stroke-width="1.2" points="348.01,-634.57 353.14,-626.13 351.66,-631.94 355.37,-629.39 355.43,-629.47 355.48,-629.56 351.77,-632.1 357.72,-632.81 348.01,-634.57 348.01,-634.57"/>
<text text-anchor="middle" x="449" y="-510.5" font-family="Helvetica,sans-Serif" font-size="10.00" fill="#c62828">500 Error</text>
</g>
<!-- s3_display -->
<g id="node6" class="node">
<title>s3_display</title>
<path fill="#e8f5e9" stroke="#2e7d32" stroke-width="1.6" d="M387.5,-211C387.5,-211 233.5,-211 233.5,-211 227.5,-211 221.5,-205 221.5,-199 221.5,-199 221.5,-137 221.5,-137 221.5,-131 227.5,-125 233.5,-125 233.5,-125 387.5,-125 387.5,-125 393.5,-125 399.5,-131 399.5,-137 399.5,-137 399.5,-199 399.5,-199 399.5,-205 393.5,-211 387.5,-211"/>
<text text-anchor="start" x="252.5" y="-194.4" font-family="Helvetica,sans-Serif" font-weight="bold" font-size="12.00">Displaying Result</text>
<text text-anchor="start" x="233.5" y="-174" font-family="Helvetica,sans-Serif" font-size="10.00">entry / render TuitionResultDTO</text>
<text text-anchor="start" x="233.5" y="-155" font-family="Helvetica,sans-Serif" font-size="10.00"> &#160;grossTuition, netTuition</text>
<text text-anchor="start" x="233.5" y="-136" font-family="Helvetica,sans-Serif" font-size="10.00">do / wait for user review</text>
<polygon fill="#2e7d32" stroke="#2e7d32" points="229.5,-186 229.5,-186 391.5,-186 391.5,-186 229.5,-186"/>
</g>
<!-- s3_calc&#45;&gt;s3_display -->
<g id="edge6" class="edge">
<title>s3_calc&#45;&gt;s3_display</title>
<path fill="none" stroke="#2e7d32" stroke-width="1.2" d="M310.5,-287.88C310.5,-266.45 310.5,-241.65 310.5,-220.25"/>
<polygon fill="#2e7d32" stroke="#2e7d32" stroke-width="1.2" points="310.5,-211 314.55,-220 310.6,-215.5 310.6,-220 310.5,-220 310.4,-220 310.4,-215.5 306.45,-220 310.5,-211 310.5,-211"/>
<text text-anchor="middle" x="328.5" y="-247" font-family="Helvetica,sans-Serif" font-size="10.00" fill="#2e7d32">200 OK</text>
</g>
<!-- s3_adjust -->
<g id="node7" class="node">
<title>s3_adjust</title>
<path fill="#fff3e0" stroke="#e65100" stroke-width="1.6" d="M261,-48C261,-48 12,-48 12,-48 6,-48 0,-42 0,-36 0,-36 0,-12 0,-12 0,-6 6,0 12,0 12,0 261,0 261,0 267,0 273,-6 273,-12 273,-12 273,-36 273,-36 273,-42 267,-48 261,-48"/>
<text text-anchor="start" x="81.5" y="-31.4" font-family="Helvetica,sans-Serif" font-weight="bold" font-size="12.00">Adjusting Inputs</text>
<text text-anchor="start" x="12.5" y="-11" font-family="Helvetica,sans-Serif" font-size="10.00">do / modify numberOfCourses / scholarshipAmount</text>
<polygon fill="#e65100" stroke="#e65100" points="8.5,-23 8.5,-23 265.5,-23 265.5,-23 8.5,-23"/>
</g>
<!-- s3_display&#45;&gt;s3_adjust -->
<g id="edge8" class="edge">
<title>s3_display&#45;&gt;s3_adjust</title>
<path fill="none" stroke="#37474f" stroke-width="1.2" d="M258.77,-124.78C230.87,-102.01 197.14,-74.49 172.18,-54.12"/>
<polygon fill="#37474f" stroke="#37474f" stroke-width="1.2" points="165.06,-48.31 174.6,-50.86 168.61,-51.08 172.1,-53.92 172.04,-54 171.97,-54.08 168.49,-51.23 169.48,-57.14 165.06,-48.31 165.06,-48.31"/>
<text text-anchor="middle" x="260" y="-84" font-family="Helvetica,sans-Serif" font-size="10.00" fill="#37474f">click Recalculate</text>
</g>
<!-- s3_end -->
<g id="node8" class="node">
<title>s3_end</title>
<ellipse fill="black" stroke="black" stroke-width="1.4" cx="329.5" cy="-24" rx="11.5" ry="11.5"/>
<ellipse fill="none" stroke="black" stroke-width="1.4" cx="329.5" cy="-24" rx="15.5" ry="15.5"/>
</g>
<!-- s3_display&#45;&gt;s3_end -->
<g id="edge10" class="edge">
<title>s3_display&#45;&gt;s3_end</title>
<path fill="none" stroke="#455a64" stroke-width="1.2" d="M316.15,-124.78C319.47,-99.94 323.55,-69.44 326.32,-48.74"/>
<polygon fill="#455a64" stroke="#455a64" stroke-width="1.2" points="327.53,-39.71 330.35,-49.17 327.03,-44.18 326.44,-48.65 326.34,-48.63 326.24,-48.62 326.84,-44.16 322.32,-48.09 327.53,-39.71 327.53,-39.71"/>
<text text-anchor="middle" x="350" y="-84" font-family="Helvetica,sans-Serif" font-size="10.00" fill="#455a64">leave page</text>
</g>
<!-- s3_adjust&#45;&gt;s3_valid -->
<g id="edge9" class="edge">
<title>s3_adjust&#45;&gt;s3_valid</title>
<path fill="none" stroke="#37474f" stroke-width="1.2" d="M138.02,-48.17C142.9,-122.47 158.25,-356 165.12,-460.53"/>
<polygon fill="#37474f" stroke="#37474f" stroke-width="1.2" points="165.72,-469.63 161.08,-460.92 165.32,-465.15 165.03,-460.66 165.13,-460.65 165.23,-460.65 165.52,-465.14 169.17,-460.39 165.72,-469.63 165.72,-469.63"/>
<text text-anchor="middle" x="187.5" y="-247" font-family="Helvetica,sans-Serif" font-size="10.00" fill="#37474f">click Calculate</text>
</g>
</g>
</svg>
