<?xml version="1.0" encoding="UTF-8" standalone="no"?>
<!DOCTYPE svg PUBLIC "-//W3C//DTD SVG 1.1//EN"
 "http://www.w3.org/Graphics/SVG/1.1/DTD/svg11.dtd">
<!-- Generated by graphviz version 2.43.0 (0)
 -->
<!-- Title: %3 Pages: 1 -->
<svg width="1209pt" height="2400pt"
 viewBox="0.00 0.00 435.30 864.00" xmlns="http://www.w3.org/2000/svg" xmlns:xlink="http://www.w3.org/1999/xlink">
<g id="graph0" class="graph" transform="scale(1.91 1.91) rotate(0) translate(28.8 1227.8)">
<title>%3</title>
<polygon fill="white" stroke="transparent" points="-28.8,28.8 -28.8,-1227.8 604.3,-1227.8 604.3,28.8 -28.8,28.8"/>
<text text-anchor="middle" x="287.75" y="-1180.6" font-family="Helvetica,sans-Serif" font-size="18.00">Statechart S4 — What&#45;If Simulation</text>
<text text-anchor="middle" x="287.75" y="-1160.6" font-family="Helvetica,sans-Serif" font-size="18.00">SRS §3.1.8 What&#45;If Simulation</text>
<!-- s4_start -->
<g id="node1" class="node">
<title>s4_start</title>
<ellipse fill="black" stroke="black" cx="294" cy="-1141" rx="10" ry="10"/>
</g>
<!-- s4_idle -->
<g id="node2" class="node">
<title>s4_idle</title>
<path fill="#eceff1" stroke="#455a64" stroke-width="1.6" d="M378.5,-1064C378.5,-1064 209.5,-1064 209.5,-1064 203.5,-1064 197.5,-1058 197.5,-1052 197.5,-1052 197.5,-1028 197.5,-1028 197.5,-1022 203.5,-1016 209.5,-1016 209.5,-1016 378.5,-1016 378.5,-1016 384.5,-1016 390.5,-1022 390.5,-1028 390.5,-1028 390.5,-1052 390.5,-1052 390.5,-1058 384.5,-1064 378.5,-1064"/>
<text text-anchor="start" x="282" y="-1047.4" font-family="Helvetica,sans-Serif" font-weight="bold" font-size="12.00">Idle</text>
<text text-anchor="start" x="210" y="-1027" font-family="Helvetica,sans-Serif" font-size="10.00">entry / navigate to SimulationPage</text>
<polygon fill="#455a64" stroke="#455a64" points="206,-1039 206,-1039 383,-1039 383,-1039 206,-1039"/>
</g>
<!-- s4_start&#45;&gt;s4_idle -->
<g id="edge1" class="edge">
<title>s4_start&#45;&gt;s4_idle</title>
<path fill="none" stroke="#37474f" stroke-width="1.2" d="M294,-1130.86C294,-1117.89 294,-1093.46 294,-1073.35"/>
<polygon fill="#37474f" stroke="#37474f" stroke-width="1.2" points="294,-1064.18 298.05,-1073.18 294.1,-1068.68 294.1,-1073.18 294,-1073.18 293.9,-1073.18 293.9,-1068.68 289.95,-1073.18 294,-1064.18 294,-1064.18"/>
</g>
<!-- s4_baseline -->
<g id="node3" class="node">
<title>s4_baseline</title>
<path fill="#e3f2fd" stroke="#1565c0" stroke-width="1.6" d="M415.5,-939C415.5,-939 172.5,-939 172.5,-939 166.5,-939 160.5,-933 160.5,-927 160.5,-927 160.5,-865 160.5,-865 160.5,-859 166.5,-853 172.5,-853 172.5,-853 415.5,-853 415.5,-853 421.5,-853 427.5,-859 427.5,-865 427.5,-865 427.5,-927 427.5,-927 427.5,-933 421.5,-939 415.5,-939"/>
<text text-anchor="start" x="237" y="-922.4" font-family="Helvetica,sans-Serif" font-weight="bold" font-size="12.00">Loading Baseline</text>
<text text-anchor="start" x="173" y="-902" font-family="Helvetica,sans-Serif" font-size="10.00">entry / GET /api/dashboard/summary</text>
<text text-anchor="start" x="173" y="-883" font-family="Helvetica,sans-Serif" font-size="10.00">do / fetch user&#39;s actual income + expense history</text>
<text text-anchor="start" x="173" y="-864" font-family="Helvetica,sans-Serif" font-size="10.00"> &#160;populate current trajectory</text>
<polygon fill="#1565c0" stroke="#1565c0" points="169,-914 169,-914 420,-914 420,-914 169,-914"/>
</g>
<!-- s4_idle&#45;&gt;s4_baseline -->
<g id="edge2" class="edge">
<title>s4_idle&#45;&gt;s4_baseline</title>
<path fill="none" stroke="#37474f" stroke-width="1.2" d="M260.11,-1015.73C247.28,-1003.85 236.86,-988.44 242,-972 244.7,-963.38 248.77,-954.88 253.47,-946.88"/>
<polygon fill="#37474f" stroke="#37474f" stroke-width="1.2" points="258.36,-939.05 257.03,-948.83 256.06,-942.92 253.68,-946.74 253.59,-946.68 253.51,-946.63 255.89,-942.81 250.16,-944.54 258.36,-939.05 258.36,-939.05"/>
<text text-anchor="middle" x="266.5" y="-975" font-family="Helvetica,sans-Serif" font-size="10.00" fill="#37474f">visit page</text>
</g>
<!-- s4_baseline&#45;&gt;s4_idle -->
<g id="edge4" class="edge">
<title>s4_baseline&#45;&gt;s4_idle</title>
<path fill="none" stroke="#c62828" stroke-width="1.2" stroke-dasharray="5,2" d="M296.52,-939.43C297.06,-953.31 297.38,-968.81 297,-983 296.79,-990.68 296.43,-998.95 296.03,-1006.71"/>
<polygon fill="#c62828" stroke="#c62828" stroke-width="1.2" points="295.52,-1015.85 291.97,-1006.64 295.67,-1011.35 295.92,-1006.86 296.02,-1006.87 296.12,-1006.87 295.87,-1011.36 300.06,-1007.09 295.52,-1015.85 295.52,-1015.85"/>
<text text-anchor="middle" x="323" y="-975" font-family="Helvetica,sans-Serif" font-size="10.00" fill="#c62828">fetch error</text>
</g>
<!-- s4_config -->
<g id="node4" class="node">
<title>s4_config</title>
<path fill="#fff3e0" stroke="#e65100" stroke-width="1.6" d="M396.5,-776C396.5,-776 191.5,-776 191.5,-776 185.5,-776 179.5,-770 179.5,-764 179.5,-764 179.5,-702 179.5,-702 179.5,-696 185.5,-690 191.5,-690 191.5,-690 396.5,-690 396.5,-690 402.5,-690 408.5,-696 408.5,-702 408.5,-702 408.5,-764 408.5,-764 408.5,-770 402.5,-776 396.5,-776"/>
<text text-anchor="start" x="224" y="-759.4" font-family="Helvetica,sans-Serif" font-weight="bold" font-size="12.00">Configuring Scenario</text>
<text text-anchor="start" x="192" y="-739" font-family="Helvetica,sans-Serif" font-size="10.00">entry / render SimulationForm</text>
<text text-anchor="start" x="192" y="-720" font-family="Helvetica,sans-Serif" font-size="10.00">do / collect hypotheticalMonthlyIncome,</text>
<text text-anchor="start" x="192" y="-701" font-family="Helvetica,sans-Serif" font-size="10.00"> &#160;&#160;&#160;&#160;hypotheticalMonthlyExpenses, months</text>
<polygon fill="#e65100" stroke="#e65100" points="188,-751 188,-751 401,-751 401,-751 188,-751"/>
</g>
<!-- s4_baseline&#45;&gt;s4_config -->
<g id="edge3" class="edge">
<title>s4_baseline&#45;&gt;s4_config</title>
<path fill="none" stroke="#2e7d32" stroke-width="1.2" d="M294,-852.7C294,-831.99 294,-806.9 294,-785.12"/>
<polygon fill="#2e7d32" stroke="#2e7d32" stroke-width="1.2" points="294,-776.02 298.05,-785.02 294.1,-780.52 294.1,-785.02 294,-785.02 293.9,-785.02 293.9,-780.52 289.95,-785.02 294,-776.02 294,-776.02"/>
<text text-anchor="middle" x="329" y="-812" font-family="Helvetica,sans-Serif" font-size="10.00" fill="#2e7d32">history loaded</text>
</g>
<!-- s4_valid -->
<g id="node5" class="node">
<title>s4_valid</title>
<path fill="#fffde7" stroke="#f9a825" stroke-width="1.6" d="M178,-613C178,-613 12,-613 12,-613 6,-613 0,-607 0,-601 0,-601 0,-539 0,-539 0,-533 6,-527 12,-527 12,-527 178,-527 178,-527 184,-527 190,-533 190,-539 190,-539 190,-601 190,-601 190,-607 184,-613 178,-613"/>
<text text-anchor="start" x="61" y="-596.4" font-family="Helvetica,sans-Serif" font-weight="bold" font-size="12.00">Validating</text>
<text text-anchor="start" x="12" y="-576" font-family="Helvetica,sans-Serif" font-size="10.00">do / Bean Validation</text>
<text text-anchor="start" x="12" y="-557" font-family="Helvetica,sans-Serif" font-size="10.00"> &#160;@DecimalMin income, expenses</text>
<text text-anchor="start" x="12" y="-538" font-family="Helvetica,sans-Serif" font-size="10.00"> &#160;@Min(1) @Max(60) months</text>
<polygon fill="#f9a825" stroke="#f9a825" points="8,-588 8,-588 182,-588 182,-588 8,-588"/>
</g>
<!-- s4_config&#45;&gt;s4_valid -->
<g id="edge5" class="edge">
<title>s4_config&#45;&gt;s4_valid</title>
<path fill="none" stroke="#37474f" stroke-width="1.2" d="M179.37,-715.71C144.95,-704.87 110.84,-686.86 90,-657 83.04,-647.03 81.01,-634.72 81.47,-622.57"/>
<polygon fill="#37474f" stroke="#37474f" stroke-width="1.2" points="82.27,-613.34 85.53,-622.66 81.98,-617.83 81.59,-622.31 81.49,-622.31 81.39,-622.3 81.78,-617.81 77.46,-621.96 82.27,-613.34 82.27,-613.34"/>
<text text-anchor="middle" x="112.5" y="-649" font-family="Helvetica,sans-Serif" font-size="10.00" fill="#37474f">click Run</text>
</g>
<!-- s4_valid&#45;&gt;s4_config -->
<g id="edge6" class="edge">
<title>s4_valid&#45;&gt;s4_config</title>
<path fill="none" stroke="#c62828" stroke-width="1.2" stroke-dasharray="5,2" d="M133.14,-613.06C147.24,-627.66 163.76,-643.69 180,-657 191.64,-666.54 204.52,-675.97 217.32,-684.74"/>
<polygon fill="#c62828" stroke="#c62828" stroke-width="1.2" points="224.83,-689.83 215.11,-688.14 221.05,-687.39 217.32,-684.87 217.38,-684.78 217.44,-684.7 221.16,-687.23 219.65,-681.43 224.83,-689.83 224.83,-689.83"/>
<text text-anchor="middle" x="221.5" y="-649" font-family="Helvetica,sans-Serif" font-size="10.00" fill="#c62828">400 Bad Request</text>
</g>
<!-- s4_sim -->
<g id="node6" class="node">
<title>s4_sim</title>
<path fill="#e3f2fd" stroke="#1565c0" stroke-width="1.6" d="M327,-450C327,-450 157,-450 157,-450 151,-450 145,-444 145,-438 145,-438 145,-319 145,-319 145,-313 151,-307 157,-307 157,-307 327,-307 327,-307 333,-307 339,-313 339,-319 339,-319 339,-438 339,-438 339,-444 333,-450 327,-450"/>
<text text-anchor="start" x="205.5" y="-432.9" font-family="Helvetica,sans-Serif" font-weight="bold" font-size="12.00">Simulating</text>
<text text-anchor="start" x="157" y="-412.5" font-family="Helvetica,sans-Serif" font-size="10.00">do / POST /api/simulation/run</text>
<text text-anchor="start" x="157" y="-393.5" font-family="Helvetica,sans-Serif" font-size="10.00"> &#160;for m = 1..months:</text>
<text text-anchor="start" x="157" y="-374.5" font-family="Helvetica,sans-Serif" font-size="10.00"> &#160;&#160;&#160;balance += income − expenses</text>
<text text-anchor="start" x="157" y="-355.5" font-family="Helvetica,sans-Serif" font-size="10.00"> &#160;&#160;&#160;monthlyBalances[m] = balance</text>
<text text-anchor="start" x="157" y="-336.5" font-family="Helvetica,sans-Serif" font-size="10.00"> &#160;projectedFinalBalance</text>
<text text-anchor="start" x="157" y="-317.5" font-family="Helvetica,sans-Serif" font-size="10.00"> &#160;projectedTotalSavings</text>
<polygon fill="#1565c0" stroke="#1565c0" points="153,-424.5 153,-424.5 331,-424.5 331,-424.5 153,-424.5"/>
</g>
<!-- s4_valid&#45;&gt;s4_sim -->
<g id="edge7" class="edge">
<title>s4_valid&#45;&gt;s4_sim</title>
<path fill="none" stroke="#2e7d32" stroke-width="1.2" d="M39.07,-526.67C27.79,-513.05 21.84,-497.69 31,-483 54.52,-445.26 96.27,-420.89 136.45,-405.35"/>
<polygon fill="#2e7d32" stroke="#2e7d32" stroke-width="1.2" points="144.99,-402.17 137.97,-409.11 140.81,-403.84 136.59,-405.41 136.56,-405.31 136.52,-405.22 140.74,-403.65 135.15,-401.52 144.99,-402.17 144.99,-402.17"/>
<text text-anchor="middle" x="147" y="-486" font-family="Helvetica,sans-Serif" font-size="10.00" fill="#2e7d32">pass / WhatIfSimulationService.runSimulation()</text>
</g>
<!-- s4_sim&#45;&gt;s4_config -->
<g id="edge9" class="edge">
<title>s4_sim&#45;&gt;s4_config</title>
<path fill="none" stroke="#c62828" stroke-width="1.2" stroke-dasharray="5,2" d="M261.99,-450.16C264.63,-461.1 267.08,-472.31 269,-483 281.18,-550.83 287.86,-630.21 291.19,-680.77"/>
<polygon fill="#c62828" stroke="#c62828" stroke-width="1.2" points="291.77,-689.87 287.15,-681.15 291.38,-685.39 291.09,-680.9 291.19,-680.89 291.29,-680.88 291.58,-685.37 295.24,-680.63 291.77,-689.87 291.77,-689.87"/>
<text text-anchor="middle" x="308.5" y="-567.5" font-family="Helvetica,sans-Serif" font-size="10.00" fill="#c62828">500 Error</text>
</g>
<!-- s4_show -->
<g id="node7" class="node">
<title>s4_show</title>
<path fill="#e8f5e9" stroke="#2e7d32" stroke-width="1.6" d="M413,-230C413,-230 239,-230 239,-230 233,-230 227,-224 227,-218 227,-218 227,-156 227,-156 227,-150 233,-144 239,-144 239,-144 413,-144 413,-144 419,-144 425,-150 425,-156 425,-156 425,-218 425,-218 425,-224 419,-230 413,-230"/>
<text text-anchor="start" x="255" y="-213.4" font-family="Helvetica,sans-Serif" font-weight="bold" font-size="12.00">Displaying Projection</text>
<text text-anchor="start" x="239" y="-193" font-family="Helvetica,sans-Serif" font-size="10.00">entry / render SimulationResultDTO</text>
<text text-anchor="start" x="239" y="-174" font-family="Helvetica,sans-Serif" font-size="10.00"> &#160;monthlyBalances chart</text>
<text text-anchor="start" x="239" y="-155" font-family="Helvetica,sans-Serif" font-size="10.00"> &#160;final + total savings</text>
<polygon fill="#2e7d32" stroke="#2e7d32" points="235,-205 235,-205 417,-205 417,-205 235,-205"/>
</g>
<!-- s4_sim&#45;&gt;s4_show -->
<g id="edge8" class="edge">
<title>s4_sim&#45;&gt;s4_show</title>
<path fill="none" stroke="#2e7d32" stroke-width="1.2" d="M273.28,-306.94C283.32,-284.28 294.24,-259.64 303.53,-238.7"/>
<polygon fill="#2e7d32" stroke="#2e7d32" stroke-width="1.2" points="307.26,-230.27 307.32,-240.14 305.53,-234.42 303.71,-238.53 303.62,-238.49 303.53,-238.45 305.35,-234.34 299.91,-236.85 307.26,-230.27 307.26,-230.27"/>
<text text-anchor="middle" x="310" y="-266" font-family="Helvetica,sans-Serif" font-size="10.00" fill="#2e7d32">200 OK</text>
</g>
<!-- s4_show&#45;&gt;s4_config -->
<g id="edge10" class="edge">
<title>s4_show&#45;&gt;s4_config</title>
<path fill="none" stroke="#37474f" stroke-width="1.2" d="M340.67,-230.1C347.75,-252.61 355.46,-280.98 359,-307 377.37,-441.99 373.79,-480.77 341,-613 335.27,-636.12 326.09,-660.75 317.36,-681.57"/>
<polygon fill="#37474f" stroke="#37474f" stroke-width="1.2" points="313.79,-689.94 313.6,-680.07 315.46,-685.76 317.23,-681.62 317.32,-681.66 317.41,-681.7 315.65,-685.84 321.05,-683.25 313.79,-689.94 313.79,-689.94"/>
<text text-anchor="middle" x="399.5" y="-486" font-family="Helvetica,sans-Serif" font-size="10.00" fill="#37474f">new scenario</text>
</g>
<!-- s4_compare -->
<g id="node8" class="node">
<title>s4_compare</title>
<path fill="#f3e5f5" stroke="#6a1b9a" stroke-width="1.6" d="M563.5,-67C563.5,-67 398.5,-67 398.5,-67 392.5,-67 386.5,-61 386.5,-55 386.5,-55 386.5,-12 386.5,-12 386.5,-6 392.5,0 398.5,0 398.5,0 563.5,0 563.5,0 569.5,0 575.5,-6 575.5,-12 575.5,-12 575.5,-55 575.5,-55 575.5,-61 569.5,-67 563.5,-67"/>
<text text-anchor="start" x="409.5" y="-49.9" font-family="Helvetica,sans-Serif" font-weight="bold" font-size="12.00">Comparing Scenarios</text>
<text text-anchor="start" x="399" y="-29.5" font-family="Helvetica,sans-Serif" font-size="10.00">do / add another scenario to chart</text>
<text text-anchor="start" x="399" y="-10.5" font-family="Helvetica,sans-Serif" font-size="10.00"> &#160;label each run</text>
<polygon fill="#6a1b9a" stroke="#6a1b9a" points="395,-41.5 395,-41.5 568,-41.5 568,-41.5 395,-41.5"/>
</g>
<!-- s4_show&#45;&gt;s4_compare -->
<g id="edge11" class="edge">
<title>s4_show&#45;&gt;s4_compare</title>
<path fill="none" stroke="#37474f" stroke-width="1.2" d="M364.4,-143.71C377.63,-129.55 392.72,-113.85 407,-100 416.12,-91.16 426.15,-81.95 435.81,-73.33"/>
<polygon fill="#37474f" stroke="#37474f" stroke-width="1.2" points="442.75,-67.17 438.71,-76.18 439.45,-70.23 436.09,-73.22 436.02,-73.15 435.95,-73.07 439.32,-70.09 433.33,-70.12 442.75,-67.17 442.75,-67.17"/>
<text text-anchor="middle" x="438.5" y="-103" font-family="Helvetica,sans-Serif" font-size="10.00" fill="#37474f">add scenario</text>
</g>
<!-- s4_end -->
<g id="node9" class="node">
<title>s4_end</title>
<ellipse fill="black" stroke="black" stroke-width="1.4" cx="312" cy="-33.5" rx="11.5" ry="11.5"/>
<ellipse fill="none" stroke="black" stroke-width="1.4" cx="312" cy="-33.5" rx="15.5" ry="15.5"/>
</g>
<!-- s4_show&#45;&gt;s4_end -->
<g id="edge13" class="edge">
<title>s4_show&#45;&gt;s4_end</title>
<path fill="none" stroke="#455a64" stroke-width="1.2" d="M313.39,-143.91C310.74,-133.27 308.35,-121.8 307,-111 306.4,-106.15 306.81,-104.89 307,-100 307.53,-86.15 308.68,-70.69 309.75,-58.27"/>
<polygon fill="#455a64" stroke="#455a64" stroke-width="1.2" points="310.57,-49.05 313.8,-58.37 310.27,-53.54 309.87,-58.02 309.77,-58.01 309.67,-58.01 310.07,-53.52 305.74,-57.65 310.57,-49.05 310.57,-49.05"/>
<text text-anchor="middle" x="334.5" y="-103" font-family="Helvetica,sans-Serif" font-size="10.00" fill="#455a64">leave page</text>
</g>
<!-- s4_compare&#45;&gt;s4_config -->
<g id="edge12" class="edge">
<title>s4_compare&#45;&gt;s4_config</title>
<path fill="none" stroke="#37474f" stroke-width="1.2" d="M487.83,-67.14C493.62,-97.71 501,-144.75 501,-186 501,-571 501,-571 501,-571 501,-622.32 460.86,-659.67 415.93,-685.39"/>
<polygon fill="#37474f" stroke="#37474f" stroke-width="1.2" points="407.79,-689.9 413.7,-681.99 411.68,-687.63 415.62,-685.45 415.67,-685.54 415.72,-685.62 411.78,-687.8 417.63,-689.08 407.79,-689.9 407.79,-689.9"/>
<text text-anchor="middle" x="533.5" y="-376" font-family="Helvetica,sans-Serif" font-size="10.00" fill="#37474f">new scenario</text>
</g>
</g>
</svg>
