<?xml version="1.0" encoding="UTF-8" standalone="no"?>
<!DOCTYPE svg PUBLIC "-//W3C//DTD SVG 1.1//EN"
 "http://www.w3.org/Graphics/SVG/1.1/DTD/svg11.dtd">
<!-- Generated by graphviz version 2.43.0 (0)
 -->
<!-- Title: %3 Pages: 1 -->
<svg width="1522pt" height="2000pt"
 viewBox="0.00 0.00 547.81 720.00" xmlns="http://www.w3.org/2000/svg" xmlns:xlink="http://www.w3.org/1999/xlink">
<g id="graph0" class="graph" transform="scale(1.86 1.86) rotate(0) translate(28.8 1045.8)">
<title>%3</title>
<polygon fill="white" stroke="transparent" points="-28.8,28.8 -28.8,-1045.8 788.8,-1045.8 788.8,28.8 -28.8,28.8"/>
<text text-anchor="middle" x="380" y="-998.6" font-family="Helvetica,sans-Serif" font-size="18.00">Statechart S2 — Income / Expense Record Lifecycle</text>
<text text-anchor="middle" x="380" y="-978.6" font-family="Helvetica,sans-Serif" font-size="18.00">SRS §3.1.3 Record Income · §3.1.4 Record Expense &#160;(CRUD)</text>
<!-- s2_start -->
<g id="node1" class="node">
<title>s2_start</title>
<ellipse fill="black" stroke="black" cx="349" cy="-959" rx="10" ry="10"/>
</g>
<!-- s2_none -->
<g id="node2" class="node">
<title>s2_none</title>
<path fill="#eceff1" stroke="#455a64" stroke-width="1.6" d="M450,-882C450,-882 248,-882 248,-882 242,-882 236,-876 236,-870 236,-870 236,-846 236,-846 236,-840 242,-834 248,-834 248,-834 450,-834 450,-834 456,-834 462,-840 462,-846 462,-846 462,-870 462,-870 462,-876 456,-882 450,-882"/>
<text text-anchor="start" x="314" y="-865.4" font-family="Helvetica,sans-Serif" font-weight="bold" font-size="12.00">No Record</text>
<text text-anchor="start" x="248" y="-845" font-family="Helvetica,sans-Serif" font-size="10.00">entry / render IncomePage / ExpensePage</text>
<polygon fill="#455a64" stroke="#455a64" points="244,-857 244,-857 454,-857 454,-857 244,-857"/>
</g>
<!-- s2_start&#45;&gt;s2_none -->
<g id="edge1" class="edge">
<title>s2_start&#45;&gt;s2_none</title>
<path fill="none" stroke="#37474f" stroke-width="1.2" d="M349,-948.86C349,-935.89 349,-911.46 349,-891.35"/>
<polygon fill="#37474f" stroke="#37474f" stroke-width="1.2" points="349,-882.18 353.05,-891.18 349.1,-886.68 349.1,-891.18 349,-891.18 348.9,-891.18 348.9,-886.68 344.95,-891.18 349,-882.18 349,-882.18"/>
</g>
<!-- s2_draft -->
<g id="node3" class="node">
<title>s2_draft</title>
<path fill="#fff3e0" stroke="#e65100" stroke-width="1.6" d="M451.5,-757C451.5,-757 246.5,-757 246.5,-757 240.5,-757 234.5,-751 234.5,-745 234.5,-745 234.5,-683 234.5,-683 234.5,-677 240.5,-671 246.5,-671 246.5,-671 451.5,-671 451.5,-671 457.5,-671 463.5,-677 463.5,-683 463.5,-683 463.5,-745 463.5,-745 463.5,-751 457.5,-757 451.5,-757"/>
<text text-anchor="start" x="331.5" y="-740.4" font-family="Helvetica,sans-Serif" font-weight="bold" font-size="12.00">Draft</text>
<text text-anchor="start" x="247" y="-720" font-family="Helvetica,sans-Serif" font-size="10.00">entry / render IncomeForm / ExpenseForm</text>
<text text-anchor="start" x="247" y="-701" font-family="Helvetica,sans-Serif" font-size="10.00">do / user fills amount, source/category,</text>
<text text-anchor="start" x="247" y="-682" font-family="Helvetica,sans-Serif" font-size="10.00"> &#160;&#160;&#160;&#160;date, description</text>
<polygon fill="#e65100" stroke="#e65100" points="243,-732 243,-732 456,-732 456,-732 243,-732"/>
</g>
<!-- s2_none&#45;&gt;s2_draft -->
<g id="edge2" class="edge">
<title>s2_none&#45;&gt;s2_draft</title>
<path fill="none" stroke="#37474f" stroke-width="1.2" d="M349,-833.87C349,-815.55 349,-789.28 349,-766.09"/>
<polygon fill="#37474f" stroke="#37474f" stroke-width="1.2" points="349,-757.05 353.05,-766.05 349.1,-761.55 349.1,-766.05 349,-766.05 348.9,-766.05 348.9,-761.55 344.95,-766.05 349,-757.05 349,-757.05"/>
<text text-anchor="middle" x="371.5" y="-793" font-family="Helvetica,sans-Serif" font-size="10.00" fill="#37474f">click Add</text>
</g>
<!-- s2_validating -->
<g id="node4" class="node">
<title>s2_validating</title>
<path fill="#fffde7" stroke="#f9a825" stroke-width="1.6" d="M316.5,-594C316.5,-594 163.5,-594 163.5,-594 157.5,-594 151.5,-588 151.5,-582 151.5,-582 151.5,-482 151.5,-482 151.5,-476 157.5,-470 163.5,-470 163.5,-470 316.5,-470 316.5,-470 322.5,-470 328.5,-476 328.5,-482 328.5,-482 328.5,-582 328.5,-582 328.5,-588 322.5,-594 316.5,-594"/>
<text text-anchor="start" x="206.5" y="-577.4" font-family="Helvetica,sans-Serif" font-weight="bold" font-size="12.00">Validating</text>
<text text-anchor="start" x="164" y="-557" font-family="Helvetica,sans-Serif" font-size="10.00">do / Bean Validation</text>
<text text-anchor="start" x="164" y="-538" font-family="Helvetica,sans-Serif" font-size="10.00"> &#160;@DecimalMin(&quot;0.01&quot;) amount</text>
<text text-anchor="start" x="164" y="-519" font-family="Helvetica,sans-Serif" font-size="10.00"> &#160;@NotBlank source | category</text>
<text text-anchor="start" x="164" y="-500" font-family="Helvetica,sans-Serif" font-size="10.00"> &#160;@NotNull date</text>
<text text-anchor="start" x="164" y="-481" font-family="Helvetica,sans-Serif" font-size="10.00"> &#160;persist User reference</text>
<polygon fill="#f9a825" stroke="#f9a825" points="160,-569 160,-569 321,-569 321,-569 160,-569"/>
</g>
<!-- s2_draft&#45;&gt;s2_validating -->
<g id="edge3" class="edge">
<title>s2_draft&#45;&gt;s2_validating</title>
<path fill="none" stroke="#37474f" stroke-width="1.2" d="M328.83,-670.84C321.69,-656.69 313.35,-640.96 305,-627 300.05,-618.72 294.63,-610.2 289.11,-601.82"/>
<polygon fill="#37474f" stroke="#37474f" stroke-width="1.2" points="284.02,-594.18 292.38,-599.42 286.6,-597.87 289.09,-601.61 289.01,-601.67 288.93,-601.72 286.43,-597.98 285.64,-603.91 284.02,-594.18 284.02,-594.18"/>
<text text-anchor="middle" x="327" y="-630" font-family="Helvetica,sans-Serif" font-size="10.00" fill="#37474f">submit</text>
</g>
<!-- s2_validating&#45;&gt;s2_draft -->
<g id="edge4" class="edge">
<title>s2_validating&#45;&gt;s2_draft</title>
<path fill="none" stroke="#c62828" stroke-width="1.2" stroke-dasharray="5,2" d="M151.41,-543.66C72.05,-556.87 -25.75,-584.52 17,-638 43.16,-670.73 142.24,-690.22 225.41,-701.09"/>
<polygon fill="#c62828" stroke="#c62828" stroke-width="1.2" points="234.44,-702.24 225,-705.12 229.96,-701.77 225.5,-701.2 225.51,-701.1 225.52,-701 229.99,-701.57 226.02,-697.08 234.44,-702.24 234.44,-702.24"/>
<text text-anchor="middle" x="156" y="-630" font-family="Helvetica,sans-Serif" font-size="10.00" fill="#c62828">400 Bad Request [constraint violation] / show field errors</text>
</g>
<!-- s2_persisted -->
<g id="node5" class="node">
<title>s2_persisted</title>
<path fill="#e8f5e9" stroke="#2e7d32" stroke-width="1.6" d="M427,-393C427,-393 223,-393 223,-393 217,-393 211,-387 211,-381 211,-381 211,-319 211,-319 211,-313 217,-307 223,-307 223,-307 427,-307 427,-307 433,-307 439,-313 439,-319 439,-319 439,-381 439,-381 439,-387 433,-393 427,-393"/>
<text text-anchor="start" x="292.5" y="-376.4" font-family="Helvetica,sans-Serif" font-weight="bold" font-size="12.00">Persisted</text>
<text text-anchor="start" x="223" y="-356" font-family="Helvetica,sans-Serif" font-size="10.00">entry / INSERT into income / expenses</text>
<text text-anchor="start" x="223" y="-337" font-family="Helvetica,sans-Serif" font-size="10.00">do / display row in list</text>
<text text-anchor="start" x="223" y="-318" font-family="Helvetica,sans-Serif" font-size="10.00"> &#160;&#160;&#160;&#160;update DashboardSummaryDTO totals</text>
<polygon fill="#2e7d32" stroke="#2e7d32" points="219,-368 219,-368 431,-368 431,-368 219,-368"/>
</g>
<!-- s2_validating&#45;&gt;s2_persisted -->
<g id="edge5" class="edge">
<title>s2_validating&#45;&gt;s2_persisted</title>
<path fill="none" stroke="#2e7d32" stroke-width="1.2" d="M232.93,-470C233.4,-455.08 235.84,-439.52 242,-426 246.25,-416.66 252.29,-407.99 259.18,-400.09"/>
<polygon fill="#2e7d32" stroke="#2e7d32" stroke-width="1.2" points="265.73,-393.07 262.56,-402.42 262.74,-396.43 259.67,-399.72 259.59,-399.65 259.52,-399.58 262.59,-396.29 256.63,-396.89 265.73,-393.07 265.73,-393.07"/>
<text text-anchor="middle" x="310" y="-429" font-family="Helvetica,sans-Serif" font-size="10.00" fill="#2e7d32">201 Created / append to list</text>
</g>
<!-- s2_persisted&#45;&gt;s2_draft -->
<g id="edge13" class="edge">
<title>s2_persisted&#45;&gt;s2_draft</title>
<path fill="none" stroke="#37474f" stroke-width="1.2" d="M365.98,-393.26C373.37,-403.26 379.99,-414.42 384,-426 411.49,-505.41 388.06,-603.69 368.55,-662.2"/>
<polygon fill="#37474f" stroke="#37474f" stroke-width="1.2" points="365.58,-670.89 364.66,-661.07 366.94,-666.6 368.4,-662.34 368.49,-662.38 368.59,-662.41 367.13,-666.67 372.33,-663.68 365.58,-670.89 365.58,-670.89"/>
<text text-anchor="middle" x="438.5" y="-529.5" font-family="Helvetica,sans-Serif" font-size="10.00" fill="#37474f">click Add another</text>
</g>
<!-- s2_editing -->
<g id="node6" class="node">
<title>s2_editing</title>
<path fill="#e3f2fd" stroke="#1565c0" stroke-width="1.6" d="M186,-230C186,-230 12,-230 12,-230 6,-230 0,-224 0,-218 0,-218 0,-175 0,-175 0,-169 6,-163 12,-163 12,-163 186,-163 186,-163 192,-163 198,-169 198,-175 198,-175 198,-218 198,-218 198,-224 192,-230 186,-230"/>
<text text-anchor="start" x="75.5" y="-212.9" font-family="Helvetica,sans-Serif" font-weight="bold" font-size="12.00">Editing</text>
<text text-anchor="start" x="12" y="-192.5" font-family="Helvetica,sans-Serif" font-size="10.00">entry / populate form with row data</text>
<text text-anchor="start" x="12" y="-173.5" font-family="Helvetica,sans-Serif" font-size="10.00">do / allow field edits</text>
<polygon fill="#1565c0" stroke="#1565c0" points="8,-204.5 8,-204.5 190,-204.5 190,-204.5 8,-204.5"/>
</g>
<!-- s2_persisted&#45;&gt;s2_editing -->
<g id="edge6" class="edge">
<title>s2_persisted&#45;&gt;s2_editing</title>
<path fill="none" stroke="#37474f" stroke-width="1.2" d="M253.41,-306.86C236.37,-296.42 218.38,-285.05 202,-274 184.22,-262.01 165.25,-248.23 148.5,-235.69"/>
<polygon fill="#37474f" stroke="#37474f" stroke-width="1.2" points="140.97,-230.02 150.6,-232.2 144.62,-232.65 148.22,-235.35 148.16,-235.43 148.1,-235.51 144.5,-232.81 145.73,-238.67 140.97,-230.02 140.97,-230.02"/>
<text text-anchor="middle" x="224.5" y="-266" font-family="Helvetica,sans-Serif" font-size="10.00" fill="#37474f">click Edit</text>
</g>
<!-- s2_deleting -->
<g id="node8" class="node">
<title>s2_deleting</title>
<path fill="#ffebee" stroke="#c62828" stroke-width="1.6" d="M575.5,-220.5C575.5,-220.5 430.5,-220.5 430.5,-220.5 424.5,-220.5 418.5,-214.5 418.5,-208.5 418.5,-208.5 418.5,-184.5 418.5,-184.5 418.5,-178.5 424.5,-172.5 430.5,-172.5 430.5,-172.5 575.5,-172.5 575.5,-172.5 581.5,-172.5 587.5,-178.5 587.5,-184.5 587.5,-184.5 587.5,-208.5 587.5,-208.5 587.5,-214.5 581.5,-220.5 575.5,-220.5"/>
<text text-anchor="start" x="452" y="-203.9" font-family="Helvetica,sans-Serif" font-weight="bold" font-size="12.00">Confirm Delete</text>
<text text-anchor="start" x="431" y="-183.5" font-family="Helvetica,sans-Serif" font-size="10.00">do / show confirmation dialog</text>
<polygon fill="#c62828" stroke="#c62828" points="427,-195.5 427,-195.5 580,-195.5 580,-195.5 427,-195.5"/>
</g>
<!-- s2_persisted&#45;&gt;s2_deleting -->
<g id="edge10" class="edge">
<title>s2_persisted&#45;&gt;s2_deleting</title>
<path fill="none" stroke="#37474f" stroke-width="1.2" d="M346.62,-306.87C355.78,-291.76 367.49,-275.42 381,-263 397.65,-247.7 418.53,-234.81 438.28,-224.61"/>
<polygon fill="#37474f" stroke="#37474f" stroke-width="1.2" points="446.37,-220.55 440.15,-228.21 442.4,-222.66 438.37,-224.68 438.33,-224.59 438.28,-224.5 442.31,-222.48 436.51,-220.97 446.37,-220.55 446.37,-220.55"/>
<text text-anchor="middle" x="410" y="-266" font-family="Helvetica,sans-Serif" font-size="10.00" fill="#37474f">click Delete</text>
</g>
<!-- s2_updating -->
<g id="node7" class="node">
<title>s2_updating</title>
<path fill="#fffde7" stroke="#f9a825" stroke-width="1.6" d="M328,-86C328,-86 108,-86 108,-86 102,-86 96,-80 96,-74 96,-74 96,-12 96,-12 96,-6 102,0 108,0 108,0 328,0 328,0 334,0 340,-6 340,-12 340,-12 340,-74 340,-74 340,-80 334,-86 328,-86"/>
<text text-anchor="start" x="187.5" y="-69.4" font-family="Helvetica,sans-Serif" font-weight="bold" font-size="12.00">Updating</text>
<text text-anchor="start" x="108" y="-49" font-family="Helvetica,sans-Serif" font-size="10.00">do / PUT /api/income/{id} | /api/expense/{id}</text>
<text text-anchor="start" x="108" y="-30" font-family="Helvetica,sans-Serif" font-size="10.00"> &#160;@Valid dto</text>
<text text-anchor="start" x="108" y="-11" font-family="Helvetica,sans-Serif" font-size="10.00"> &#160;UPDATE row</text>
<polygon fill="#f9a825" stroke="#f9a825" points="104,-61 104,-61 332,-61 332,-61 104,-61"/>
</g>
<!-- s2_editing&#45;&gt;s2_updating -->
<g id="edge7" class="edge">
<title>s2_editing&#45;&gt;s2_updating</title>
<path fill="none" stroke="#37474f" stroke-width="1.2" d="M142.19,-162.71C153.38,-152.96 164.85,-141.72 174,-130 182.39,-119.26 189.88,-106.67 196.21,-94.5"/>
<polygon fill="#37474f" stroke="#37474f" stroke-width="1.2" points="200.39,-86.16 199.97,-96.02 198.46,-90.22 196.44,-94.25 196.35,-94.2 196.27,-94.16 198.29,-90.13 192.74,-92.38 200.39,-86.16 200.39,-86.16"/>
<text text-anchor="middle" x="199" y="-122" font-family="Helvetica,sans-Serif" font-size="10.00" fill="#37474f">submit</text>
</g>
<!-- s2_updating&#45;&gt;s2_persisted -->
<g id="edge9" class="edge">
<title>s2_updating&#45;&gt;s2_persisted</title>
<path fill="none" stroke="#2e7d32" stroke-width="1.2" d="M232.79,-86.15C252.21,-141.51 286.29,-238.65 307.13,-298.07"/>
<polygon fill="#2e7d32" stroke="#2e7d32" stroke-width="1.2" points="310.23,-306.91 303.43,-299.76 308.65,-302.7 307.16,-298.45 307.26,-298.42 307.35,-298.39 308.84,-302.63 311.08,-297.08 310.23,-306.91 310.23,-306.91"/>
<text text-anchor="middle" x="332" y="-194" font-family="Helvetica,sans-Serif" font-size="10.00" fill="#2e7d32">200 OK / refresh row</text>
</g>
<!-- s2_updating&#45;&gt;s2_editing -->
<g id="edge8" class="edge">
<title>s2_updating&#45;&gt;s2_editing</title>
<path fill="none" stroke="#c62828" stroke-width="1.2" stroke-dasharray="5,2" d="M111.64,-86.13C99.46,-95.2 88.67,-106.05 81,-119 74.74,-129.57 75.11,-142.17 78.22,-154.06"/>
<polygon fill="#c62828" stroke="#c62828" stroke-width="1.2" points="81.07,-162.97 74.47,-155.63 79.6,-158.72 78.23,-154.43 78.33,-154.4 78.42,-154.37 79.79,-158.66 82.18,-153.17 81.07,-162.97 81.07,-162.97"/>
<text text-anchor="middle" x="122.5" y="-122" font-family="Helvetica,sans-Serif" font-size="10.00" fill="#c62828">400 Bad Request</text>
</g>
<!-- s2_deleting&#45;&gt;s2_persisted -->
<g id="edge11" class="edge">
<title>s2_deleting&#45;&gt;s2_persisted</title>
<path fill="none" stroke="#455a64" stroke-width="1.2" stroke-dasharray="5,2" d="M488.68,-220.69C477.96,-236.86 462.23,-258.26 445,-274 434.19,-283.88 421.9,-293.23 409.41,-301.75"/>
<polygon fill="#455a64" stroke="#455a64" stroke-width="1.2" points="401.62,-306.95 406.86,-298.59 405.31,-304.37 409.05,-301.87 409.11,-301.96 409.17,-302.04 405.42,-304.54 411.36,-305.32 401.62,-306.95 401.62,-306.95"/>
<text text-anchor="middle" x="470" y="-266" font-family="Helvetica,sans-Serif" font-size="10.00" fill="#455a64">cancel</text>
</g>
<!-- s2_end -->
<g id="node9" class="node">
<title>s2_end</title>
<ellipse fill="black" stroke="black" stroke-width="1.4" cx="503" cy="-43" rx="11.5" ry="11.5"/>
<ellipse fill="none" stroke="black" stroke-width="1.4" cx="503" cy="-43" rx="15.5" ry="15.5"/>
</g>
<!-- s2_deleting&#45;&gt;s2_end -->
<g id="edge12" class="edge">
<title>s2_deleting&#45;&gt;s2_end</title>
<path fill="none" stroke="#c62828" stroke-width="1.2" d="M503,-172.49C503,-144.2 503,-96.44 503,-67.8"/>
<polygon fill="#c62828" stroke="#c62828" stroke-width="1.2" points="503,-58.53 507.05,-67.53 503.1,-63.03 503.1,-67.53 503,-67.53 502.9,-67.53 502.9,-63.03 498.95,-67.53 503,-58.53 503,-58.53"/>
<text text-anchor="middle" x="631.5" y="-122" font-family="Helvetica,sans-Serif" font-size="10.00" fill="#c62828">confirm / DELETE /api/income/{id} → 204 No Content</text>
</g>
</g>
</svg>
