<?xml version="1.0" encoding="UTF-8" standalone="no"?>
<!DOCTYPE svg PUBLIC "-//W3C//DTD SVG 1.1//EN"
 "http://www.w3.org/Graphics/SVG/1.1/DTD/svg11.dtd">
<!-- Generated by graphviz version 2.43.0 (0)
 -->
<!-- Title: %3 Pages: 1 -->
<svg width="1214pt" height="2200pt"
 viewBox="0.00 0.00 437.14 792.00" xmlns="http://www.w3.org/2000/svg" xmlns:xlink="http://www.w3.org/1999/xlink">
<g id="graph0" class="graph" transform="scale(1.81 1.81) rotate(0) translate(28.8 1189.8)">
<title>%3</title>
<polygon fill="white" stroke="transparent" points="-28.8,28.8 -28.8,-1189.8 643.8,-1189.8 643.8,28.8 -28.8,28.8"/>
<text text-anchor="middle" x="307.5" y="-1142.6" font-family="Helvetica,sans-Serif" font-size="18.00">Statechart S1 — User Authentication</text>
<text text-anchor="middle" x="307.5" y="-1122.6" font-family="Helvetica,sans-Serif" font-size="18.00">SRS §3.1.1 Create Account · §3.1.2 Login · Session Lifecycle</text>
<!-- s1_start -->
<g id="node1" class="node">
<title>s1_start</title>
<ellipse fill="black" stroke="black" cx="402" cy="-1103" rx="10" ry="10"/>
</g>
<!-- s1_landing -->
<g id="node2" class="node">
<title>s1_landing</title>
<path fill="#eceff1" stroke="#455a64" stroke-width="1.6" d="M463.5,-1026C463.5,-1026 340.5,-1026 340.5,-1026 334.5,-1026 328.5,-1020 328.5,-1014 328.5,-1014 328.5,-971 328.5,-971 328.5,-965 334.5,-959 340.5,-959 340.5,-959 463.5,-959 463.5,-959 469.5,-959 475.5,-965 475.5,-971 475.5,-971 475.5,-1014 475.5,-1014 475.5,-1020 469.5,-1026 463.5,-1026"/>
<text text-anchor="start" x="346" y="-1008.9" font-family="Helvetica,sans-Serif" font-weight="bold" font-size="12.00">Unauthenticated</text>
<text text-anchor="start" x="341" y="-988.5" font-family="Helvetica,sans-Serif" font-size="10.00">entry / render Login page</text>
<text text-anchor="start" x="341" y="-969.5" font-family="Helvetica,sans-Serif" font-size="10.00">do / wait for user action</text>
<polygon fill="#455a64" stroke="#455a64" points="337,-1000.5 337,-1000.5 468,-1000.5 468,-1000.5 337,-1000.5"/>
</g>
<!-- s1_start&#45;&gt;s1_landing -->
<g id="edge1" class="edge">
<title>s1_start&#45;&gt;s1_landing</title>
<path fill="none" stroke="#37474f" stroke-width="1.2" d="M402,-1092.75C402,-1080.07 402,-1056.47 402,-1035.47"/>
<polygon fill="#37474f" stroke="#37474f" stroke-width="1.2" points="402,-1026.36 406.05,-1035.36 402.1,-1030.86 402.1,-1035.36 402,-1035.36 401.9,-1035.36 401.9,-1030.86 397.95,-1035.36 402,-1026.36 402,-1026.36"/>
</g>
<!-- s1_registering -->
<g id="node3" class="node">
<title>s1_registering</title>
<path fill="#fff3e0" stroke="#e65100" stroke-width="1.6" d="M364,-882C364,-882 120,-882 120,-882 114,-882 108,-876 108,-870 108,-870 108,-827 108,-827 108,-821 114,-815 120,-815 120,-815 364,-815 364,-815 370,-815 376,-821 376,-827 376,-827 376,-870 376,-870 376,-876 370,-882 364,-882"/>
<text text-anchor="start" x="203" y="-864.9" font-family="Helvetica,sans-Serif" font-weight="bold" font-size="12.00">Registering</text>
<text text-anchor="start" x="120" y="-844.5" font-family="Helvetica,sans-Serif" font-size="10.00">entry / render RegisterPage</text>
<text text-anchor="start" x="120" y="-825.5" font-family="Helvetica,sans-Serif" font-size="10.00">do / collect firstName, lastName, email, password</text>
<polygon fill="#e65100" stroke="#e65100" points="116,-856.5 116,-856.5 368,-856.5 368,-856.5 116,-856.5"/>
</g>
<!-- s1_landing&#45;&gt;s1_registering -->
<g id="edge2" class="edge">
<title>s1_landing&#45;&gt;s1_registering</title>
<path fill="none" stroke="#37474f" stroke-width="1.2" d="M365.29,-958.92C341.6,-937.89 310.65,-910.42 285.68,-888.27"/>
<polygon fill="#37474f" stroke="#37474f" stroke-width="1.2" points="278.81,-882.17 288.23,-885.12 282.25,-885.08 285.61,-888.07 285.54,-888.15 285.48,-888.22 282.11,-885.23 282.86,-891.17 278.81,-882.17 278.81,-882.17"/>
<text text-anchor="middle" x="360.5" y="-918" font-family="Helvetica,sans-Serif" font-size="10.00" fill="#37474f">click Register</text>
</g>
<!-- s1_login -->
<g id="node5" class="node">
<title>s1_login</title>
<path fill="#fff3e0" stroke="#e65100" stroke-width="1.6" d="M368.5,-249C368.5,-249 223.5,-249 223.5,-249 217.5,-249 211.5,-243 211.5,-237 211.5,-237 211.5,-194 211.5,-194 211.5,-188 217.5,-182 223.5,-182 223.5,-182 368.5,-182 368.5,-182 374.5,-182 380.5,-188 380.5,-194 380.5,-194 380.5,-237 380.5,-237 380.5,-243 374.5,-249 368.5,-249"/>
<text text-anchor="start" x="227" y="-231.9" font-family="Helvetica,sans-Serif" font-weight="bold" font-size="12.00">Entering Credentials</text>
<text text-anchor="start" x="224" y="-211.5" font-family="Helvetica,sans-Serif" font-size="10.00">entry / render LoginPage</text>
<text text-anchor="start" x="224" y="-192.5" font-family="Helvetica,sans-Serif" font-size="10.00">do / collect email + password</text>
<polygon fill="#e65100" stroke="#e65100" points="220,-223.5 220,-223.5 373,-223.5 373,-223.5 220,-223.5"/>
</g>
<!-- s1_landing&#45;&gt;s1_login -->
<g id="edge3" class="edge">
<title>s1_landing&#45;&gt;s1_login</title>
<path fill="none" stroke="#37474f" stroke-width="1.2" d="M475.9,-960.04C518.23,-936.55 563,-899.81 563,-849.5 563,-849.5 563,-849.5 563,-358.5 563,-277.9 466.99,-242.91 390.12,-227.8"/>
<polygon fill="#37474f" stroke="#37474f" stroke-width="1.2" points="380.85,-226.06 390.44,-223.74 385.29,-226.79 389.71,-227.62 389.69,-227.72 389.67,-227.82 385.25,-226.99 388.94,-231.7 380.85,-226.06 380.85,-226.06"/>
<text text-anchor="middle" x="589" y="-592" font-family="Helvetica,sans-Serif" font-size="10.00" fill="#37474f">click Login</text>
</g>
<!-- s1_valReg -->
<g id="node4" class="node">
<title>s1_valReg</title>
<path fill="#fffde7" stroke="#f9a825" stroke-width="1.6" d="M198,-738C198,-738 42,-738 42,-738 36,-738 30,-732 30,-726 30,-726 30,-645 30,-645 30,-639 36,-633 42,-633 42,-633 198,-633 198,-633 204,-633 210,-639 210,-645 210,-645 210,-726 210,-726 210,-732 204,-738 198,-738"/>
<text text-anchor="start" x="42" y="-720.9" font-family="Helvetica,sans-Serif" font-weight="bold" font-size="12.00">Validating Registration</text>
<text text-anchor="start" x="42" y="-700.5" font-family="Helvetica,sans-Serif" font-size="10.00">do / POST /api/auth/register</text>
<text text-anchor="start" x="42" y="-681.5" font-family="Helvetica,sans-Serif" font-size="10.00"> &#160;@Valid RegisterRequest</text>
<text text-anchor="start" x="42" y="-662.5" font-family="Helvetica,sans-Serif" font-size="10.00"> &#160;BCrypt&#45;hash password</text>
<text text-anchor="start" x="42" y="-643.5" font-family="Helvetica,sans-Serif" font-size="10.00"> &#160;check email uniqueness</text>
<polygon fill="#f9a825" stroke="#f9a825" points="38,-712.5 38,-712.5 202,-712.5 202,-712.5 38,-712.5"/>
</g>
<!-- s1_registering&#45;&gt;s1_valReg -->
<g id="edge4" class="edge">
<title>s1_registering&#45;&gt;s1_valReg</title>
<path fill="none" stroke="#37474f" stroke-width="1.2" d="M107.91,-823.86C64.45,-813.28 24.04,-799.25 11,-782 -2.01,-764.79 5.93,-748.39 22.24,-734.2"/>
<polygon fill="#37474f" stroke="#37474f" stroke-width="1.2" points="29.7,-728.25 25.18,-737.03 26.24,-731.13 22.72,-733.94 22.66,-733.86 22.6,-733.78 26.12,-730.98 20.14,-730.69 29.7,-728.25 29.7,-728.25"/>
<text text-anchor="middle" x="101.5" y="-774" font-family="Helvetica,sans-Serif" font-size="10.00" fill="#37474f">submit form / POST /api/auth/register</text>
</g>
<!-- s1_valReg&#45;&gt;s1_registering -->
<g id="edge5" class="edge">
<title>s1_valReg&#45;&gt;s1_registering</title>
<path fill="none" stroke="#c62828" stroke-width="1.2" stroke-dasharray="5,2" d="M171,-738.12C180.42,-748.64 189.84,-759.9 198,-771 206.18,-782.14 214.06,-794.92 220.83,-806.81"/>
<polygon fill="#c62828" stroke="#c62828" stroke-width="1.2" points="225.33,-814.86 217.41,-808.98 223.05,-810.99 220.86,-807.06 220.94,-807.01 221.03,-806.96 223.23,-810.89 224.48,-805.03 225.33,-814.86 225.33,-814.86"/>
<text text-anchor="middle" x="352.5" y="-774" font-family="Helvetica,sans-Serif" font-size="10.00" fill="#c62828">400 Bad Request [email taken or validation fail] / show error</text>
</g>
<!-- s1_session -->
<g id="node7" class="node">
<title>s1_session</title>
<path fill="#e8f5e9" stroke="#2e7d32" stroke-width="1.6" d="M228,-556C228,-556 12,-556 12,-556 6,-556 0,-550 0,-544 0,-544 0,-482 0,-482 0,-476 6,-470 12,-470 12,-470 228,-470 228,-470 234,-470 240,-476 240,-482 240,-482 240,-544 240,-544 240,-550 234,-556 228,-556"/>
<text text-anchor="start" x="70.5" y="-539.4" font-family="Helvetica,sans-Serif" font-weight="bold" font-size="12.00">Session Active</text>
<text text-anchor="start" x="12" y="-519" font-family="Helvetica,sans-Serif" font-size="10.00">entry / store JWT + user in AuthContext</text>
<text text-anchor="start" x="12" y="-500" font-family="Helvetica,sans-Serif" font-size="10.00">do / every request attaches Bearer &lt;token&gt;</text>
<text text-anchor="start" x="12" y="-481" font-family="Helvetica,sans-Serif" font-size="10.00"> &#160;&#160;&#160;&#160;JwtAuthFilter validates on each call</text>
<polygon fill="#2e7d32" stroke="#2e7d32" points="8,-531 8,-531 232,-531 232,-531 8,-531"/>
</g>
<!-- s1_valReg&#45;&gt;s1_session -->
<g id="edge6" class="edge">
<title>s1_valReg&#45;&gt;s1_session</title>
<path fill="none" stroke="#2e7d32" stroke-width="1.2" d="M120,-632.88C120,-611.45 120,-586.65 120,-565.25"/>
<polygon fill="#2e7d32" stroke="#2e7d32" stroke-width="1.2" points="120,-556 124.05,-565 120.1,-560.5 120.1,-565 120,-565 119.9,-565 119.9,-560.5 115.95,-565 120,-556 120,-556"/>
<text text-anchor="middle" x="194.5" y="-592" font-family="Helvetica,sans-Serif" font-size="10.00" fill="#2e7d32">201 Created / save JWT + user</text>
</g>
<!-- s1_valLogin -->
<g id="node6" class="node">
<title>s1_valLogin</title>
<path fill="#fffde7" stroke="#f9a825" stroke-width="1.6" d="M194,-105C194,-105 26,-105 26,-105 20,-105 14,-99 14,-93 14,-93 14,-12 14,-12 14,-6 20,0 26,0 26,0 194,0 194,0 200,0 206,-6 206,-12 206,-12 206,-93 206,-93 206,-99 200,-105 194,-105"/>
<text text-anchor="start" x="35" y="-87.9" font-family="Helvetica,sans-Serif" font-weight="bold" font-size="12.00">Validating Credentials</text>
<text text-anchor="start" x="26" y="-67.5" font-family="Helvetica,sans-Serif" font-size="10.00">do / POST /api/auth/login</text>
<text text-anchor="start" x="26" y="-48.5" font-family="Helvetica,sans-Serif" font-size="10.00"> &#160;lookup user by email</text>
<text text-anchor="start" x="26" y="-29.5" font-family="Helvetica,sans-Serif" font-size="10.00"> &#160;BCrypt.matches(password, hash)</text>
<text text-anchor="start" x="26" y="-10.5" font-family="Helvetica,sans-Serif" font-size="10.00"> &#160;generate JWT (HS256)</text>
<polygon fill="#f9a825" stroke="#f9a825" points="22,-79.5 22,-79.5 198,-79.5 198,-79.5 22,-79.5"/>
</g>
<!-- s1_login&#45;&gt;s1_valLogin -->
<g id="edge7" class="edge">
<title>s1_login&#45;&gt;s1_valLogin</title>
<path fill="none" stroke="#37474f" stroke-width="1.2" d="M211.28,-207.47C172.22,-199.49 129.25,-182.95 105,-149 97.78,-138.89 95.21,-126.53 95.18,-114.1"/>
<polygon fill="#37474f" stroke="#37474f" stroke-width="1.2" points="95.59,-105.07 99.23,-114.24 95.48,-109.57 95.28,-114.06 95.18,-114.06 95.08,-114.05 95.29,-109.56 91.14,-113.88 95.59,-105.07 95.59,-105.07"/>
<text text-anchor="middle" x="189" y="-141" font-family="Helvetica,sans-Serif" font-size="10.00" fill="#37474f">submit form / POST /api/auth/login</text>
</g>
<!-- s1_valLogin&#45;&gt;s1_login -->
<g id="edge8" class="edge">
<title>s1_valLogin&#45;&gt;s1_login</title>
<path fill="none" stroke="#c62828" stroke-width="1.2" stroke-dasharray="5,2" d="M206.34,-83.82C233.38,-96.61 260.43,-114.21 279,-138 286.67,-147.83 291.03,-160.42 293.46,-172.54"/>
<polygon fill="#c62828" stroke="#c62828" stroke-width="1.2" points="294.97,-181.67 289.51,-173.45 294.14,-177.24 293.41,-172.8 293.5,-172.79 293.6,-172.77 294.34,-177.21 297.5,-172.13 294.97,-181.67 294.97,-181.67"/>
<text text-anchor="middle" x="405" y="-141" font-family="Helvetica,sans-Serif" font-size="10.00" fill="#c62828">401 Unauthorized [wrong password] / show error</text>
</g>
<!-- s1_valLogin&#45;&gt;s1_session -->
<g id="edge9" class="edge">
<title>s1_valLogin&#45;&gt;s1_session</title>
<path fill="none" stroke="#2e7d32" stroke-width="1.2" d="M96.78,-105.06C94.47,-115.88 92.37,-127.26 91,-138 81.35,-213.88 78.37,-346.99 85,-393 88.29,-415.85 94.96,-440.42 101.6,-461.28"/>
<polygon fill="#2e7d32" stroke="#2e7d32" stroke-width="1.2" points="104.44,-469.97 97.8,-462.67 102.95,-465.72 101.55,-461.44 101.65,-461.41 101.74,-461.38 103.14,-465.66 105.5,-460.16 104.44,-469.97 104.44,-469.97"/>
<text text-anchor="middle" x="144.5" y="-285" font-family="Helvetica,sans-Serif" font-size="10.00" fill="#2e7d32">200 OK / save JWT + user</text>
</g>
<!-- s1_session&#45;&gt;s1_session -->
<g id="edge10" class="edge">
<title>s1_session&#45;&gt;s1_session</title>
<path fill="none" stroke="#37474f" stroke-width="1.2" d="M240.02,-527.33C263.4,-525.67 280,-520.89 280,-513 280,-506.19 267.63,-501.7 249.2,-499.52"/>
<polygon fill="#37474f" stroke="#37474f" stroke-width="1.2" points="240.02,-498.67 249.35,-495.47 244.51,-498.99 248.99,-499.4 248.98,-499.5 248.97,-499.6 244.49,-499.19 248.6,-503.54 240.02,-498.67 240.02,-498.67"/>
<text text-anchor="middle" x="334" y="-510.5" font-family="Helvetica,sans-Serif" font-size="10.00" fill="#37474f">authenticated request</text>
</g>
<!-- s1_expired -->
<g id="node8" class="node">
<title>s1_expired</title>
<path fill="#ffebee" stroke="#c62828" stroke-width="1.6" d="M313,-393C313,-393 117,-393 117,-393 111,-393 105,-387 105,-381 105,-381 105,-338 105,-338 105,-332 111,-326 117,-326 117,-326 313,-326 313,-326 319,-326 325,-332 325,-338 325,-338 325,-381 325,-381 325,-387 319,-393 313,-393"/>
<text text-anchor="start" x="168" y="-375.9" font-family="Helvetica,sans-Serif" font-weight="bold" font-size="12.00">Token Expired</text>
<text text-anchor="start" x="117" y="-355.5" font-family="Helvetica,sans-Serif" font-size="10.00">entry / axios 401 interceptor fires</text>
<text text-anchor="start" x="117" y="-336.5" font-family="Helvetica,sans-Serif" font-size="10.00">do / clear AuthContext, redirect to /login</text>
<polygon fill="#c62828" stroke="#c62828" points="113,-367.5 113,-367.5 317,-367.5 317,-367.5 113,-367.5"/>
</g>
<!-- s1_session&#45;&gt;s1_expired -->
<g id="edge11" class="edge">
<title>s1_session&#45;&gt;s1_expired</title>
<path fill="none" stroke="#c62828" stroke-width="1.2" stroke-dasharray="5,2" d="M108.77,-469.77C107.1,-455.16 107.89,-439.16 115,-426 120.62,-415.6 128.69,-406.58 137.85,-398.85"/>
<polygon fill="#c62828" stroke="#c62828" stroke-width="1.2" points="145.04,-393.18 140.48,-401.93 141.57,-396.05 138.03,-398.83 137.97,-398.75 137.91,-398.68 141.44,-395.89 135.46,-395.57 145.04,-393.18 145.04,-393.18"/>
<text text-anchor="middle" x="223" y="-429" font-family="Helvetica,sans-Serif" font-size="10.00" fill="#c62828">JWT expired [&gt; 24h OR 15&#45;min idle timeout]</text>
</g>
<!-- s1_end -->
<g id="node9" class="node">
<title>s1_end</title>
<ellipse fill="black" stroke="black" stroke-width="1.4" cx="381" cy="-359.5" rx="11.5" ry="11.5"/>
<ellipse fill="none" stroke="black" stroke-width="1.4" cx="381" cy="-359.5" rx="15.5" ry="15.5"/>
</g>
<!-- s1_session&#45;&gt;s1_end -->
<g id="edge13" class="edge">
<title>s1_session&#45;&gt;s1_end</title>
<path fill="none" stroke="#455a64" stroke-width="1.2" d="M240.24,-487.22C274.13,-476 309.27,-459.92 337,-437 354.14,-422.83 365.98,-400.14 373.03,-383.15"/>
<polygon fill="#455a64" stroke="#455a64" stroke-width="1.2" points="376.46,-374.38 376.95,-384.24 374.91,-378.61 373.28,-382.8 373.18,-382.76 373.09,-382.73 374.73,-378.54 369.41,-381.29 376.46,-374.38 376.46,-374.38"/>
<text text-anchor="middle" x="426" y="-429" font-family="Helvetica,sans-Serif" font-size="10.00" fill="#455a64">click Logout / clear AuthContext</text>
</g>
<!-- s1_expired&#45;&gt;s1_login -->
<g id="edge12" class="edge">
<title>s1_expired&#45;&gt;s1_login</title>
<path fill="none" stroke="#37474f" stroke-width="1.2" d="M233.58,-325.92C245.18,-305.59 260.21,-279.25 272.61,-257.5"/>
<polygon fill="#37474f" stroke="#37474f" stroke-width="1.2" points="277.22,-249.42 276.28,-259.24 275.08,-253.38 272.85,-257.28 272.76,-257.24 272.68,-257.19 274.91,-253.28 269.25,-255.23 277.22,-249.42 277.22,-249.42"/>
<text text-anchor="middle" x="290" y="-285" font-family="Helvetica,sans-Serif" font-size="10.00" fill="#37474f">auto&#45;redirect</text>
</g>
</g>
</svg>
