<?xml version="1.0" encoding="UTF-8" standalone="no"?>
<!DOCTYPE svg PUBLIC "-//W3C//DTD SVG 1.1//EN"
 "http://www.w3.org/Graphics/SVG/1.1/DTD/svg11.dtd">
<!-- Generated by graphviz version 2.43.0 (0)
 -->
<!-- Title: %3 Pages: 1 -->
<svg width="1218pt" height="2200pt"
 viewBox="0.00 0.00 438.46 792.00" xmlns="http://www.w3.org/2000/svg" xmlns:xlink="http://www.w3.org/1999/xlink">
<g id="graph0" class="graph" transform="scale(1.54 1.54) rotate(0) translate(28.8 1403.8)">
<title>%3</title>
<polygon fill="white" stroke="transparent" points="-28.8,28.8 -28.8,-1403.8 764.3,-1403.8 764.3,28.8 -28.8,28.8"/>
<text text-anchor="middle" x="367.75" y="-1356.6" font-family="Helvetica,sans-Serif" font-size="18.00">Statechart S5 — AI Financial Advisor Session</text>
<text text-anchor="middle" x="367.75" y="-1336.6" font-family="Helvetica,sans-Serif" font-size="18.00">SRS §3.1.7 AI Financial Advisor</text>
<!-- s5_start -->
<g id="node1" class="node">
<title>s5_start</title>
<ellipse fill="black" stroke="black" cx="543.5" cy="-1317" rx="10" ry="10"/>
</g>
<!-- s5_idle -->
<g id="node2" class="node">
<title>s5_idle</title>
<path fill="#eceff1" stroke="#455a64" stroke-width="1.6" d="M625,-1240C625,-1240 462,-1240 462,-1240 456,-1240 450,-1234 450,-1228 450,-1228 450,-1204 450,-1204 450,-1198 456,-1192 462,-1192 462,-1192 625,-1192 625,-1192 631,-1192 637,-1198 637,-1204 637,-1204 637,-1228 637,-1228 637,-1234 631,-1240 625,-1240"/>
<text text-anchor="start" x="531.5" y="-1223.4" font-family="Helvetica,sans-Serif" font-weight="bold" font-size="12.00">Idle</text>
<text text-anchor="start" x="462.5" y="-1203" font-family="Helvetica,sans-Serif" font-size="10.00">entry / navigate to AIAdvisorPage</text>
<polygon fill="#455a64" stroke="#455a64" points="458.5,-1215 458.5,-1215 629.5,-1215 629.5,-1215 458.5,-1215"/>
</g>
<!-- s5_start&#45;&gt;s5_idle -->
<g id="edge1" class="edge">
<title>s5_start&#45;&gt;s5_idle</title>
<path fill="none" stroke="#37474f" stroke-width="1.2" d="M543.5,-1306.86C543.5,-1293.89 543.5,-1269.46 543.5,-1249.35"/>
<polygon fill="#37474f" stroke="#37474f" stroke-width="1.2" points="543.5,-1240.18 547.55,-1249.18 543.6,-1244.68 543.6,-1249.18 543.5,-1249.18 543.4,-1249.18 543.4,-1244.68 539.45,-1249.18 543.5,-1240.18 543.5,-1240.18"/>
</g>
<!-- s5_compose -->
<g id="node3" class="node">
<title>s5_compose</title>
<path fill="#fff3e0" stroke="#e65100" stroke-width="1.6" d="M614,-1115C614,-1115 473,-1115 473,-1115 467,-1115 461,-1109 461,-1103 461,-1103 461,-1060 461,-1060 461,-1054 467,-1048 473,-1048 473,-1048 614,-1048 614,-1048 620,-1048 626,-1054 626,-1060 626,-1060 626,-1103 626,-1103 626,-1109 620,-1115 614,-1115"/>
<text text-anchor="start" x="474" y="-1097.9" font-family="Helvetica,sans-Serif" font-weight="bold" font-size="12.00">Composing Question</text>
<text text-anchor="start" x="473.5" y="-1077.5" font-family="Helvetica,sans-Serif" font-size="10.00">entry / focus AIChat textarea</text>
<text text-anchor="start" x="473.5" y="-1058.5" font-family="Helvetica,sans-Serif" font-size="10.00">do / user types question</text>
<polygon fill="#e65100" stroke="#e65100" points="469.5,-1089.5 469.5,-1089.5 618.5,-1089.5 618.5,-1089.5 469.5,-1089.5"/>
</g>
<!-- s5_idle&#45;&gt;s5_compose -->
<g id="edge2" class="edge">
<title>s5_idle&#45;&gt;s5_compose</title>
<path fill="none" stroke="#37474f" stroke-width="1.2" d="M543.5,-1191.92C543.5,-1173.37 543.5,-1146.81 543.5,-1124.5"/>
<polygon fill="#37474f" stroke="#37474f" stroke-width="1.2" points="543.5,-1115.24 547.55,-1124.24 543.6,-1119.74 543.6,-1124.24 543.5,-1124.24 543.4,-1124.24 543.4,-1119.74 539.45,-1124.24 543.5,-1115.24 543.5,-1115.24"/>
<text text-anchor="middle" x="568" y="-1151" font-family="Helvetica,sans-Serif" font-size="10.00" fill="#37474f">open chat</text>
</g>
<!-- s5_sending -->
<g id="node4" class="node">
<title>s5_sending</title>
<path fill="#fffde7" stroke="#f9a825" stroke-width="1.6" d="M395.5,-971C395.5,-971 229.5,-971 229.5,-971 223.5,-971 217.5,-965 217.5,-959 217.5,-959 217.5,-916 217.5,-916 217.5,-910 223.5,-904 229.5,-904 229.5,-904 395.5,-904 395.5,-904 401.5,-904 407.5,-910 407.5,-916 407.5,-916 407.5,-959 407.5,-959 407.5,-965 401.5,-971 395.5,-971"/>
<text text-anchor="start" x="255" y="-953.9" font-family="Helvetica,sans-Serif" font-weight="bold" font-size="12.00">Sending Request</text>
<text text-anchor="start" x="229.5" y="-933.5" font-family="Helvetica,sans-Serif" font-size="10.00">do / POST /api/ai/ask</text>
<text text-anchor="start" x="229.5" y="-914.5" font-family="Helvetica,sans-Serif" font-size="10.00"> &#160;@Valid AIQueryDTO { question }</text>
<polygon fill="#f9a825" stroke="#f9a825" points="225.5,-945.5 225.5,-945.5 399.5,-945.5 399.5,-945.5 225.5,-945.5"/>
</g>
<!-- s5_compose&#45;&gt;s5_sending -->
<g id="edge3" class="edge">
<title>s5_compose&#45;&gt;s5_sending</title>
<path fill="none" stroke="#37474f" stroke-width="1.2" d="M490.5,-1047.92C455.71,-1026.53 410.08,-998.48 373.73,-976.14"/>
<polygon fill="#37474f" stroke="#37474f" stroke-width="1.2" points="365.65,-971.17 375.44,-972.43 369.53,-973.44 373.37,-975.8 373.32,-975.88 373.26,-975.97 369.43,-973.61 371.2,-979.34 365.65,-971.17 365.65,-971.17"/>
<text text-anchor="middle" x="460.5" y="-1007" font-family="Helvetica,sans-Serif" font-size="10.00" fill="#37474f">click Send</text>
</g>
<!-- s5_context -->
<g id="node5" class="node">
<title>s5_context</title>
<path fill="#e3f2fd" stroke="#1565c0" stroke-width="1.6" d="M238,-827C238,-827 45,-827 45,-827 39,-827 33,-821 33,-815 33,-815 33,-753 33,-753 33,-747 39,-741 45,-741 45,-741 238,-741 238,-741 244,-741 250,-747 250,-753 250,-753 250,-815 250,-815 250,-821 244,-827 238,-827"/>
<text text-anchor="start" x="86.5" y="-810.4" font-family="Helvetica,sans-Serif" font-weight="bold" font-size="12.00">Loading Context</text>
<text text-anchor="start" x="45.5" y="-790" font-family="Helvetica,sans-Serif" font-size="10.00">do / AIAdvisorService.ask(email, query)</text>
<text text-anchor="start" x="45.5" y="-771" font-family="Helvetica,sans-Serif" font-size="10.00"> &#160;fetch DashboardSummaryDTO</text>
<text text-anchor="start" x="45.5" y="-752" font-family="Helvetica,sans-Serif" font-size="10.00"> &#160;fetch recent expenses + income</text>
<polygon fill="#1565c0" stroke="#1565c0" points="41.5,-802 41.5,-802 242.5,-802 242.5,-802 41.5,-802"/>
</g>
<!-- s5_sending&#45;&gt;s5_context -->
<g id="edge4" class="edge">
<title>s5_sending&#45;&gt;s5_context</title>
<path fill="none" stroke="#2e7d32" stroke-width="1.2" d="M257.88,-903.87C243.19,-894.08 227.71,-882.78 214.5,-871 202.17,-860 190.03,-846.91 179.31,-834.31"/>
<polygon fill="#2e7d32" stroke="#2e7d32" stroke-width="1.2" points="173.5,-827.37 182.38,-831.67 176.46,-830.75 179.35,-834.2 179.28,-834.27 179.2,-834.33 176.31,-830.88 176.17,-836.87 173.5,-827.37 173.5,-827.37"/>
<text text-anchor="middle" x="248" y="-863" font-family="Helvetica,sans-Serif" font-size="10.00" fill="#2e7d32">201 Accepted</text>
</g>
<!-- s5_error -->
<g id="node10" class="node">
<title>s5_error</title>
<path fill="#ffebee" stroke="#c62828" stroke-width="1.6" d="M374.5,-319C374.5,-319 250.5,-319 250.5,-319 244.5,-319 238.5,-313 238.5,-307 238.5,-307 238.5,-264 238.5,-264 238.5,-258 244.5,-252 250.5,-252 250.5,-252 374.5,-252 374.5,-252 380.5,-252 386.5,-258 386.5,-264 386.5,-264 386.5,-307 386.5,-307 386.5,-313 380.5,-319 374.5,-319"/>
<text text-anchor="start" x="295" y="-301.9" font-family="Helvetica,sans-Serif" font-weight="bold" font-size="12.00">Error</text>
<text text-anchor="start" x="250.5" y="-281.5" font-family="Helvetica,sans-Serif" font-size="10.00">entry / show error banner</text>
<text text-anchor="start" x="250.5" y="-262.5" font-family="Helvetica,sans-Serif" font-size="10.00">do / log + offer retry</text>
<polygon fill="#c62828" stroke="#c62828" points="246.5,-293.5 246.5,-293.5 378.5,-293.5 378.5,-293.5 246.5,-293.5"/>
</g>
<!-- s5_sending&#45;&gt;s5_error -->
<g id="edge5" class="edge">
<title>s5_sending&#45;&gt;s5_error</title>
<path fill="none" stroke="#c62828" stroke-width="1.2" stroke-dasharray="5,2" d="M312.5,-903.99C312.5,-873.31 312.5,-826.03 312.5,-785 312.5,-785 312.5,-785 312.5,-447.5 312.5,-407.05 312.5,-360.88 312.5,-328.39"/>
<polygon fill="#c62828" stroke="#c62828" stroke-width="1.2" points="312.5,-319.19 316.55,-328.19 312.6,-323.69 312.6,-328.19 312.5,-328.19 312.4,-328.19 312.4,-323.69 308.45,-328.19 312.5,-319.19 312.5,-319.19"/>
<text text-anchor="middle" x="397.5" y="-618.5" font-family="Helvetica,sans-Serif" font-size="10.00" fill="#c62828">400 Bad Request [empty question]</text>
</g>
<!-- s5_prompt -->
<g id="node6" class="node">
<title>s5_prompt</title>
<path fill="#e3f2fd" stroke="#1565c0" stroke-width="1.6" d="M208.5,-664C208.5,-664 62.5,-664 62.5,-664 56.5,-664 50.5,-658 50.5,-652 50.5,-652 50.5,-590 50.5,-590 50.5,-584 56.5,-578 62.5,-578 62.5,-578 208.5,-578 208.5,-578 214.5,-578 220.5,-584 220.5,-590 220.5,-590 220.5,-652 220.5,-652 220.5,-658 214.5,-664 208.5,-664"/>
<text text-anchor="start" x="81" y="-647.4" font-family="Helvetica,sans-Serif" font-weight="bold" font-size="12.00">Building Prompt</text>
<text text-anchor="start" x="62.5" y="-627" font-family="Helvetica,sans-Serif" font-size="10.00">do / assemble system prompt</text>
<text text-anchor="start" x="62.5" y="-608" font-family="Helvetica,sans-Serif" font-size="10.00"> &#160;{totals, recent items,</text>
<text text-anchor="start" x="62.5" y="-589" font-family="Helvetica,sans-Serif" font-size="10.00"> &#160;&#160;user question}</text>
<polygon fill="#1565c0" stroke="#1565c0" points="58.5,-639 58.5,-639 212.5,-639 212.5,-639 58.5,-639"/>
</g>
<!-- s5_context&#45;&gt;s5_prompt -->
<g id="edge6" class="edge">
<title>s5_context&#45;&gt;s5_prompt</title>
<path fill="none" stroke="#37474f" stroke-width="1.2" d="M139.92,-740.7C139.15,-719.99 138.22,-694.9 137.41,-673.12"/>
<polygon fill="#37474f" stroke="#37474f" stroke-width="1.2" points="137.07,-664.02 141.45,-672.86 137.33,-668.51 137.5,-673.01 137.4,-673.01 137.3,-673.02 137.13,-668.52 133.35,-673.16 137.07,-664.02 137.07,-664.02"/>
<text text-anchor="middle" x="176" y="-700" font-family="Helvetica,sans-Serif" font-size="10.00" fill="#37474f">context loaded</text>
</g>
<!-- s5_await -->
<g id="node7" class="node">
<title>s5_await</title>
<path fill="#f3e5f5" stroke="#6a1b9a" stroke-width="1.6" d="M239,-501C239,-501 12,-501 12,-501 6,-501 0,-495 0,-489 0,-489 0,-408 0,-408 0,-402 6,-396 12,-396 12,-396 239,-396 239,-396 245,-396 251,-402 251,-408 251,-408 251,-489 251,-489 251,-495 245,-501 239,-501"/>
<text text-anchor="start" x="70" y="-483.9" font-family="Helvetica,sans-Serif" font-weight="bold" font-size="12.00">Awaiting OpenAI</text>
<text text-anchor="start" x="12.5" y="-463.5" font-family="Helvetica,sans-Serif" font-size="10.00">do / POST api.openai.com/v1/chat/completions</text>
<text text-anchor="start" x="12.5" y="-444.5" font-family="Helvetica,sans-Serif" font-size="10.00"> &#160;Authorization: Bearer ${openai.api.key}</text>
<text text-anchor="start" x="12.5" y="-425.5" font-family="Helvetica,sans-Serif" font-size="10.00"> &#160;model: gpt&#45;4o&#45;mini</text>
<text text-anchor="start" x="12.5" y="-406.5" font-family="Helvetica,sans-Serif" font-size="10.00"> &#160;(≤ 5 s SLA per NFR)</text>
<polygon fill="#6a1b9a" stroke="#6a1b9a" points="8.5,-475.5 8.5,-475.5 243.5,-475.5 243.5,-475.5 8.5,-475.5"/>
</g>
<!-- s5_prompt&#45;&gt;s5_await -->
<g id="edge7" class="edge">
<title>s5_prompt&#45;&gt;s5_await</title>
<path fill="none" stroke="#37474f" stroke-width="1.2" d="M133.03,-577.85C131.83,-557.49 130.38,-532.66 129.07,-510.29"/>
<polygon fill="#37474f" stroke="#37474f" stroke-width="1.2" points="128.53,-501.21 133.1,-509.95 128.9,-505.69 129.16,-510.19 129.06,-510.19 128.96,-510.2 128.7,-505.71 125.02,-510.43 128.53,-501.21 128.53,-501.21"/>
<text text-anchor="middle" x="183" y="-537" font-family="Helvetica,sans-Serif" font-size="10.00" fill="#37474f">HTTP call dispatched</text>
</g>
<!-- s5_stream -->
<g id="node8" class="node">
<title>s5_stream</title>
<path fill="#f3e5f5" stroke="#6a1b9a" stroke-width="1.6" d="M160,-319C160,-319 19,-319 19,-319 13,-319 7,-313 7,-307 7,-307 7,-264 7,-264 7,-258 13,-252 19,-252 19,-252 160,-252 160,-252 166,-252 172,-258 172,-264 172,-264 172,-307 172,-307 172,-313 166,-319 160,-319"/>
<text text-anchor="start" x="19.5" y="-301.9" font-family="Helvetica,sans-Serif" font-weight="bold" font-size="12.00">Streaming Response</text>
<text text-anchor="start" x="19.5" y="-281.5" font-family="Helvetica,sans-Serif" font-size="10.00">do / read completion chunks</text>
<text text-anchor="start" x="19.5" y="-262.5" font-family="Helvetica,sans-Serif" font-size="10.00"> &#160;append to AIChat message</text>
<polygon fill="#6a1b9a" stroke="#6a1b9a" points="15.5,-293.5 15.5,-293.5 164.5,-293.5 164.5,-293.5 15.5,-293.5"/>
</g>
<!-- s5_await&#45;&gt;s5_stream -->
<g id="edge8" class="edge">
<title>s5_await&#45;&gt;s5_stream</title>
<path fill="none" stroke="#2e7d32" stroke-width="1.2" d="M75.22,-395.85C67.95,-385.67 61.57,-374.54 57.5,-363 53.42,-351.42 55.61,-339.07 60.34,-327.74"/>
<polygon fill="#2e7d32" stroke="#2e7d32" stroke-width="1.2" points="64.39,-319.31 64.14,-329.18 62.53,-323.41 60.58,-327.47 60.49,-327.42 60.4,-327.38 62.35,-323.33 56.84,-325.67 64.39,-319.31 64.39,-319.31"/>
<text text-anchor="middle" x="75.5" y="-355" font-family="Helvetica,sans-Serif" font-size="10.00" fill="#2e7d32">200 OK</text>
</g>
<!-- s5_await&#45;&gt;s5_error -->
<g id="edge9" class="edge">
<title>s5_await&#45;&gt;s5_error</title>
<path fill="none" stroke="#c62828" stroke-width="1.2" stroke-dasharray="5,2" d="M122.75,-395.95C124.34,-380.44 128.7,-364.3 138.5,-352 150.8,-336.57 191.03,-320.94 229.72,-308.82"/>
<polygon fill="#c62828" stroke="#c62828" stroke-width="1.2" points="238.45,-306.13 231.04,-312.65 234.18,-307.55 229.88,-308.87 229.85,-308.78 229.82,-308.68 234.12,-307.36 228.66,-304.91 238.45,-306.13 238.45,-306.13"/>
<text text-anchor="middle" x="210" y="-355" font-family="Helvetica,sans-Serif" font-size="10.00" fill="#c62828">timeout / 5xx [elapsed &gt; 5 s]</text>
</g>
<!-- s5_shown -->
<g id="node9" class="node">
<title>s5_shown</title>
<path fill="#e8f5e9" stroke="#2e7d32" stroke-width="1.6" d="M441.5,-175C441.5,-175 293.5,-175 293.5,-175 287.5,-175 281.5,-169 281.5,-163 281.5,-163 281.5,-120 281.5,-120 281.5,-114 287.5,-108 293.5,-108 293.5,-108 441.5,-108 441.5,-108 447.5,-108 453.5,-114 453.5,-120 453.5,-120 453.5,-163 453.5,-163 453.5,-169 447.5,-175 441.5,-175"/>
<text text-anchor="start" x="300" y="-157.9" font-family="Helvetica,sans-Serif" font-weight="bold" font-size="12.00">Response Displayed</text>
<text text-anchor="start" x="293.5" y="-137.5" font-family="Helvetica,sans-Serif" font-size="10.00">entry / render AIResponseDTO</text>
<text text-anchor="start" x="293.5" y="-118.5" font-family="Helvetica,sans-Serif" font-size="10.00"> &#160;answer, model, generatedAt</text>
<polygon fill="#2e7d32" stroke="#2e7d32" points="289.5,-149.5 289.5,-149.5 445.5,-149.5 445.5,-149.5 289.5,-149.5"/>
</g>
<!-- s5_stream&#45;&gt;s5_shown -->
<g id="edge10" class="edge">
<title>s5_stream&#45;&gt;s5_shown</title>
<path fill="none" stroke="#2e7d32" stroke-width="1.2" d="M153.28,-251.92C195.68,-230.26 251.46,-201.77 295.46,-179.3"/>
<polygon fill="#2e7d32" stroke="#2e7d32" stroke-width="1.2" points="303.54,-175.17 297.36,-182.87 299.58,-177.31 295.57,-179.35 295.52,-179.27 295.48,-179.18 299.48,-177.13 293.68,-175.66 303.54,-175.17 303.54,-175.17"/>
<text text-anchor="middle" x="279.5" y="-211" font-family="Helvetica,sans-Serif" font-size="10.00" fill="#2e7d32">stream complete</text>
</g>
<!-- s5_shown&#45;&gt;s5_compose -->
<g id="edge11" class="edge">
<title>s5_shown&#45;&gt;s5_compose</title>
<path fill="none" stroke="#37474f" stroke-width="1.2" d="M453.63,-150.71C534.94,-163.76 644.5,-197.49 644.5,-284.5 644.5,-938.5 644.5,-938.5 644.5,-938.5 644.5,-978.66 617.34,-1015.35 591.19,-1041.38"/>
<polygon fill="#37474f" stroke="#37474f" stroke-width="1.2" points="584.58,-1047.76 588.24,-1038.59 587.75,-1044.56 590.99,-1041.44 591.06,-1041.51 591.12,-1041.58 587.89,-1044.7 593.87,-1044.42 584.58,-1047.76 584.58,-1047.76"/>
<text text-anchor="middle" x="690" y="-618.5" font-family="Helvetica,sans-Serif" font-size="10.00" fill="#37474f">follow&#45;up question</text>
</g>
<!-- s5_end -->
<g id="node11" class="node">
<title>s5_end</title>
<ellipse fill="black" stroke="black" stroke-width="1.4" cx="367.5" cy="-15.5" rx="11.5" ry="11.5"/>
<ellipse fill="none" stroke="black" stroke-width="1.4" cx="367.5" cy="-15.5" rx="15.5" ry="15.5"/>
</g>
<!-- s5_shown&#45;&gt;s5_end -->
<g id="edge13" class="edge">
<title>s5_shown&#45;&gt;s5_end</title>
<path fill="none" stroke="#455a64" stroke-width="1.2" d="M367.5,-107.92C367.5,-86.78 367.5,-59.69 367.5,-40.51"/>
<polygon fill="#455a64" stroke="#455a64" stroke-width="1.2" points="367.5,-31.27 371.55,-40.27 367.6,-35.77 367.6,-40.27 367.5,-40.27 367.4,-40.27 367.4,-35.77 363.45,-40.27 367.5,-31.27 367.5,-31.27"/>
<text text-anchor="middle" x="392.5" y="-67" font-family="Helvetica,sans-Serif" font-size="10.00" fill="#455a64">close chat</text>
</g>
<!-- s5_error&#45;&gt;s5_compose -->
<g id="edge12" class="edge">
<title>s5_error&#45;&gt;s5_compose</title>
<path fill="none" stroke="#37474f" stroke-width="1.2" d="M386.54,-304.75C454.11,-326.36 543.5,-369.65 543.5,-447.5 543.5,-938.5 543.5,-938.5 543.5,-938.5 543.5,-972.17 543.5,-1010.32 543.5,-1038.6"/>
<polygon fill="#37474f" stroke="#37474f" stroke-width="1.2" points="543.5,-1047.79 539.45,-1038.79 543.4,-1043.29 543.4,-1038.79 543.5,-1038.79 543.6,-1038.79 543.6,-1043.29 547.55,-1038.79 543.5,-1047.79 543.5,-1047.79"/>
<text text-anchor="middle" x="569.5" y="-700" font-family="Helvetica,sans-Serif" font-size="10.00" fill="#37474f">click Retry</text>
</g>
</g>
</svg>
