<?xml version="1.0" encoding="UTF-8" standalone="no"?>
<!DOCTYPE svg PUBLIC "-//W3C//DTD SVG 1.1//EN"
 "http://www.w3.org/Graphics/SVG/1.1/DTD/svg11.dtd">
<!-- Generated by graphviz version 2.43.0 (0)
 -->
<!-- Title: %3 Pages: 1 -->
<svg width="4053pt" height="2025pt"
 viewBox="0.00 0.00 1621.00 810.00" xmlns="http://www.w3.org/2000/svg" xmlns:xlink="http://www.w3.org/1999/xlink">
<g id="graph0" class="graph" transform="scale(2.5 2.5) rotate(0) translate(4 806)">
<title>%3</title>
<polygon fill="white" stroke="transparent" points="-4,4 -4,-806 1617,-806 1617,4 -4,4"/>
<text text-anchor="middle" x="806.5" y="-786.8" font-family="Helvetica,sans-Serif" font-size="14.00">FMS — Dashboard (class diagram)</text>
<g id="clust1" class="cluster">
<title>cluster_com</title>
<path fill="none" stroke="#333333" stroke-width="1.2" d="M20,-8C20,-8 1593,-8 1593,-8 1599,-8 1605,-14 1605,-20 1605,-20 1605,-759 1605,-759 1605,-765 1599,-771 1593,-771 1593,-771 20,-771 20,-771 14,-771 8,-765 8,-759 8,-759 8,-20 8,-20 8,-14 14,-8 20,-8"/>
<text text-anchor="middle" x="30" y="-757.4" font-family="Helvetica,sans-Serif" font-weight="bold" font-size="12.00">com</text>
</g>
<g id="clust2" class="cluster">
<title>cluster_fms</title>
<path fill="none" stroke="#333333" stroke-width="1.2" d="M28,-16C28,-16 1585,-16 1585,-16 1591,-16 1597,-22 1597,-28 1597,-28 1597,-730 1597,-730 1597,-736 1591,-742 1585,-742 1585,-742 28,-742 28,-742 22,-742 16,-736 16,-730 16,-730 16,-28 16,-28 16,-22 22,-16 28,-16"/>
<text text-anchor="middle" x="37" y="-728.4" font-family="Helvetica,sans-Serif" font-weight="bold" font-size="12.00">fms</text>
</g>
<g id="clust3" class="cluster">
<title>cluster_dashboard</title>
<path fill="none" stroke="#333333" stroke-width="1.2" d="M36,-24C36,-24 1577,-24 1577,-24 1583,-24 1589,-30 1589,-36 1589,-36 1589,-701 1589,-701 1589,-707 1583,-713 1577,-713 1577,-713 36,-713 36,-713 30,-713 24,-707 24,-701 24,-701 24,-36 24,-36 24,-30 30,-24 36,-24"/>
<text text-anchor="middle" x="68" y="-699.4" font-family="Helvetica,sans-Serif" font-weight="bold" font-size="12.00">dashboard</text>
</g>
<!-- ctrl -->
<g id="node1" class="node">
<title>ctrl</title>
<polygon fill="#fffde7" stroke="transparent" points="1093,-556 1093,-646 1465,-646 1465,-556 1093,-556"/>
<polygon fill="#fff59d" stroke="transparent" points="1094,-628 1094,-645 1464,-645 1464,-628 1094,-628"/>
<text text-anchor="start" x="1247.5" y="-635" font-family="Helvetica,sans-Serif" font-style="italic" font-size="10.00">«Java Class»</text>
<polygon fill="#fffde7" stroke="transparent" points="1094,-607 1094,-628 1464,-628 1464,-607 1094,-607"/>
<text text-anchor="start" x="1197" y="-614.8" font-family="Helvetica,sans-Serif" font-weight="bold" font-size="14.00">DashboardController</text>
<polygon fill="#fffde7" stroke="transparent" points="1094,-591 1094,-607 1464,-607 1464,-591 1094,-591"/>
<text text-anchor="start" x="1257.5" y="-596.8" font-family="Helvetica,sans-Serif" font-size="9.00" fill="#666666">controller</text>
<text text-anchor="start" x="1097" y="-580" font-family="Helvetica,sans-Serif" font-size="10.00">&#45; dashboardService: DashboardService</text>
<text text-anchor="start" x="1097" y="-563" font-family="Helvetica,sans-Serif" font-size="10.00">+ getSummary(email: String): ResponseEntity&lt;DashboardSummaryDTO&gt;</text>
<polygon fill="black" stroke="black" points="1093,-591 1093,-591 1465,-591 1465,-591 1093,-591"/>
<polygon fill="black" stroke="black" points="1093,-574 1093,-574 1465,-574 1465,-574 1093,-574"/>
<polygon fill="none" stroke="black" points="1093,-556 1093,-646 1465,-646 1465,-556 1093,-556"/>
</g>
<!-- svc_if -->
<g id="node2" class="node">
<title>svc_if</title>
<polygon fill="#fffde7" stroke="transparent" points="1293.5,-304.5 1293.5,-394.5 1572.5,-394.5 1572.5,-304.5 1293.5,-304.5"/>
<polygon fill="#ffe082" stroke="transparent" points="1295,-376.5 1295,-393.5 1572,-393.5 1572,-376.5 1295,-376.5"/>
<text text-anchor="start" x="1393.5" y="-383.5" font-family="Helvetica,sans-Serif" font-style="italic" font-size="10.00">«Java Interface»</text>
<polygon fill="#fffde7" stroke="transparent" points="1295,-355.5 1295,-376.5 1572,-376.5 1572,-355.5 1295,-355.5"/>
<text text-anchor="start" x="1362" y="-363.3" font-family="Helvetica,sans-Serif" font-weight="bold" font-size="14.00">DashboardService</text>
<polygon fill="#fffde7" stroke="transparent" points="1295,-339.5 1295,-355.5 1572,-355.5 1572,-339.5 1295,-339.5"/>
<text text-anchor="start" x="1417.5" y="-345.3" font-family="Helvetica,sans-Serif" font-size="9.00" fill="#666666">service</text>
<text text-anchor="start" x="1298" y="-328.5" font-family="Helvetica,sans-Serif" font-size="10.00"> </text>
<text text-anchor="start" x="1298" y="-311.5" font-family="Helvetica,sans-Serif" font-size="10.00">+ getSummary(email: String): DashboardSummaryDTO</text>
<polygon fill="black" stroke="black" points="1294,-339.5 1294,-339.5 1573,-339.5 1573,-339.5 1294,-339.5"/>
<polygon fill="black" stroke="black" points="1294,-322.5 1294,-322.5 1573,-322.5 1573,-322.5 1294,-322.5"/>
<polygon fill="none" stroke="black" points="1293.5,-304.5 1293.5,-394.5 1572.5,-394.5 1572.5,-304.5 1293.5,-304.5"/>
</g>
<!-- ctrl&#45;&gt;svc_if -->
<g id="edge1" class="edge">
<title>ctrl&#45;&gt;svc_if</title>
<path fill="none" stroke="#444444" d="M1308.69,-551.89C1334.12,-510.69 1370.79,-451.28 1397.72,-407.66"/>
<polygon fill="#444444" stroke="#444444" points="1403.14,-398.88 1401.71,-409.76 1400.51,-403.14 1397.88,-407.39 1397.88,-407.39 1397.88,-407.39 1400.51,-403.14 1394.05,-405.03 1403.14,-398.88 1403.14,-398.88"/>
<text text-anchor="middle" x="1367.5" y="-477" font-family="Helvetica,sans-Serif" font-size="10.00" fill="#444444">uses</text>
</g>
<!-- dto_sum -->
<g id="node7" class="node">
<title>dto_sum</title>
<polygon fill="#fffde7" stroke="transparent" points="1034.5,-262 1034.5,-437 1237.5,-437 1237.5,-262 1034.5,-262"/>
<polygon fill="#fff59d" stroke="transparent" points="1036,-418.5 1036,-435.5 1237,-435.5 1237,-418.5 1036,-418.5"/>
<text text-anchor="start" x="1105" y="-425.5" font-family="Helvetica,sans-Serif" font-style="italic" font-size="10.00">«Java Class»</text>
<polygon fill="#fffde7" stroke="transparent" points="1036,-397.5 1036,-418.5 1237,-418.5 1237,-397.5 1036,-397.5"/>
<text text-anchor="start" x="1040.5" y="-405.3" font-family="Helvetica,sans-Serif" font-weight="bold" font-size="14.00">DashboardSummaryDTO</text>
<polygon fill="#fffde7" stroke="transparent" points="1036,-381.5 1036,-397.5 1237,-397.5 1237,-381.5 1036,-381.5"/>
<text text-anchor="start" x="1128.5" y="-387.3" font-family="Helvetica,sans-Serif" font-size="9.00" fill="#666666">dto</text>
<text text-anchor="start" x="1039" y="-370.5" font-family="Helvetica,sans-Serif" font-size="10.00">&#45; totalIncome: BigDecimal</text>
<text text-anchor="start" x="1039" y="-353.5" font-family="Helvetica,sans-Serif" font-size="10.00">&#45; totalExpenses: BigDecimal</text>
<text text-anchor="start" x="1039" y="-336.5" font-family="Helvetica,sans-Serif" font-size="10.00">&#45; netBalance: BigDecimal</text>
<text text-anchor="start" x="1039" y="-319.5" font-family="Helvetica,sans-Serif" font-size="10.00">&#45; recentIncome: List&lt;IncomeDTO&gt;</text>
<text text-anchor="start" x="1039" y="-302.5" font-family="Helvetica,sans-Serif" font-size="10.00">&#45; recentExpenses: List&lt;ExpenseDTO&gt;</text>
<text text-anchor="start" x="1039" y="-285.5" font-family="Helvetica,sans-Serif" font-size="10.00">&#45; monthlyData: List&lt;MonthlyDataDTO&gt;</text>
<text text-anchor="start" x="1039" y="-268.5" font-family="Helvetica,sans-Serif" font-size="10.00"> </text>
<polygon fill="black" stroke="black" points="1035,-381.5 1035,-381.5 1238,-381.5 1238,-381.5 1035,-381.5"/>
<polygon fill="black" stroke="black" points="1035,-279.5 1035,-279.5 1238,-279.5 1238,-279.5 1035,-279.5"/>
<polygon fill="none" stroke="black" points="1034.5,-262 1034.5,-437 1237.5,-437 1237.5,-262 1034.5,-262"/>
</g>
<!-- ctrl&#45;&gt;dto_sum -->
<g id="edge6" class="edge">
<title>ctrl&#45;&gt;dto_sum</title>
<path fill="none" stroke="#444444" stroke-dasharray="5,2" d="M1251.43,-551.89C1234.86,-522.98 1213.14,-485.09 1193.02,-449.99"/>
<polygon fill="#444444" stroke="#444444" points="1187.95,-441.14 1196.83,-447.58 1190.43,-445.48 1192.92,-449.81 1192.92,-449.81 1192.92,-449.81 1190.43,-445.48 1189.02,-452.05 1187.95,-441.14 1187.95,-441.14"/>
<text text-anchor="middle" x="1228.5" y="-477" font-family="Helvetica,sans-Serif" font-size="10.00" fill="#444444">returns</text>
</g>
<!-- svc_impl -->
<g id="node3" class="node">
<title>svc_impl</title>
<polygon fill="#fffde7" stroke="transparent" points="687.5,-522 687.5,-680 970.5,-680 970.5,-522 687.5,-522"/>
<polygon fill="#fff59d" stroke="transparent" points="689,-662 689,-679 970,-679 970,-662 689,-662"/>
<text text-anchor="start" x="798" y="-669" font-family="Helvetica,sans-Serif" font-style="italic" font-size="10.00">«Java Class»</text>
<polygon fill="#fffde7" stroke="transparent" points="689,-641 689,-662 970,-662 970,-641 689,-641"/>
<text text-anchor="start" x="741" y="-648.8" font-family="Helvetica,sans-Serif" font-weight="bold" font-size="14.00">DashboardServiceImpl</text>
<polygon fill="#fffde7" stroke="transparent" points="689,-625 689,-641 970,-641 970,-625 689,-625"/>
<text text-anchor="start" x="813.5" y="-630.8" font-family="Helvetica,sans-Serif" font-size="9.00" fill="#666666">service</text>
<text text-anchor="start" x="692" y="-614" font-family="Helvetica,sans-Serif" font-size="10.00">&#45; userRepository: UserRepository</text>
<text text-anchor="start" x="692" y="-597" font-family="Helvetica,sans-Serif" font-size="10.00">&#45; incomeRepository: IncomeRepository</text>
<text text-anchor="start" x="692" y="-580" font-family="Helvetica,sans-Serif" font-size="10.00">&#45; expenseRepository: ExpenseRepository</text>
<text text-anchor="start" x="692" y="-563" font-family="Helvetica,sans-Serif" font-size="10.00">+ getSummary(email: String): DashboardSummaryDTO</text>
<text text-anchor="start" x="692" y="-546" font-family="Helvetica,sans-Serif" font-size="10.00">&#45; buildMonthlyData(user: User): List&lt;MonthlyDataDTO&gt;</text>
<text text-anchor="start" x="692" y="-529" font-family="Helvetica,sans-Serif" font-size="10.00">// 6&#45;month bucketing + recent&#45;5 + lifetime totals</text>
<polygon fill="black" stroke="black" points="688,-625 688,-625 971,-625 971,-625 688,-625"/>
<polygon fill="black" stroke="black" points="688,-574 688,-574 971,-574 971,-574 688,-574"/>
<polygon fill="none" stroke="black" points="687.5,-522 687.5,-680 970.5,-680 970.5,-522 687.5,-522"/>
</g>
<!-- svc_impl&#45;&gt;svc_if -->
<g id="edge2" class="edge">
<title>svc_impl&#45;&gt;svc_if</title>
<path fill="none" stroke="#444444" stroke-dasharray="5,2" d="M978.75,-534.19C1028.84,-513.46 1085.34,-491.44 1138,-474 1193.77,-455.53 1211.32,-462.49 1266,-441 1292.38,-430.63 1319.87,-417.03 1344.75,-403.52"/>
<polygon fill="none" stroke="#444444" points="1346.71,-406.44 1353.79,-398.56 1343.34,-400.31 1346.71,-406.44"/>
<text text-anchor="middle" x="1167.5" y="-477" font-family="Helvetica,sans-Serif" font-size="10.00" fill="#444444">implements</text>
</g>
<!-- repo_u -->
<g id="node4" class="node">
<title>repo_u</title>
<polygon fill="#fffde7" stroke="transparent" points="40,-304.5 40,-394.5 274,-394.5 274,-304.5 40,-304.5"/>
<polygon fill="#ffe082" stroke="transparent" points="41,-376.5 41,-393.5 273,-393.5 273,-376.5 41,-376.5"/>
<text text-anchor="start" x="117" y="-383.5" font-family="Helvetica,sans-Serif" font-style="italic" font-size="10.00">«Java Interface»</text>
<polygon fill="#fffde7" stroke="transparent" points="41,-355.5 41,-376.5 273,-376.5 273,-355.5 41,-355.5"/>
<text text-anchor="start" x="96.5" y="-363.3" font-family="Helvetica,sans-Serif" font-weight="bold" font-size="14.00">UserRepository</text>
<polygon fill="#fffde7" stroke="transparent" points="41,-339.5 41,-355.5 273,-355.5 273,-339.5 41,-339.5"/>
<text text-anchor="start" x="134" y="-345.3" font-family="Helvetica,sans-Serif" font-size="9.00" fill="#666666">repository</text>
<text text-anchor="start" x="44" y="-328.5" font-family="Helvetica,sans-Serif" font-size="10.00"> </text>
<text text-anchor="start" x="44" y="-311.5" font-family="Helvetica,sans-Serif" font-size="10.00">+ findByEmail(email: String): Optional&lt;User&gt;</text>
<polygon fill="black" stroke="black" points="40,-339.5 40,-339.5 274,-339.5 274,-339.5 40,-339.5"/>
<polygon fill="black" stroke="black" points="40,-322.5 40,-322.5 274,-322.5 274,-322.5 40,-322.5"/>
<polygon fill="none" stroke="black" points="40,-304.5 40,-394.5 274,-394.5 274,-304.5 40,-304.5"/>
</g>
<!-- svc_impl&#45;&gt;repo_u -->
<g id="edge3" class="edge">
<title>svc_impl&#45;&gt;repo_u</title>
<path fill="none" stroke="#444444" d="M679.29,-565.87C571.93,-538.75 425.26,-496.22 303,-441 280.07,-430.64 256.39,-417.28 234.95,-404.02"/>
<polygon fill="#444444" stroke="#444444" points="226.23,-398.56 237.09,-400.05 230.47,-401.21 234.7,-403.86 234.7,-403.86 234.7,-403.86 230.47,-401.21 232.31,-407.68 226.23,-398.56 226.23,-398.56"/>
<text text-anchor="middle" x="411.5" y="-477" font-family="Helvetica,sans-Serif" font-size="10.00" fill="#444444">uses</text>
</g>
<!-- repo_i -->
<g id="node5" class="node">
<title>repo_i</title>
<polygon fill="#fffde7" stroke="transparent" points="330.5,-296 330.5,-403 623.5,-403 623.5,-296 330.5,-296"/>
<polygon fill="#ffe082" stroke="transparent" points="332,-384.5 332,-401.5 623,-401.5 623,-384.5 332,-384.5"/>
<text text-anchor="start" x="437.5" y="-391.5" font-family="Helvetica,sans-Serif" font-style="italic" font-size="10.00">«Java Interface»</text>
<polygon fill="#fffde7" stroke="transparent" points="332,-363.5 332,-384.5 623,-384.5 623,-363.5 332,-363.5"/>
<text text-anchor="start" x="406.5" y="-371.3" font-family="Helvetica,sans-Serif" font-weight="bold" font-size="14.00">IncomeRepository</text>
<polygon fill="#fffde7" stroke="transparent" points="332,-347.5 332,-363.5 623,-363.5 623,-347.5 332,-347.5"/>
<text text-anchor="start" x="454.5" y="-353.3" font-family="Helvetica,sans-Serif" font-size="9.00" fill="#666666">repository</text>
<text text-anchor="start" x="335" y="-336.5" font-family="Helvetica,sans-Serif" font-size="10.00"> </text>
<text text-anchor="start" x="335" y="-319.5" font-family="Helvetica,sans-Serif" font-size="10.00">+ findByUserOrderByDateDesc(user: User): List&lt;Income&gt;</text>
<text text-anchor="start" x="335" y="-302.5" font-family="Helvetica,sans-Serif" font-size="10.00">+ findByUserAndDateBetween(...): List&lt;Income&gt;</text>
<polygon fill="black" stroke="black" points="331,-347.5 331,-347.5 624,-347.5 624,-347.5 331,-347.5"/>
<polygon fill="black" stroke="black" points="331,-330.5 331,-330.5 624,-330.5 624,-330.5 331,-330.5"/>
<polygon fill="none" stroke="black" points="330.5,-296 330.5,-403 623.5,-403 623.5,-296 330.5,-296"/>
</g>
<!-- svc_impl&#45;&gt;repo_i -->
<g id="edge4" class="edge">
<title>svc_impl&#45;&gt;repo_i</title>
<path fill="none" stroke="#444444" d="M713.25,-517.96C665.06,-483.8 610,-444.77 565.17,-413"/>
<polygon fill="#444444" stroke="#444444" points="556.93,-407.15 567.69,-409.26 561,-410.04 565.08,-412.93 565.08,-412.93 565.08,-412.93 561,-410.04 562.48,-416.61 556.93,-407.15 556.93,-407.15"/>
<text text-anchor="middle" x="674.5" y="-477" font-family="Helvetica,sans-Serif" font-size="10.00" fill="#444444">uses</text>
</g>
<!-- repo_e -->
<g id="node6" class="node">
<title>repo_e</title>
<polygon fill="#fffde7" stroke="transparent" points="680,-296 680,-403 978,-403 978,-296 680,-296"/>
<polygon fill="#ffe082" stroke="transparent" points="681,-384.5 681,-401.5 977,-401.5 977,-384.5 681,-384.5"/>
<text text-anchor="start" x="789" y="-391.5" font-family="Helvetica,sans-Serif" font-style="italic" font-size="10.00">«Java Interface»</text>
<polygon fill="#fffde7" stroke="transparent" points="681,-363.5 681,-384.5 977,-384.5 977,-363.5 681,-363.5"/>
<text text-anchor="start" x="753.5" y="-371.3" font-family="Helvetica,sans-Serif" font-weight="bold" font-size="14.00">ExpenseRepository</text>
<polygon fill="#fffde7" stroke="transparent" points="681,-347.5 681,-363.5 977,-363.5 977,-347.5 681,-347.5"/>
<text text-anchor="start" x="806" y="-353.3" font-family="Helvetica,sans-Serif" font-size="9.00" fill="#666666">repository</text>
<text text-anchor="start" x="684" y="-336.5" font-family="Helvetica,sans-Serif" font-size="10.00"> </text>
<text text-anchor="start" x="684" y="-319.5" font-family="Helvetica,sans-Serif" font-size="10.00">+ findByUserOrderByDateDesc(user: User): List&lt;Expense&gt;</text>
<text text-anchor="start" x="684" y="-302.5" font-family="Helvetica,sans-Serif" font-size="10.00">+ findByUserAndDateBetween(...): List&lt;Expense&gt;</text>
<polygon fill="black" stroke="black" points="680,-347.5 680,-347.5 978,-347.5 978,-347.5 680,-347.5"/>
<polygon fill="black" stroke="black" points="680,-330.5 680,-330.5 978,-330.5 978,-330.5 680,-330.5"/>
<polygon fill="none" stroke="black" points="680,-296 680,-403 978,-403 978,-296 680,-296"/>
</g>
<!-- svc_impl&#45;&gt;repo_e -->
<g id="edge5" class="edge">
<title>svc_impl&#45;&gt;repo_e</title>
<path fill="none" stroke="#444444" d="M829,-517.96C829,-485.42 829,-448.47 829,-417.57"/>
<polygon fill="#444444" stroke="#444444" points="829,-407.34 833.5,-417.34 829,-412.34 829,-417.34 829,-417.34 829,-417.34 829,-412.34 824.5,-417.34 829,-407.34 829,-407.34"/>
<text text-anchor="middle" x="840.5" y="-477" font-family="Helvetica,sans-Serif" font-size="10.00" fill="#444444">uses</text>
</g>
<!-- svc_impl&#45;&gt;dto_sum -->
<g id="edge10" class="edge">
<title>svc_impl&#45;&gt;dto_sum</title>
<path fill="none" stroke="#444444" d="M926.57,-517.96C944.29,-503.24 962.65,-488.11 980,-474 992.32,-463.99 1005.24,-453.59 1018.16,-443.26"/>
<polygon fill="#444444" stroke="#444444" points="1026.19,-436.85 1021.19,-446.61 1022.29,-439.97 1018.38,-443.09 1018.38,-443.09 1018.38,-443.09 1022.29,-439.97 1015.57,-439.57 1026.19,-436.85 1026.19,-436.85"/>
<text text-anchor="middle" x="995" y="-477" font-family="Helvetica,sans-Serif" font-size="10.00" fill="#444444">builds</text>
</g>
<!-- dto_month -->
<g id="node8" class="node">
<title>dto_month</title>
<polygon fill="#fffde7" stroke="transparent" points="879.5,-44.5 879.5,-168.5 1022.5,-168.5 1022.5,-44.5 879.5,-44.5"/>
<polygon fill="#fff59d" stroke="transparent" points="881,-150.5 881,-167.5 1022,-167.5 1022,-150.5 881,-150.5"/>
<text text-anchor="start" x="920" y="-157.5" font-family="Helvetica,sans-Serif" font-style="italic" font-size="10.00">«Java Class»</text>
<polygon fill="#fffde7" stroke="transparent" points="881,-129.5 881,-150.5 1022,-150.5 1022,-129.5 881,-129.5"/>
<text text-anchor="start" x="884" y="-137.3" font-family="Helvetica,sans-Serif" font-weight="bold" font-size="14.00">MonthlyDataDTO</text>
<polygon fill="#fffde7" stroke="transparent" points="881,-113.5 881,-129.5 1022,-129.5 1022,-113.5 881,-113.5"/>
<text text-anchor="start" x="943.5" y="-119.3" font-family="Helvetica,sans-Serif" font-size="9.00" fill="#666666">dto</text>
<text text-anchor="start" x="884" y="-102.5" font-family="Helvetica,sans-Serif" font-size="10.00">&#45; month: String</text>
<text text-anchor="start" x="884" y="-85.5" font-family="Helvetica,sans-Serif" font-size="10.00">&#45; income: BigDecimal</text>
<text text-anchor="start" x="884" y="-68.5" font-family="Helvetica,sans-Serif" font-size="10.00">&#45; expenses: BigDecimal</text>
<text text-anchor="start" x="884" y="-51.5" font-family="Helvetica,sans-Serif" font-size="10.00"> </text>
<polygon fill="black" stroke="black" points="880,-113.5 880,-113.5 1023,-113.5 1023,-113.5 880,-113.5"/>
<polygon fill="black" stroke="black" points="880,-62.5 880,-62.5 1023,-62.5 1023,-62.5 880,-62.5"/>
<polygon fill="none" stroke="black" points="879.5,-44.5 879.5,-168.5 1022.5,-168.5 1022.5,-44.5 879.5,-44.5"/>
</g>
<!-- dto_sum&#45;&gt;dto_month -->
<g id="edge7" class="edge">
<title>dto_sum&#45;&gt;dto_month</title>
<path fill="none" stroke="#444444" d="M1066.32,-257.73C1047.24,-232.87 1026.77,-206.21 1008.45,-182.35"/>
<polygon fill="none" stroke="#444444" points="1008.32,-182.17 1001.5,-179.85 1001.02,-172.66 1007.84,-174.98 1008.32,-182.17"/>
<text text-anchor="middle" x="1068" y="-217" font-family="Helvetica,sans-Serif" font-size="10.00" fill="#444444">contains 1..*</text>
</g>
<!-- dto_inc -->
<g id="node9" class="node">
<title>dto_inc</title>
<polygon fill="#fffde7" stroke="transparent" points="1078.5,-36 1078.5,-177 1193.5,-177 1193.5,-36 1078.5,-36"/>
<polygon fill="#fff59d" stroke="transparent" points="1080,-158.5 1080,-175.5 1193,-175.5 1193,-158.5 1080,-158.5"/>
<text text-anchor="start" x="1105" y="-165.5" font-family="Helvetica,sans-Serif" font-style="italic" font-size="10.00">«Java Class»</text>
<polygon fill="#fffde7" stroke="transparent" points="1080,-137.5 1080,-158.5 1193,-158.5 1193,-137.5 1080,-137.5"/>
<text text-anchor="start" x="1091" y="-145.3" font-family="Helvetica,sans-Serif" font-weight="bold" font-size="14.00">IncomeDTO</text>
<polygon fill="#fffde7" stroke="transparent" points="1080,-121.5 1080,-137.5 1193,-137.5 1193,-121.5 1080,-121.5"/>
<text text-anchor="start" x="1128.5" y="-127.3" font-family="Helvetica,sans-Serif" font-size="9.00" fill="#666666">dto</text>
<text text-anchor="start" x="1083" y="-110.5" font-family="Helvetica,sans-Serif" font-size="10.00">&#45; id: Long</text>
<text text-anchor="start" x="1083" y="-93.5" font-family="Helvetica,sans-Serif" font-size="10.00">&#45; amount: BigDecimal</text>
<text text-anchor="start" x="1083" y="-76.5" font-family="Helvetica,sans-Serif" font-size="10.00">&#45; source: String</text>
<text text-anchor="start" x="1083" y="-59.5" font-family="Helvetica,sans-Serif" font-size="10.00">&#45; date: LocalDate</text>
<text text-anchor="start" x="1083" y="-42.5" font-family="Helvetica,sans-Serif" font-size="10.00"> </text>
<polygon fill="black" stroke="black" points="1079,-121.5 1079,-121.5 1194,-121.5 1194,-121.5 1079,-121.5"/>
<polygon fill="black" stroke="black" points="1079,-53.5 1079,-53.5 1194,-53.5 1194,-53.5 1079,-53.5"/>
<polygon fill="none" stroke="black" points="1078.5,-36 1078.5,-177 1193.5,-177 1193.5,-36 1078.5,-36"/>
</g>
<!-- dto_sum&#45;&gt;dto_inc -->
<g id="edge8" class="edge">
<title>dto_sum&#45;&gt;dto_inc</title>
<path fill="none" stroke="#444444" d="M1136,-257.73C1136,-236.65 1136,-214.27 1136,-193.41"/>
<polygon fill="none" stroke="#444444" points="1136,-193.32 1132,-187.32 1136,-181.32 1140,-187.32 1136,-193.32"/>
<text text-anchor="middle" x="1167" y="-217" font-family="Helvetica,sans-Serif" font-size="10.00" fill="#444444">contains 1..*</text>
</g>
<!-- dto_exp -->
<g id="node10" class="node">
<title>dto_exp</title>
<polygon fill="#fffde7" stroke="transparent" points="1249.5,-36 1249.5,-177 1364.5,-177 1364.5,-36 1249.5,-36"/>
<polygon fill="#fff59d" stroke="transparent" points="1251,-158.5 1251,-175.5 1364,-175.5 1364,-158.5 1251,-158.5"/>
<text text-anchor="start" x="1276" y="-165.5" font-family="Helvetica,sans-Serif" font-style="italic" font-size="10.00">«Java Class»</text>
<polygon fill="#fffde7" stroke="transparent" points="1251,-137.5 1251,-158.5 1364,-158.5 1364,-137.5 1251,-137.5"/>
<text text-anchor="start" x="1257.5" y="-145.3" font-family="Helvetica,sans-Serif" font-weight="bold" font-size="14.00">ExpenseDTO</text>
<polygon fill="#fffde7" stroke="transparent" points="1251,-121.5 1251,-137.5 1364,-137.5 1364,-121.5 1251,-121.5"/>
<text text-anchor="start" x="1299.5" y="-127.3" font-family="Helvetica,sans-Serif" font-size="9.00" fill="#666666">dto</text>
<text text-anchor="start" x="1254" y="-110.5" font-family="Helvetica,sans-Serif" font-size="10.00">&#45; id: Long</text>
<text text-anchor="start" x="1254" y="-93.5" font-family="Helvetica,sans-Serif" font-size="10.00">&#45; amount: BigDecimal</text>
<text text-anchor="start" x="1254" y="-76.5" font-family="Helvetica,sans-Serif" font-size="10.00">&#45; category: String</text>
<text text-anchor="start" x="1254" y="-59.5" font-family="Helvetica,sans-Serif" font-size="10.00">&#45; date: LocalDate</text>
<text text-anchor="start" x="1254" y="-42.5" font-family="Helvetica,sans-Serif" font-size="10.00"> </text>
<polygon fill="black" stroke="black" points="1250,-121.5 1250,-121.5 1365,-121.5 1365,-121.5 1250,-121.5"/>
<polygon fill="black" stroke="black" points="1250,-53.5 1250,-53.5 1365,-53.5 1365,-53.5 1250,-53.5"/>
<polygon fill="none" stroke="black" points="1249.5,-36 1249.5,-177 1364.5,-177 1364.5,-36 1249.5,-36"/>
</g>
<!-- dto_sum&#45;&gt;dto_exp -->
<g id="edge9" class="edge">
<title>dto_sum&#45;&gt;dto_exp</title>
<path fill="none" stroke="#444444" d="M1200.4,-257.73C1215.85,-235.96 1232.28,-212.81 1247.49,-191.37"/>
<polygon fill="none" stroke="#444444" points="1247.68,-191.11 1247.89,-183.9 1254.62,-181.32 1254.41,-188.53 1247.68,-191.11"/>
<text text-anchor="middle" x="1257" y="-217" font-family="Helvetica,sans-Serif" font-size="10.00" fill="#444444">contains 1..*</text>
</g>
</g>
</svg>
