<?xml version="1.0" encoding="UTF-8" standalone="no"?>
<!DOCTYPE svg PUBLIC "-//W3C//DTD SVG 1.1//EN"
 "http://www.w3.org/Graphics/SVG/1.1/DTD/svg11.dtd">
<!-- Generated by graphviz version 2.43.0 (0)
 -->
<!-- Title: %3 Pages: 1 -->
<svg width="3035pt" height="2760pt"
 viewBox="0.00 0.00 1214.00 1104.00" xmlns="http://www.w3.org/2000/svg" xmlns:xlink="http://www.w3.org/1999/xlink">
<g id="graph0" class="graph" transform="scale(2.5 2.5) rotate(0) translate(4 1100)">
<title>%3</title>
<polygon fill="white" stroke="transparent" points="-4,4 -4,-1100 1210,-1100 1210,4 -4,4"/>
<text text-anchor="middle" x="603" y="-1080.8" font-family="Helvetica,sans-Serif" font-size="14.00">FMS — Income Management (class diagram)</text>
<g id="clust1" class="cluster">
<title>cluster_com</title>
<path fill="none" stroke="#333333" stroke-width="1.2" d="M20,-8C20,-8 1186,-8 1186,-8 1192,-8 1198,-14 1198,-20 1198,-20 1198,-1053 1198,-1053 1198,-1059 1192,-1065 1186,-1065 1186,-1065 20,-1065 20,-1065 14,-1065 8,-1059 8,-1053 8,-1053 8,-20 8,-20 8,-14 14,-8 20,-8"/>
<text text-anchor="middle" x="30" y="-1051.4" font-family="Helvetica,sans-Serif" font-weight="bold" font-size="12.00">com</text>
</g>
<g id="clust2" class="cluster">
<title>cluster_fms</title>
<path fill="none" stroke="#333333" stroke-width="1.2" d="M28,-16C28,-16 1178,-16 1178,-16 1184,-16 1190,-22 1190,-28 1190,-28 1190,-1024 1190,-1024 1190,-1030 1184,-1036 1178,-1036 1178,-1036 28,-1036 28,-1036 22,-1036 16,-1030 16,-1024 16,-1024 16,-28 16,-28 16,-22 22,-16 28,-16"/>
<text text-anchor="middle" x="37" y="-1022.4" font-family="Helvetica,sans-Serif" font-weight="bold" font-size="12.00">fms</text>
</g>
<g id="clust3" class="cluster">
<title>cluster_income</title>
<path fill="none" stroke="#333333" stroke-width="1.2" d="M36,-24C36,-24 1170,-24 1170,-24 1176,-24 1182,-30 1182,-36 1182,-36 1182,-995 1182,-995 1182,-1001 1176,-1007 1170,-1007 1170,-1007 36,-1007 36,-1007 30,-1007 24,-1001 24,-995 24,-995 24,-36 24,-36 24,-30 30,-24 36,-24"/>
<text text-anchor="middle" x="56.5" y="-993.4" font-family="Helvetica,sans-Serif" font-weight="bold" font-size="12.00">income</text>
</g>
<!-- ctrl -->
<g id="node1" class="node">
<title>ctrl</title>
<polygon fill="#fffde7" stroke="transparent" points="704,-816 704,-957 1052,-957 1052,-816 704,-816"/>
<polygon fill="#fff59d" stroke="transparent" points="705,-938.5 705,-955.5 1051,-955.5 1051,-938.5 705,-938.5"/>
<text text-anchor="start" x="846.5" y="-945.5" font-family="Helvetica,sans-Serif" font-style="italic" font-size="10.00">«Java Class»</text>
<polygon fill="#fffde7" stroke="transparent" points="705,-917.5 705,-938.5 1051,-938.5 1051,-917.5 705,-917.5"/>
<text text-anchor="start" x="810" y="-925.3" font-family="Helvetica,sans-Serif" font-weight="bold" font-size="14.00">IncomeController</text>
<polygon fill="#fffde7" stroke="transparent" points="705,-901.5 705,-917.5 1051,-917.5 1051,-901.5 705,-901.5"/>
<text text-anchor="start" x="856.5" y="-907.3" font-family="Helvetica,sans-Serif" font-size="9.00" fill="#666666">controller</text>
<text text-anchor="start" x="708" y="-890.5" font-family="Helvetica,sans-Serif" font-size="10.00">&#45; incomeService: IncomeService</text>
<text text-anchor="start" x="708" y="-873.5" font-family="Helvetica,sans-Serif" font-size="10.00">+ getAll(email: String): ResponseEntity&lt;List&lt;IncomeDTO&gt;&gt;</text>
<text text-anchor="start" x="708" y="-856.5" font-family="Helvetica,sans-Serif" font-size="10.00">+ add(email: String, dto: IncomeDTO): ResponseEntity&lt;IncomeDTO&gt;</text>
<text text-anchor="start" x="708" y="-839.5" font-family="Helvetica,sans-Serif" font-size="10.00">+ update(id: Long, dto: IncomeDTO): ResponseEntity&lt;IncomeDTO&gt;</text>
<text text-anchor="start" x="708" y="-822.5" font-family="Helvetica,sans-Serif" font-size="10.00">+ delete(id: Long): ResponseEntity&lt;Void&gt;</text>
<polygon fill="black" stroke="black" points="704,-901.5 704,-901.5 1052,-901.5 1052,-901.5 704,-901.5"/>
<polygon fill="black" stroke="black" points="704,-884.5 704,-884.5 1052,-884.5 1052,-884.5 704,-884.5"/>
<polygon fill="none" stroke="black" points="704,-816 704,-957 1052,-957 1052,-816 704,-816"/>
</g>
<!-- svc_if -->
<g id="node2" class="node">
<title>svc_if</title>
<polygon fill="#fffde7" stroke="transparent" points="636.5,-556 636.5,-697 891.5,-697 891.5,-556 636.5,-556"/>
<polygon fill="#ffe082" stroke="transparent" points="638,-678.5 638,-695.5 891,-695.5 891,-678.5 638,-678.5"/>
<text text-anchor="start" x="724.5" y="-685.5" font-family="Helvetica,sans-Serif" font-style="italic" font-size="10.00">«Java Interface»</text>
<polygon fill="#fffde7" stroke="transparent" points="638,-657.5 638,-678.5 891,-678.5 891,-657.5 638,-657.5"/>
<text text-anchor="start" x="707" y="-665.3" font-family="Helvetica,sans-Serif" font-weight="bold" font-size="14.00">IncomeService</text>
<polygon fill="#fffde7" stroke="transparent" points="638,-641.5 638,-657.5 891,-657.5 891,-641.5 638,-641.5"/>
<text text-anchor="start" x="748.5" y="-647.3" font-family="Helvetica,sans-Serif" font-size="9.00" fill="#666666">service</text>
<text text-anchor="start" x="641" y="-630.5" font-family="Helvetica,sans-Serif" font-size="10.00"> </text>
<text text-anchor="start" x="641" y="-613.5" font-family="Helvetica,sans-Serif" font-size="10.00">+ getAllByUser(email: String): List&lt;IncomeDTO&gt;</text>
<text text-anchor="start" x="641" y="-596.5" font-family="Helvetica,sans-Serif" font-size="10.00">+ add(email: String, dto: IncomeDTO): IncomeDTO</text>
<text text-anchor="start" x="641" y="-579.5" font-family="Helvetica,sans-Serif" font-size="10.00">+ update(id: Long, dto: IncomeDTO): IncomeDTO</text>
<text text-anchor="start" x="641" y="-562.5" font-family="Helvetica,sans-Serif" font-size="10.00">+ delete(id: Long): void</text>
<polygon fill="black" stroke="black" points="637,-641.5 637,-641.5 892,-641.5 892,-641.5 637,-641.5"/>
<polygon fill="black" stroke="black" points="637,-624.5 637,-624.5 892,-624.5 892,-624.5 637,-624.5"/>
<polygon fill="none" stroke="black" points="636.5,-556 636.5,-697 891.5,-697 891.5,-556 636.5,-556"/>
</g>
<!-- ctrl&#45;&gt;svc_if -->
<g id="edge1" class="edge">
<title>ctrl&#45;&gt;svc_if</title>
<path fill="none" stroke="#444444" d="M845.48,-811.91C831.53,-780.33 815.15,-743.27 800.76,-710.69"/>
<polygon fill="#444444" stroke="#444444" points="796.56,-701.18 804.72,-708.51 798.58,-705.76 800.6,-710.33 800.6,-710.33 800.6,-710.33 798.58,-705.76 796.48,-712.15 796.56,-701.18 796.56,-701.18"/>
<text text-anchor="middle" x="832.5" y="-754" font-family="Helvetica,sans-Serif" font-size="10.00" fill="#444444">uses</text>
</g>
<!-- dto -->
<g id="node7" class="node">
<title>dto</title>
<polygon fill="#fffde7" stroke="transparent" points="948,-539 948,-714 1166,-714 1166,-539 948,-539"/>
<polygon fill="#fff59d" stroke="transparent" points="949,-695.5 949,-712.5 1165,-712.5 1165,-695.5 949,-695.5"/>
<text text-anchor="start" x="1025.5" y="-702.5" font-family="Helvetica,sans-Serif" font-style="italic" font-size="10.00">«Java Class»</text>
<polygon fill="#fffde7" stroke="transparent" points="949,-674.5 949,-695.5 1165,-695.5 1165,-674.5 949,-674.5"/>
<text text-anchor="start" x="1011.5" y="-682.3" font-family="Helvetica,sans-Serif" font-weight="bold" font-size="14.00">IncomeDTO</text>
<polygon fill="#fffde7" stroke="transparent" points="949,-658.5 949,-674.5 1165,-674.5 1165,-658.5 949,-658.5"/>
<text text-anchor="start" x="1049" y="-664.3" font-family="Helvetica,sans-Serif" font-size="9.00" fill="#666666">dto</text>
<text text-anchor="start" x="952" y="-647.5" font-family="Helvetica,sans-Serif" font-size="10.00">&#45; id: Long</text>
<text text-anchor="start" x="952" y="-630.5" font-family="Helvetica,sans-Serif" font-size="10.00">&#45; amount: BigDecimal &#160;@DecimalMin(0.01)</text>
<text text-anchor="start" x="952" y="-613.5" font-family="Helvetica,sans-Serif" font-size="10.00">&#45; source: String &#160;@NotBlank</text>
<text text-anchor="start" x="952" y="-596.5" font-family="Helvetica,sans-Serif" font-size="10.00">&#45; sourceType: IncomeSourceType</text>
<text text-anchor="start" x="952" y="-579.5" font-family="Helvetica,sans-Serif" font-size="10.00">&#45; date: LocalDate</text>
<text text-anchor="start" x="952" y="-562.5" font-family="Helvetica,sans-Serif" font-size="10.00">&#45; description: String</text>
<text text-anchor="start" x="952" y="-545.5" font-family="Helvetica,sans-Serif" font-size="10.00"> </text>
<polygon fill="black" stroke="black" points="948,-658.5 948,-658.5 1166,-658.5 1166,-658.5 948,-658.5"/>
<polygon fill="black" stroke="black" points="948,-556.5 948,-556.5 1166,-556.5 1166,-556.5 948,-556.5"/>
<polygon fill="none" stroke="black" points="948,-539 948,-714 1166,-714 1166,-539 948,-539"/>
</g>
<!-- ctrl&#45;&gt;dto -->
<g id="edge6" class="edge">
<title>ctrl&#45;&gt;dto</title>
<path fill="none" stroke="#444444" stroke-dasharray="5,2" d="M929.05,-811.91C947.49,-785.34 968.61,-754.9 988.31,-726.51"/>
<polygon fill="#444444" stroke="#444444" points="994.09,-718.17 992.09,-728.95 991.24,-722.28 988.39,-726.39 988.39,-726.39 988.39,-726.39 991.24,-722.28 984.7,-723.82 994.09,-718.17 994.09,-718.17"/>
<text text-anchor="middle" x="1009.5" y="-754" font-family="Helvetica,sans-Serif" font-size="10.00" fill="#444444">receives / returns</text>
</g>
<!-- svc_impl -->
<g id="node3" class="node">
<title>svc_impl</title>
<polygon fill="#fffde7" stroke="transparent" points="241.5,-799 241.5,-974 496.5,-974 496.5,-799 241.5,-799"/>
<polygon fill="#fff59d" stroke="transparent" points="243,-955.5 243,-972.5 496,-972.5 496,-955.5 243,-955.5"/>
<text text-anchor="start" x="338" y="-962.5" font-family="Helvetica,sans-Serif" font-style="italic" font-size="10.00">«Java Class»</text>
<polygon fill="#fffde7" stroke="transparent" points="243,-934.5 243,-955.5 496,-955.5 496,-934.5 243,-934.5"/>
<text text-anchor="start" x="295" y="-942.3" font-family="Helvetica,sans-Serif" font-weight="bold" font-size="14.00">IncomeServiceImpl</text>
<polygon fill="#fffde7" stroke="transparent" points="243,-918.5 243,-934.5 496,-934.5 496,-918.5 243,-918.5"/>
<text text-anchor="start" x="353.5" y="-924.3" font-family="Helvetica,sans-Serif" font-size="9.00" fill="#666666">service</text>
<text text-anchor="start" x="246" y="-907.5" font-family="Helvetica,sans-Serif" font-size="10.00">&#45; incomeRepository: IncomeRepository</text>
<text text-anchor="start" x="246" y="-890.5" font-family="Helvetica,sans-Serif" font-size="10.00">&#45; userRepository: UserRepository</text>
<text text-anchor="start" x="246" y="-873.5" font-family="Helvetica,sans-Serif" font-size="10.00">+ getAllByUser(email: String): List&lt;IncomeDTO&gt;</text>
<text text-anchor="start" x="246" y="-856.5" font-family="Helvetica,sans-Serif" font-size="10.00">+ add(email: String, dto: IncomeDTO): IncomeDTO</text>
<text text-anchor="start" x="246" y="-839.5" font-family="Helvetica,sans-Serif" font-size="10.00">+ update(id: Long, dto: IncomeDTO): IncomeDTO</text>
<text text-anchor="start" x="246" y="-822.5" font-family="Helvetica,sans-Serif" font-size="10.00">+ delete(id: Long): void</text>
<text text-anchor="start" x="246" y="-805.5" font-family="Helvetica,sans-Serif" font-size="10.00">&#45; toDTO(income: Income): IncomeDTO</text>
<polygon fill="black" stroke="black" points="242,-918.5 242,-918.5 497,-918.5 497,-918.5 242,-918.5"/>
<polygon fill="black" stroke="black" points="242,-884.5 242,-884.5 497,-884.5 497,-884.5 242,-884.5"/>
<polygon fill="none" stroke="black" points="241.5,-799 241.5,-974 496.5,-974 496.5,-799 241.5,-799"/>
</g>
<!-- svc_impl&#45;&gt;svc_if -->
<g id="edge2" class="edge">
<title>svc_impl&#45;&gt;svc_if</title>
<path fill="none" stroke="#444444" stroke-dasharray="5,2" d="M504.66,-796.89C549.54,-767.58 599.16,-735.17 642.88,-706.61"/>
<polygon fill="none" stroke="#444444" points="644.8,-709.54 651.26,-701.14 640.97,-703.68 644.8,-709.54"/>
<text text-anchor="middle" x="595.5" y="-754" font-family="Helvetica,sans-Serif" font-size="10.00" fill="#444444">implements</text>
</g>
<!-- repo -->
<g id="node4" class="node">
<title>repo</title>
<polygon fill="#fffde7" stroke="transparent" points="157.5,-573 157.5,-680 580.5,-680 580.5,-573 157.5,-573"/>
<polygon fill="#ffe082" stroke="transparent" points="159,-661.5 159,-678.5 580,-678.5 580,-661.5 159,-661.5"/>
<text text-anchor="start" x="329.5" y="-668.5" font-family="Helvetica,sans-Serif" font-style="italic" font-size="10.00">«Java Interface»</text>
<polygon fill="#fffde7" stroke="transparent" points="159,-640.5 159,-661.5 580,-661.5 580,-640.5 159,-640.5"/>
<text text-anchor="start" x="298.5" y="-648.3" font-family="Helvetica,sans-Serif" font-weight="bold" font-size="14.00">IncomeRepository</text>
<polygon fill="#fffde7" stroke="transparent" points="159,-624.5 159,-640.5 580,-640.5 580,-624.5 159,-624.5"/>
<text text-anchor="start" x="346.5" y="-630.3" font-family="Helvetica,sans-Serif" font-size="9.00" fill="#666666">repository</text>
<text text-anchor="start" x="162" y="-613.5" font-family="Helvetica,sans-Serif" font-size="10.00"> </text>
<text text-anchor="start" x="162" y="-596.5" font-family="Helvetica,sans-Serif" font-size="10.00">+ findByUserOrderByDateDesc(user: User): List&lt;Income&gt;</text>
<text text-anchor="start" x="162" y="-579.5" font-family="Helvetica,sans-Serif" font-size="10.00">+ findByUserAndDateBetween(user: User, s: LocalDate, e: LocalDate): List&lt;Income&gt;</text>
<polygon fill="black" stroke="black" points="158,-624.5 158,-624.5 581,-624.5 581,-624.5 158,-624.5"/>
<polygon fill="black" stroke="black" points="158,-607.5 158,-607.5 581,-607.5 581,-607.5 158,-607.5"/>
<polygon fill="none" stroke="black" points="157.5,-573 157.5,-680 580.5,-680 580.5,-573 157.5,-573"/>
</g>
<!-- svc_impl&#45;&gt;repo -->
<g id="edge3" class="edge">
<title>svc_impl&#45;&gt;repo</title>
<path fill="none" stroke="#444444" d="M369,-794.9C369,-761.77 369,-724.91 369,-694.24"/>
<polygon fill="#444444" stroke="#444444" points="369,-684.09 373.5,-694.09 369,-689.09 369,-694.09 369,-694.09 369,-694.09 369,-689.09 364.5,-694.09 369,-684.09 369,-684.09"/>
<text text-anchor="middle" x="380.5" y="-754" font-family="Helvetica,sans-Serif" font-size="10.00" fill="#444444">uses</text>
</g>
<!-- ent -->
<g id="node5" class="node">
<title>ent</title>
<polygon fill="#fffde7" stroke="transparent" points="162,-262 162,-454 330,-454 330,-262 162,-262"/>
<polygon fill="#fff59d" stroke="transparent" points="163,-436 163,-453 329,-453 329,-436 163,-436"/>
<text text-anchor="start" x="214.5" y="-443" font-family="Helvetica,sans-Serif" font-style="italic" font-size="10.00">«Java Class»</text>
<polygon fill="#fffde7" stroke="transparent" points="163,-415 163,-436 329,-436 329,-415 163,-415"/>
<text text-anchor="start" x="217" y="-422.8" font-family="Helvetica,sans-Serif" font-weight="bold" font-size="14.00">Income</text>
<polygon fill="#fffde7" stroke="transparent" points="163,-399 163,-415 329,-415 329,-399 163,-399"/>
<text text-anchor="start" x="232" y="-404.8" font-family="Helvetica,sans-Serif" font-size="9.00" fill="#666666">model</text>
<text text-anchor="start" x="166" y="-388" font-family="Helvetica,sans-Serif" font-size="10.00">&#45; id: Long</text>
<text text-anchor="start" x="166" y="-371" font-family="Helvetica,sans-Serif" font-size="10.00">&#45; user: User</text>
<text text-anchor="start" x="166" y="-354" font-family="Helvetica,sans-Serif" font-size="10.00">&#45; amount: BigDecimal</text>
<text text-anchor="start" x="166" y="-337" font-family="Helvetica,sans-Serif" font-size="10.00">&#45; source: String</text>
<text text-anchor="start" x="166" y="-320" font-family="Helvetica,sans-Serif" font-size="10.00">&#45; sourceType: IncomeSourceType</text>
<text text-anchor="start" x="166" y="-303" font-family="Helvetica,sans-Serif" font-size="10.00">&#45; date: LocalDate</text>
<text text-anchor="start" x="166" y="-286" font-family="Helvetica,sans-Serif" font-size="10.00">&#45; description: String</text>
<text text-anchor="start" x="166" y="-269" font-family="Helvetica,sans-Serif" font-size="10.00"> </text>
<polygon fill="black" stroke="black" points="162,-399 162,-399 330,-399 330,-399 162,-399"/>
<polygon fill="black" stroke="black" points="162,-280 162,-280 330,-280 330,-280 162,-280"/>
<polygon fill="none" stroke="black" points="162,-262 162,-454 330,-454 330,-262 162,-262"/>
</g>
<!-- svc_impl&#45;&gt;ent -->
<g id="edge7" class="edge">
<title>svc_impl&#45;&gt;ent</title>
<path fill="none" stroke="#444444" d="M233.4,-837.52C179.71,-811.08 123.59,-772.34 93,-718 53.11,-647.12 64.52,-611.18 93,-535 104.76,-503.55 124.95,-474.01 146.88,-448.44"/>
<polygon fill="#444444" stroke="#444444" points="153.74,-440.64 150.52,-451.12 150.44,-444.39 147.14,-448.15 147.14,-448.15 147.14,-448.15 150.44,-444.39 143.76,-445.18 153.74,-440.64 153.74,-440.64"/>
<text text-anchor="middle" x="111.5" y="-624" font-family="Helvetica,sans-Serif" font-size="10.00" fill="#444444">creates</text>
</g>
<!-- repo&#45;&gt;ent -->
<g id="edge4" class="edge">
<title>repo&#45;&gt;ent</title>
<path fill="none" stroke="#444444" d="M342.91,-568.98C329.29,-539.46 312.14,-502.31 296.08,-467.5"/>
<polygon fill="#444444" stroke="#444444" points="291.8,-458.23 300.07,-465.42 293.89,-462.77 295.99,-467.31 295.99,-467.31 295.99,-467.31 293.89,-462.77 291.9,-469.19 291.8,-458.23 291.8,-458.23"/>
<text text-anchor="middle" x="330.5" y="-494" font-family="Helvetica,sans-Serif" font-size="10.00" fill="#444444">persists</text>
</g>
<!-- enum -->
<g id="node6" class="node">
<title>enum</title>
<polygon fill="#fffde7" stroke="transparent" points="168,-36 168,-177 324,-177 324,-36 168,-36"/>
<polygon fill="#fff59d" stroke="transparent" points="169,-158.5 169,-175.5 323,-175.5 323,-158.5 169,-158.5"/>
<text text-anchor="start" x="214.5" y="-165.5" font-family="Helvetica,sans-Serif" font-style="italic" font-size="10.00">«Java Class»</text>
<polygon fill="#fffde7" stroke="transparent" points="169,-137.5 169,-158.5 323,-158.5 323,-137.5 169,-137.5"/>
<text text-anchor="start" x="172" y="-145.3" font-family="Helvetica,sans-Serif" font-weight="bold" font-size="14.00">IncomeSourceType</text>
<polygon fill="#fffde7" stroke="transparent" points="169,-121.5 169,-137.5 323,-137.5 323,-121.5 169,-121.5"/>
<text text-anchor="start" x="232" y="-127.3" font-family="Helvetica,sans-Serif" font-size="9.00" fill="#666666">model</text>
<text text-anchor="start" x="172" y="-110.5" font-family="Helvetica,sans-Serif" font-size="10.00">SCHOLARSHIP</text>
<text text-anchor="start" x="172" y="-93.5" font-family="Helvetica,sans-Serif" font-size="10.00">PART_TIME_JOB</text>
<text text-anchor="start" x="172" y="-76.5" font-family="Helvetica,sans-Serif" font-size="10.00">FAMILY_SUPPORT</text>
<text text-anchor="start" x="172" y="-59.5" font-family="Helvetica,sans-Serif" font-size="10.00">OTHER</text>
<text text-anchor="start" x="172" y="-42.5" font-family="Helvetica,sans-Serif" font-size="10.00"> </text>
<polygon fill="black" stroke="black" points="168,-121.5 168,-121.5 324,-121.5 324,-121.5 168,-121.5"/>
<polygon fill="black" stroke="black" points="168,-53.5 168,-53.5 324,-53.5 324,-53.5 168,-53.5"/>
<polygon fill="none" stroke="black" points="168,-36 168,-177 324,-177 324,-36 168,-36"/>
</g>
<!-- ent&#45;&gt;enum -->
<g id="edge5" class="edge">
<title>ent&#45;&gt;enum</title>
<path fill="none" stroke="#444444" stroke-dasharray="5,2" d="M246,-257.67C246,-235.72 246,-212.67 246,-191.4"/>
<polygon fill="#444444" stroke="#444444" points="246,-181.11 250.5,-191.11 246,-186.11 246,-191.11 246,-191.11 246,-191.11 246,-186.11 241.5,-191.11 246,-181.11 246,-181.11"/>
<text text-anchor="middle" x="267.5" y="-217" font-family="Helvetica,sans-Serif" font-size="10.00" fill="#444444">typed by</text>
</g>
</g>
</svg>
