<?xml version="1.0" encoding="UTF-8" standalone="no"?>
<!DOCTYPE svg PUBLIC "-//W3C//DTD SVG 1.1//EN"
 "http://www.w3.org/Graphics/SVG/1.1/DTD/svg11.dtd">
<!-- Generated by graphviz version 2.43.0 (0)
 -->
<!-- Title: %3 Pages: 1 -->
<svg width="3376pt" height="1248pt"
 viewBox="0.00 0.00 1350.50 499.00" xmlns="http://www.w3.org/2000/svg" xmlns:xlink="http://www.w3.org/1999/xlink">
<g id="graph0" class="graph" transform="scale(2.5 2.5) rotate(0) translate(4 495)">
<title>%3</title>
<polygon fill="white" stroke="transparent" points="-4,4 -4,-495 1346.5,-495 1346.5,4 -4,4"/>
<text text-anchor="middle" x="671.25" y="-475.8" font-family="Helvetica,sans-Serif" font-size="14.00">FMS — AI Advisor (class diagram)</text>
<g id="clust1" class="cluster">
<title>cluster_com</title>
<path fill="none" stroke="#333333" stroke-width="1.2" d="M20,-8C20,-8 1084,-8 1084,-8 1090,-8 1096,-14 1096,-20 1096,-20 1096,-448 1096,-448 1096,-454 1090,-460 1084,-460 1084,-460 20,-460 20,-460 14,-460 8,-454 8,-448 8,-448 8,-20 8,-20 8,-14 14,-8 20,-8"/>
<text text-anchor="middle" x="30" y="-446.4" font-family="Helvetica,sans-Serif" font-weight="bold" font-size="12.00">com</text>
</g>
<g id="clust2" class="cluster">
<title>cluster_fms</title>
<path fill="none" stroke="#333333" stroke-width="1.2" d="M28,-16C28,-16 1076,-16 1076,-16 1082,-16 1088,-22 1088,-28 1088,-28 1088,-419 1088,-419 1088,-425 1082,-431 1076,-431 1076,-431 28,-431 28,-431 22,-431 16,-425 16,-419 16,-419 16,-28 16,-28 16,-22 22,-16 28,-16"/>
<text text-anchor="middle" x="37" y="-417.4" font-family="Helvetica,sans-Serif" font-weight="bold" font-size="12.00">fms</text>
</g>
<g id="clust3" class="cluster">
<title>cluster_ai</title>
<path fill="none" stroke="#333333" stroke-width="1.2" d="M36,-24C36,-24 1068,-24 1068,-24 1074,-24 1080,-30 1080,-36 1080,-36 1080,-390 1080,-390 1080,-396 1074,-402 1068,-402 1068,-402 36,-402 36,-402 30,-402 24,-396 24,-390 24,-390 24,-36 24,-36 24,-30 30,-24 36,-24"/>
<text text-anchor="middle" x="38.5" y="-388.4" font-family="Helvetica,sans-Serif" font-weight="bold" font-size="12.00">ai</text>
</g>
<!-- ctrl -->
<g id="node1" class="node">
<title>ctrl</title>
<polygon fill="#fffde7" stroke="transparent" points="86,-262 86,-352 524,-352 524,-262 86,-262"/>
<polygon fill="#fff59d" stroke="transparent" points="87,-334 87,-351 523,-351 523,-334 87,-334"/>
<text text-anchor="start" x="273.5" y="-341" font-family="Helvetica,sans-Serif" font-style="italic" font-size="10.00">«Java Class»</text>
<polygon fill="#fffde7" stroke="transparent" points="87,-313 87,-334 523,-334 523,-313 87,-313"/>
<text text-anchor="start" x="228" y="-320.8" font-family="Helvetica,sans-Serif" font-weight="bold" font-size="14.00">AIAdvisorController</text>
<polygon fill="#fffde7" stroke="transparent" points="87,-297 87,-313 523,-313 523,-297 87,-297"/>
<text text-anchor="start" x="283.5" y="-302.8" font-family="Helvetica,sans-Serif" font-size="9.00" fill="#666666">controller</text>
<text text-anchor="start" x="90" y="-286" font-family="Helvetica,sans-Serif" font-size="10.00">&#45; aiAdvisorService: AIAdvisorService</text>
<text text-anchor="start" x="90" y="-269" font-family="Helvetica,sans-Serif" font-size="10.00">+ ask(userDetails: UserDetails, query: AIQueryDTO): ResponseEntity&lt;AIResponseDTO&gt;</text>
<polygon fill="black" stroke="black" points="86,-297 86,-297 524,-297 524,-297 86,-297"/>
<polygon fill="black" stroke="black" points="86,-280 86,-280 524,-280 524,-280 86,-280"/>
<polygon fill="none" stroke="black" points="86,-262 86,-352 524,-352 524,-262 86,-262"/>
</g>
<!-- svc_if -->
<g id="node2" class="node">
<title>svc_if</title>
<polygon fill="#fffde7" stroke="transparent" points="438,-44.5 438,-134.5 728,-134.5 728,-44.5 438,-44.5"/>
<polygon fill="#ffe082" stroke="transparent" points="439,-116.5 439,-133.5 727,-133.5 727,-116.5 439,-116.5"/>
<text text-anchor="start" x="543" y="-123.5" font-family="Helvetica,sans-Serif" font-style="italic" font-size="10.00">«Java Interface»</text>
<polygon fill="#fffde7" stroke="transparent" points="439,-95.5 439,-116.5 727,-116.5 727,-95.5 439,-95.5"/>
<text text-anchor="start" x="516.5" y="-103.3" font-family="Helvetica,sans-Serif" font-weight="bold" font-size="14.00">AIAdvisorService</text>
<polygon fill="#fffde7" stroke="transparent" points="439,-79.5 439,-95.5 727,-95.5 727,-79.5 439,-79.5"/>
<text text-anchor="start" x="567" y="-85.3" font-family="Helvetica,sans-Serif" font-size="9.00" fill="#666666">service</text>
<text text-anchor="start" x="442" y="-68.5" font-family="Helvetica,sans-Serif" font-size="10.00"> </text>
<text text-anchor="start" x="442" y="-51.5" font-family="Helvetica,sans-Serif" font-size="10.00">+ ask(email: String, query: AIQueryDTO): AIResponseDTO</text>
<polygon fill="black" stroke="black" points="438,-79.5 438,-79.5 728,-79.5 728,-79.5 438,-79.5"/>
<polygon fill="black" stroke="black" points="438,-62.5 438,-62.5 728,-62.5 728,-62.5 438,-62.5"/>
<polygon fill="none" stroke="black" points="438,-44.5 438,-134.5 728,-134.5 728,-44.5 438,-44.5"/>
</g>
<!-- ctrl&#45;&gt;svc_if -->
<g id="edge1" class="edge">
<title>ctrl&#45;&gt;svc_if</title>
<path fill="none" stroke="#444444" d="M367.04,-257.91C410.22,-224.44 467.86,-179.76 512.73,-144.97"/>
<polygon fill="#444444" stroke="#444444" points="520.67,-138.82 515.52,-148.5 516.72,-141.88 512.76,-144.95 512.76,-144.95 512.76,-144.95 516.72,-141.88 510.01,-141.39 520.67,-138.82 520.67,-138.82"/>
<text text-anchor="middle" x="455.5" y="-200" font-family="Helvetica,sans-Serif" font-size="10.00" fill="#444444">uses</text>
</g>
<!-- dto_q -->
<g id="node5" class="node">
<title>dto_q</title>
<polygon fill="#fffde7" stroke="transparent" points="228.5,-44.5 228.5,-134.5 381.5,-134.5 381.5,-44.5 228.5,-44.5"/>
<polygon fill="#fff59d" stroke="transparent" points="230,-116.5 230,-133.5 381,-133.5 381,-116.5 230,-116.5"/>
<text text-anchor="start" x="274" y="-123.5" font-family="Helvetica,sans-Serif" font-style="italic" font-size="10.00">«Java Class»</text>
<polygon fill="#fffde7" stroke="transparent" points="230,-95.5 230,-116.5 381,-116.5 381,-95.5 230,-95.5"/>
<text text-anchor="start" x="257" y="-103.3" font-family="Helvetica,sans-Serif" font-weight="bold" font-size="14.00">AIQueryDTO</text>
<polygon fill="#fffde7" stroke="transparent" points="230,-79.5 230,-95.5 381,-95.5 381,-79.5 230,-79.5"/>
<text text-anchor="start" x="297.5" y="-85.3" font-family="Helvetica,sans-Serif" font-size="9.00" fill="#666666">dto</text>
<text text-anchor="start" x="233" y="-68.5" font-family="Helvetica,sans-Serif" font-size="10.00">&#45; question: String &#160;@NotBlank</text>
<text text-anchor="start" x="233" y="-51.5" font-family="Helvetica,sans-Serif" font-size="10.00"> </text>
<polygon fill="black" stroke="black" points="229,-79.5 229,-79.5 382,-79.5 382,-79.5 229,-79.5"/>
<polygon fill="black" stroke="black" points="229,-62.5 229,-62.5 382,-62.5 382,-62.5 229,-62.5"/>
<polygon fill="none" stroke="black" points="228.5,-44.5 228.5,-134.5 381.5,-134.5 381.5,-44.5 228.5,-44.5"/>
</g>
<!-- ctrl&#45;&gt;dto_q -->
<g id="edge5" class="edge">
<title>ctrl&#45;&gt;dto_q</title>
<path fill="none" stroke="#444444" stroke-dasharray="5,2" d="M305,-257.91C305,-225.75 305,-183.25 305,-149.12"/>
<polygon fill="#444444" stroke="#444444" points="305,-138.82 309.5,-148.82 305,-143.82 305,-148.82 305,-148.82 305,-148.82 305,-143.82 300.5,-148.82 305,-138.82 305,-138.82"/>
<text text-anchor="middle" x="326" y="-200" font-family="Helvetica,sans-Serif" font-size="10.00" fill="#444444">receives</text>
</g>
<!-- dto_r -->
<g id="node6" class="node">
<title>dto_r</title>
<polygon fill="#fffde7" stroke="transparent" points="39.5,-36 39.5,-143 172.5,-143 172.5,-36 39.5,-36"/>
<polygon fill="#fff59d" stroke="transparent" points="41,-124.5 41,-141.5 172,-141.5 172,-124.5 41,-124.5"/>
<text text-anchor="start" x="75" y="-131.5" font-family="Helvetica,sans-Serif" font-style="italic" font-size="10.00">«Java Class»</text>
<polygon fill="#fffde7" stroke="transparent" points="41,-103.5 41,-124.5 172,-124.5 172,-103.5 41,-103.5"/>
<text text-anchor="start" x="44" y="-111.3" font-family="Helvetica,sans-Serif" font-weight="bold" font-size="14.00">AIResponseDTO</text>
<polygon fill="#fffde7" stroke="transparent" points="41,-87.5 41,-103.5 172,-103.5 172,-87.5 41,-87.5"/>
<text text-anchor="start" x="98.5" y="-93.3" font-family="Helvetica,sans-Serif" font-size="9.00" fill="#666666">dto</text>
<text text-anchor="start" x="44" y="-76.5" font-family="Helvetica,sans-Serif" font-size="10.00">&#45; answer: String</text>
<text text-anchor="start" x="44" y="-59.5" font-family="Helvetica,sans-Serif" font-size="10.00">&#45; model: String</text>
<text text-anchor="start" x="44" y="-42.5" font-family="Helvetica,sans-Serif" font-size="10.00"> </text>
<polygon fill="black" stroke="black" points="40,-87.5 40,-87.5 173,-87.5 173,-87.5 40,-87.5"/>
<polygon fill="black" stroke="black" points="40,-53.5 40,-53.5 173,-53.5 173,-53.5 40,-53.5"/>
<polygon fill="none" stroke="black" points="39.5,-36 39.5,-143 172.5,-143 172.5,-36 39.5,-36"/>
</g>
<!-- ctrl&#45;&gt;dto_r -->
<g id="edge6" class="edge">
<title>ctrl&#45;&gt;dto_r</title>
<path fill="none" stroke="#444444" stroke-dasharray="5,2" d="M260.59,-257.91C232.47,-227.46 195.79,-187.73 165.21,-154.62"/>
<polygon fill="#444444" stroke="#444444" points="158.39,-147.23 168.48,-151.52 161.78,-150.9 165.17,-154.58 165.17,-154.58 165.17,-154.58 161.78,-150.9 161.86,-157.63 158.39,-147.23 158.39,-147.23"/>
<text text-anchor="middle" x="229.5" y="-200" font-family="Helvetica,sans-Serif" font-size="10.00" fill="#444444">returns</text>
</g>
<!-- svc_impl -->
<g id="node3" class="node">
<title>svc_impl</title>
<polygon fill="#fffde7" stroke="transparent" points="738,-245 738,-369 1064,-369 1064,-245 738,-245"/>
<polygon fill="#fff59d" stroke="transparent" points="739,-351 739,-368 1063,-368 1063,-351 739,-351"/>
<text text-anchor="start" x="869.5" y="-358" font-family="Helvetica,sans-Serif" font-style="italic" font-size="10.00">«Java Class»</text>
<polygon fill="#fffde7" stroke="transparent" points="739,-330 739,-351 1063,-351 1063,-330 739,-330"/>
<text text-anchor="start" x="818" y="-337.8" font-family="Helvetica,sans-Serif" font-weight="bold" font-size="14.00">AIAdvisorServiceImpl</text>
<polygon fill="#fffde7" stroke="transparent" points="739,-314 739,-330 1063,-330 1063,-314 739,-314"/>
<text text-anchor="start" x="885" y="-319.8" font-family="Helvetica,sans-Serif" font-size="9.00" fill="#666666">service</text>
<text text-anchor="start" x="742" y="-303" font-family="Helvetica,sans-Serif" font-size="10.00">&#45; openAiApiKey: String &#160;@Value</text>
<text text-anchor="start" x="742" y="-286" font-family="Helvetica,sans-Serif" font-size="10.00">&#45; dashboardService: DashboardService</text>
<text text-anchor="start" x="742" y="-269" font-family="Helvetica,sans-Serif" font-size="10.00">+ ask(email: String, query: AIQueryDTO): AIResponseDTO</text>
<text text-anchor="start" x="742" y="-252" font-family="Helvetica,sans-Serif" font-size="10.00">&#45; buildSystemPrompt(summary: DashboardSummaryDTO): String</text>
<polygon fill="black" stroke="black" points="738,-314 738,-314 1064,-314 1064,-314 738,-314"/>
<polygon fill="black" stroke="black" points="738,-280 738,-280 1064,-280 1064,-280 738,-280"/>
<polygon fill="none" stroke="black" points="738,-245 738,-369 1064,-369 1064,-245 738,-245"/>
</g>
<!-- svc_impl&#45;&gt;svc_if -->
<g id="edge2" class="edge">
<title>svc_impl&#45;&gt;svc_if</title>
<path fill="none" stroke="#444444" stroke-dasharray="5,2" d="M804.73,-240.76C759.23,-209.92 705.56,-173.56 662.43,-144.33"/>
<polygon fill="none" stroke="#444444" points="664.19,-141.29 653.95,-138.58 660.26,-147.09 664.19,-141.29"/>
<text text-anchor="middle" x="780.5" y="-200" font-family="Helvetica,sans-Serif" font-size="10.00" fill="#444444">implements</text>
</g>
<!-- dash -->
<g id="node4" class="node">
<title>dash</title>
<polygon fill="#fffde7" stroke="transparent" points="784.5,-44.5 784.5,-134.5 1063.5,-134.5 1063.5,-44.5 784.5,-44.5"/>
<polygon fill="#ffe082" stroke="transparent" points="786,-116.5 786,-133.5 1063,-133.5 1063,-116.5 786,-116.5"/>
<text text-anchor="start" x="884.5" y="-123.5" font-family="Helvetica,sans-Serif" font-style="italic" font-size="10.00">«Java Interface»</text>
<polygon fill="#fffde7" stroke="transparent" points="786,-95.5 786,-116.5 1063,-116.5 1063,-95.5 786,-95.5"/>
<text text-anchor="start" x="853" y="-103.3" font-family="Helvetica,sans-Serif" font-weight="bold" font-size="14.00">DashboardService</text>
<polygon fill="#fffde7" stroke="transparent" points="786,-79.5 786,-95.5 1063,-95.5 1063,-79.5 786,-79.5"/>
<text text-anchor="start" x="908.5" y="-85.3" font-family="Helvetica,sans-Serif" font-size="9.00" fill="#666666">service</text>
<text text-anchor="start" x="789" y="-68.5" font-family="Helvetica,sans-Serif" font-size="10.00"> </text>
<text text-anchor="start" x="789" y="-51.5" font-family="Helvetica,sans-Serif" font-size="10.00">+ getSummary(email: String): DashboardSummaryDTO</text>
<polygon fill="black" stroke="black" points="785,-79.5 785,-79.5 1064,-79.5 1064,-79.5 785,-79.5"/>
<polygon fill="black" stroke="black" points="785,-62.5 785,-62.5 1064,-62.5 1064,-62.5 785,-62.5"/>
<polygon fill="none" stroke="black" points="784.5,-44.5 784.5,-134.5 1063.5,-134.5 1063.5,-44.5 784.5,-44.5"/>
</g>
<!-- svc_impl&#45;&gt;dash -->
<g id="edge3" class="edge">
<title>svc_impl&#45;&gt;dash</title>
<path fill="none" stroke="#444444" d="M907.96,-240.76C911.08,-211.52 914.73,-177.31 917.76,-148.92"/>
<polygon fill="#444444" stroke="#444444" points="918.85,-138.75 922.26,-149.17 918.32,-143.72 917.79,-148.69 917.79,-148.69 917.79,-148.69 918.32,-143.72 913.31,-148.21 918.85,-138.75 918.85,-138.75"/>
<text text-anchor="middle" x="950" y="-200" font-family="Helvetica,sans-Serif" font-size="10.00" fill="#444444">fetches context</text>
</g>
<!-- openai -->
<g id="node7" class="node">
<title>openai</title>
<polygon fill="#e3f2fd" stroke="transparent" points="1119.5,-19 1119.5,-160 1334.5,-160 1334.5,-19 1119.5,-19"/>
<polygon fill="#90caf9" stroke="transparent" points="1121,-141.5 1121,-158.5 1334,-158.5 1334,-141.5 1121,-141.5"/>
<text text-anchor="start" x="1201" y="-148.5" font-family="Helvetica,sans-Serif" font-style="italic" font-size="10.00">«external»</text>
<polygon fill="#e3f2fd" stroke="transparent" points="1121,-120.5 1121,-141.5 1334,-141.5 1334,-120.5 1121,-120.5"/>
<text text-anchor="start" x="1127" y="-128.3" font-family="Helvetica,sans-Serif" font-weight="bold" font-size="14.00">OpenAI Chat Completions</text>
<polygon fill="#e3f2fd" stroke="transparent" points="1121,-104.5 1121,-120.5 1334,-120.5 1334,-104.5 1121,-104.5"/>
<text text-anchor="start" x="1145" y="-110.3" font-family="Helvetica,sans-Serif" font-size="9.00" fill="#666666">api.openai.com/v1/chat/completions</text>
<text text-anchor="start" x="1124" y="-93.5" font-family="Helvetica,sans-Serif" font-size="10.00">POST /v1/chat/completions</text>
<text text-anchor="start" x="1124" y="-76.5" font-family="Helvetica,sans-Serif" font-size="10.00">Authorization: Bearer ${openai.api.key}</text>
<text text-anchor="start" x="1124" y="-59.5" font-family="Helvetica,sans-Serif" font-size="10.00">model: gpt&#45;4o&#45;mini</text>
<text text-anchor="start" x="1124" y="-42.5" font-family="Helvetica,sans-Serif" font-size="10.00">temperature: 0.4</text>
<text text-anchor="start" x="1124" y="-25.5" font-family="Helvetica,sans-Serif" font-size="10.00">+ chat(system: String, user: String): String</text>
<polygon fill="black" stroke="black" points="1120,-104.5 1120,-104.5 1335,-104.5 1335,-104.5 1120,-104.5"/>
<polygon fill="black" stroke="black" points="1120,-36.5 1120,-36.5 1335,-36.5 1335,-36.5 1120,-36.5"/>
<polygon fill="none" stroke="black" points="1119.5,-19 1119.5,-160 1334.5,-160 1334.5,-19 1119.5,-19"/>
</g>
<!-- svc_impl&#45;&gt;openai -->
<g id="edge4" class="edge">
<title>svc_impl&#45;&gt;openai</title>
<path fill="none" stroke="#1976d2" stroke-dasharray="1,5" d="M999.7,-240.76C1033.61,-218.34 1071.96,-192.99 1107.36,-169.59"/>
<polygon fill="#1976d2" stroke="#1976d2" points="1115.81,-164 1109.95,-173.27 1111.64,-166.76 1107.47,-169.52 1107.47,-169.52 1107.47,-169.52 1111.64,-166.76 1104.99,-165.76 1115.81,-164 1115.81,-164"/>
<text text-anchor="middle" x="1094.5" y="-200" font-family="Helvetica,sans-Serif" font-size="10.00" fill="#1976d2">HTTPS POST</text>
</g>
</g>
</svg>
