<?xml version="1.0" encoding="UTF-8" standalone="no"?>
<!DOCTYPE svg PUBLIC "-//W3C//DTD SVG 1.1//EN"
 "http://www.w3.org/Graphics/SVG/1.1/DTD/svg11.dtd">
<!-- Generated by graphviz version 2.43.0 (0)
 -->
<!-- Title: %3 Pages: 1 -->
<svg width="3078pt" height="2760pt"
 viewBox="0.00 0.00 1231.00 1104.00" xmlns="http://www.w3.org/2000/svg" xmlns:xlink="http://www.w3.org/1999/xlink">
<g id="graph0" class="graph" transform="scale(2.5 2.5) rotate(0) translate(4 1100)">
<title>%3</title>
<polygon fill="white" stroke="transparent" points="-4,4 -4,-1100 1227,-1100 1227,4 -4,4"/>
<text text-anchor="middle" x="611.5" y="-1080.8" font-family="Helvetica,sans-Serif" font-size="14.00">FMS — Expense Management (class diagram)</text>
<g id="clust1" class="cluster">
<title>cluster_com</title>
<path fill="none" stroke="#333333" stroke-width="1.2" d="M20,-8C20,-8 1203,-8 1203,-8 1209,-8 1215,-14 1215,-20 1215,-20 1215,-1053 1215,-1053 1215,-1059 1209,-1065 1203,-1065 1203,-1065 20,-1065 20,-1065 14,-1065 8,-1059 8,-1053 8,-1053 8,-20 8,-20 8,-14 14,-8 20,-8"/>
<text text-anchor="middle" x="30" y="-1051.4" font-family="Helvetica,sans-Serif" font-weight="bold" font-size="12.00">com</text>
</g>
<g id="clust2" class="cluster">
<title>cluster_fms</title>
<path fill="none" stroke="#333333" stroke-width="1.2" d="M28,-16C28,-16 1195,-16 1195,-16 1201,-16 1207,-22 1207,-28 1207,-28 1207,-1024 1207,-1024 1207,-1030 1201,-1036 1195,-1036 1195,-1036 28,-1036 28,-1036 22,-1036 16,-1030 16,-1024 16,-1024 16,-28 16,-28 16,-22 22,-16 28,-16"/>
<text text-anchor="middle" x="37" y="-1022.4" font-family="Helvetica,sans-Serif" font-weight="bold" font-size="12.00">fms</text>
</g>
<g id="clust3" class="cluster">
<title>cluster_expense</title>
<path fill="none" stroke="#333333" stroke-width="1.2" d="M36,-24C36,-24 1187,-24 1187,-24 1193,-24 1199,-30 1199,-36 1199,-36 1199,-995 1199,-995 1199,-1001 1193,-1007 1187,-1007 1187,-1007 36,-1007 36,-1007 30,-1007 24,-1001 24,-995 24,-995 24,-36 24,-36 24,-30 30,-24 36,-24"/>
<text text-anchor="middle" x="60.5" y="-993.4" font-family="Helvetica,sans-Serif" font-weight="bold" font-size="12.00">expense</text>
</g>
<!-- ctrl -->
<g id="node1" class="node">
<title>ctrl</title>
<polygon fill="#fffde7" stroke="transparent" points="711,-816 711,-957 1069,-957 1069,-816 711,-816"/>
<polygon fill="#fff59d" stroke="transparent" points="712,-938.5 712,-955.5 1068,-955.5 1068,-938.5 712,-938.5"/>
<text text-anchor="start" x="858.5" y="-945.5" font-family="Helvetica,sans-Serif" font-style="italic" font-size="10.00">«Java Class»</text>
<polygon fill="#fffde7" stroke="transparent" points="712,-917.5 712,-938.5 1068,-938.5 1068,-917.5 712,-917.5"/>
<text text-anchor="start" x="817.5" y="-925.3" font-family="Helvetica,sans-Serif" font-weight="bold" font-size="14.00">ExpenseController</text>
<polygon fill="#fffde7" stroke="transparent" points="712,-901.5 712,-917.5 1068,-917.5 1068,-901.5 712,-901.5"/>
<text text-anchor="start" x="868.5" y="-907.3" font-family="Helvetica,sans-Serif" font-size="9.00" fill="#666666">controller</text>
<text text-anchor="start" x="715" y="-890.5" font-family="Helvetica,sans-Serif" font-size="10.00">&#45; expenseService: ExpenseService</text>
<text text-anchor="start" x="715" y="-873.5" font-family="Helvetica,sans-Serif" font-size="10.00">+ getAll(email: String): ResponseEntity&lt;List&lt;ExpenseDTO&gt;&gt;</text>
<text text-anchor="start" x="715" y="-856.5" font-family="Helvetica,sans-Serif" font-size="10.00">+ add(email: String, dto: ExpenseDTO): ResponseEntity&lt;ExpenseDTO&gt;</text>
<text text-anchor="start" x="715" y="-839.5" font-family="Helvetica,sans-Serif" font-size="10.00">+ update(id: Long, dto: ExpenseDTO): ResponseEntity&lt;ExpenseDTO&gt;</text>
<text text-anchor="start" x="715" y="-822.5" font-family="Helvetica,sans-Serif" font-size="10.00">+ delete(id: Long): ResponseEntity&lt;Void&gt;</text>
<polygon fill="black" stroke="black" points="711,-901.5 711,-901.5 1069,-901.5 1069,-901.5 711,-901.5"/>
<polygon fill="black" stroke="black" points="711,-884.5 711,-884.5 1069,-884.5 1069,-884.5 711,-884.5"/>
<polygon fill="none" stroke="black" points="711,-816 711,-957 1069,-957 1069,-816 711,-816"/>
</g>
<!-- svc_if -->
<g id="node2" class="node">
<title>svc_if</title>
<polygon fill="#fffde7" stroke="transparent" points="643,-547.5 643,-688.5 909,-688.5 909,-547.5 643,-547.5"/>
<polygon fill="#ffe082" stroke="transparent" points="644,-670 644,-687 908,-687 908,-670 644,-670"/>
<text text-anchor="start" x="736" y="-677" font-family="Helvetica,sans-Serif" font-style="italic" font-size="10.00">«Java Interface»</text>
<polygon fill="#fffde7" stroke="transparent" points="644,-649 644,-670 908,-670 908,-649 644,-649"/>
<text text-anchor="start" x="714" y="-656.8" font-family="Helvetica,sans-Serif" font-weight="bold" font-size="14.00">ExpenseService</text>
<polygon fill="#fffde7" stroke="transparent" points="644,-633 644,-649 908,-649 908,-633 644,-633"/>
<text text-anchor="start" x="760" y="-638.8" font-family="Helvetica,sans-Serif" font-size="9.00" fill="#666666">service</text>
<text text-anchor="start" x="647" y="-622" font-family="Helvetica,sans-Serif" font-size="10.00"> </text>
<text text-anchor="start" x="647" y="-605" font-family="Helvetica,sans-Serif" font-size="10.00">+ getAllByUser(email: String): List&lt;ExpenseDTO&gt;</text>
<text text-anchor="start" x="647" y="-588" font-family="Helvetica,sans-Serif" font-size="10.00">+ add(email: String, dto: ExpenseDTO): ExpenseDTO</text>
<text text-anchor="start" x="647" y="-571" font-family="Helvetica,sans-Serif" font-size="10.00">+ update(id: Long, dto: ExpenseDTO): ExpenseDTO</text>
<text text-anchor="start" x="647" y="-554" font-family="Helvetica,sans-Serif" font-size="10.00">+ delete(id: Long): void</text>
<polygon fill="black" stroke="black" points="643,-633 643,-633 909,-633 909,-633 643,-633"/>
<polygon fill="black" stroke="black" points="643,-616 643,-616 909,-616 909,-616 643,-616"/>
<polygon fill="none" stroke="black" points="643,-547.5 643,-688.5 909,-688.5 909,-547.5 643,-547.5"/>
</g>
<!-- ctrl&#45;&gt;svc_if -->
<g id="edge1" class="edge">
<title>ctrl&#45;&gt;svc_if</title>
<path fill="none" stroke="#444444" d="M858.55,-811.97C843.97,-777.89 826.58,-737.23 811.52,-702.04"/>
<polygon fill="#444444" stroke="#444444" points="807.55,-692.75 815.62,-700.17 809.51,-697.35 811.48,-701.94 811.48,-701.94 811.48,-701.94 809.51,-697.35 807.34,-703.71 807.55,-692.75 807.55,-692.75"/>
<text text-anchor="middle" x="847.5" y="-754" font-family="Helvetica,sans-Serif" font-size="10.00" fill="#444444">uses</text>
</g>
<!-- dto -->
<g id="node8" class="node">
<title>dto</title>
<polygon fill="#fffde7" stroke="transparent" points="965,-522 965,-714 1183,-714 1183,-522 965,-522"/>
<polygon fill="#fff59d" stroke="transparent" points="966,-696 966,-713 1182,-713 1182,-696 966,-696"/>
<text text-anchor="start" x="1042.5" y="-703" font-family="Helvetica,sans-Serif" font-style="italic" font-size="10.00">«Java Class»</text>
<polygon fill="#fffde7" stroke="transparent" points="966,-675 966,-696 1182,-696 1182,-675 966,-675"/>
<text text-anchor="start" x="1024" y="-682.8" font-family="Helvetica,sans-Serif" font-weight="bold" font-size="14.00">ExpenseDTO</text>
<polygon fill="#fffde7" stroke="transparent" points="966,-659 966,-675 1182,-675 1182,-659 966,-659"/>
<text text-anchor="start" x="1066" y="-664.8" font-family="Helvetica,sans-Serif" font-size="9.00" fill="#666666">dto</text>
<text text-anchor="start" x="969" y="-648" font-family="Helvetica,sans-Serif" font-size="10.00">&#45; id: Long</text>
<text text-anchor="start" x="969" y="-631" font-family="Helvetica,sans-Serif" font-size="10.00">&#45; amount: BigDecimal &#160;@DecimalMin(0.01)</text>
<text text-anchor="start" x="969" y="-614" font-family="Helvetica,sans-Serif" font-size="10.00">&#45; category: String &#160;@NotBlank</text>
<text text-anchor="start" x="969" y="-597" font-family="Helvetica,sans-Serif" font-size="10.00">&#45; expenseType: ExpenseType</text>
<text text-anchor="start" x="969" y="-580" font-family="Helvetica,sans-Serif" font-size="10.00">&#45; necessity: Necessity</text>
<text text-anchor="start" x="969" y="-563" font-family="Helvetica,sans-Serif" font-size="10.00">&#45; date: LocalDate</text>
<text text-anchor="start" x="969" y="-546" font-family="Helvetica,sans-Serif" font-size="10.00">&#45; description: String</text>
<text text-anchor="start" x="969" y="-529" font-family="Helvetica,sans-Serif" font-size="10.00"> </text>
<polygon fill="black" stroke="black" points="965,-659 965,-659 1183,-659 1183,-659 965,-659"/>
<polygon fill="black" stroke="black" points="965,-540 965,-540 1183,-540 1183,-540 965,-540"/>
<polygon fill="none" stroke="black" points="965,-522 965,-714 1183,-714 1183,-522 965,-522"/>
</g>
<!-- ctrl&#45;&gt;dto -->
<g id="edge7" class="edge">
<title>ctrl&#45;&gt;dto</title>
<path fill="none" stroke="#444444" stroke-dasharray="5,2" d="M940.77,-811.97C958.97,-785.61 979.88,-755.32 999.67,-726.66"/>
<polygon fill="#444444" stroke="#444444" points="1005.49,-718.23 1003.51,-729.01 1002.65,-722.34 999.81,-726.46 999.81,-726.46 999.81,-726.46 1002.65,-722.34 996.1,-723.9 1005.49,-718.23 1005.49,-718.23"/>
<text text-anchor="middle" x="1024.5" y="-754" font-family="Helvetica,sans-Serif" font-size="10.00" fill="#444444">receives / returns</text>
</g>
<!-- svc_impl -->
<g id="node3" class="node">
<title>svc_impl</title>
<polygon fill="#fffde7" stroke="transparent" points="239,-799 239,-974 505,-974 505,-799 239,-799"/>
<polygon fill="#fff59d" stroke="transparent" points="240,-955.5 240,-972.5 504,-972.5 504,-955.5 240,-955.5"/>
<text text-anchor="start" x="340.5" y="-962.5" font-family="Helvetica,sans-Serif" font-style="italic" font-size="10.00">«Java Class»</text>
<polygon fill="#fffde7" stroke="transparent" points="240,-934.5 240,-955.5 504,-955.5 504,-934.5 240,-934.5"/>
<text text-anchor="start" x="293" y="-942.3" font-family="Helvetica,sans-Serif" font-weight="bold" font-size="14.00">ExpenseServiceImpl</text>
<polygon fill="#fffde7" stroke="transparent" points="240,-918.5 240,-934.5 504,-934.5 504,-918.5 240,-918.5"/>
<text text-anchor="start" x="356" y="-924.3" font-family="Helvetica,sans-Serif" font-size="9.00" fill="#666666">service</text>
<text text-anchor="start" x="243" y="-907.5" font-family="Helvetica,sans-Serif" font-size="10.00">&#45; expenseRepository: ExpenseRepository</text>
<text text-anchor="start" x="243" y="-890.5" font-family="Helvetica,sans-Serif" font-size="10.00">&#45; userRepository: UserRepository</text>
<text text-anchor="start" x="243" y="-873.5" font-family="Helvetica,sans-Serif" font-size="10.00">+ getAllByUser(email: String): List&lt;ExpenseDTO&gt;</text>
<text text-anchor="start" x="243" y="-856.5" font-family="Helvetica,sans-Serif" font-size="10.00">+ add(email: String, dto: ExpenseDTO): ExpenseDTO</text>
<text text-anchor="start" x="243" y="-839.5" font-family="Helvetica,sans-Serif" font-size="10.00">+ update(id: Long, dto: ExpenseDTO): ExpenseDTO</text>
<text text-anchor="start" x="243" y="-822.5" font-family="Helvetica,sans-Serif" font-size="10.00">+ delete(id: Long): void</text>
<text text-anchor="start" x="243" y="-805.5" font-family="Helvetica,sans-Serif" font-size="10.00">&#45; toDTO(expense: Expense): ExpenseDTO</text>
<polygon fill="black" stroke="black" points="239,-918.5 239,-918.5 505,-918.5 505,-918.5 239,-918.5"/>
<polygon fill="black" stroke="black" points="239,-884.5 239,-884.5 505,-884.5 505,-884.5 239,-884.5"/>
<polygon fill="none" stroke="black" points="239,-799 239,-974 505,-974 505,-799 239,-799"/>
</g>
<!-- svc_impl&#45;&gt;svc_if -->
<g id="edge2" class="edge">
<title>svc_impl&#45;&gt;svc_if</title>
<path fill="none" stroke="#444444" stroke-dasharray="5,2" d="M509.34,-794.9C556.93,-763.51 609.88,-728.58 655.97,-698.18"/>
<polygon fill="none" stroke="#444444" points="658.07,-700.99 664.49,-692.56 654.21,-695.14 658.07,-700.99"/>
<text text-anchor="middle" x="603.5" y="-754" font-family="Helvetica,sans-Serif" font-size="10.00" fill="#444444">implements</text>
</g>
<!-- repo -->
<g id="node4" class="node">
<title>repo</title>
<polygon fill="#fffde7" stroke="transparent" points="157.5,-564.5 157.5,-671.5 586.5,-671.5 586.5,-564.5 157.5,-564.5"/>
<polygon fill="#ffe082" stroke="transparent" points="159,-653 159,-670 586,-670 586,-653 159,-653"/>
<text text-anchor="start" x="332.5" y="-660" font-family="Helvetica,sans-Serif" font-style="italic" font-size="10.00">«Java Interface»</text>
<polygon fill="#fffde7" stroke="transparent" points="159,-632 159,-653 586,-653 586,-632 159,-632"/>
<text text-anchor="start" x="297" y="-639.8" font-family="Helvetica,sans-Serif" font-weight="bold" font-size="14.00">ExpenseRepository</text>
<polygon fill="#fffde7" stroke="transparent" points="159,-616 159,-632 586,-632 586,-616 159,-616"/>
<text text-anchor="start" x="349.5" y="-621.8" font-family="Helvetica,sans-Serif" font-size="9.00" fill="#666666">repository</text>
<text text-anchor="start" x="162" y="-605" font-family="Helvetica,sans-Serif" font-size="10.00"> </text>
<text text-anchor="start" x="162" y="-588" font-family="Helvetica,sans-Serif" font-size="10.00">+ findByUserOrderByDateDesc(user: User): List&lt;Expense&gt;</text>
<text text-anchor="start" x="162" y="-571" font-family="Helvetica,sans-Serif" font-size="10.00">+ findByUserAndDateBetween(user: User, s: LocalDate, e: LocalDate): List&lt;Expense&gt;</text>
<polygon fill="black" stroke="black" points="158,-616 158,-616 587,-616 587,-616 158,-616"/>
<polygon fill="black" stroke="black" points="158,-599 158,-599 587,-599 587,-599 158,-599"/>
<polygon fill="none" stroke="black" points="157.5,-564.5 157.5,-671.5 586.5,-671.5 586.5,-564.5 157.5,-564.5"/>
</g>
<!-- svc_impl&#45;&gt;repo -->
<g id="edge3" class="edge">
<title>svc_impl&#45;&gt;repo</title>
<path fill="none" stroke="#444444" d="M372,-794.9C372,-759.08 372,-718.65 372,-685.59"/>
<polygon fill="#444444" stroke="#444444" points="372,-675.58 376.5,-685.58 372,-680.58 372,-685.58 372,-685.58 372,-685.58 372,-680.58 367.5,-685.58 372,-675.58 372,-675.58"/>
<text text-anchor="middle" x="383.5" y="-754" font-family="Helvetica,sans-Serif" font-size="10.00" fill="#444444">uses</text>
</g>
<!-- ent -->
<g id="node5" class="node">
<title>ent</title>
<polygon fill="#fffde7" stroke="transparent" points="69.5,-228 69.5,-437 218.5,-437 218.5,-228 69.5,-228"/>
<polygon fill="#fff59d" stroke="transparent" points="71,-418.5 71,-435.5 218,-435.5 218,-418.5 71,-418.5"/>
<text text-anchor="start" x="113" y="-425.5" font-family="Helvetica,sans-Serif" font-style="italic" font-size="10.00">«Java Class»</text>
<polygon fill="#fffde7" stroke="transparent" points="71,-397.5 71,-418.5 218,-418.5 218,-397.5 71,-397.5"/>
<text text-anchor="start" x="111" y="-405.3" font-family="Helvetica,sans-Serif" font-weight="bold" font-size="14.00">Expense</text>
<polygon fill="#fffde7" stroke="transparent" points="71,-381.5 71,-397.5 218,-397.5 218,-381.5 71,-381.5"/>
<text text-anchor="start" x="130.5" y="-387.3" font-family="Helvetica,sans-Serif" font-size="9.00" fill="#666666">model</text>
<text text-anchor="start" x="74" y="-370.5" font-family="Helvetica,sans-Serif" font-size="10.00">&#45; id: Long</text>
<text text-anchor="start" x="74" y="-353.5" font-family="Helvetica,sans-Serif" font-size="10.00">&#45; user: User</text>
<text text-anchor="start" x="74" y="-336.5" font-family="Helvetica,sans-Serif" font-size="10.00">&#45; amount: BigDecimal</text>
<text text-anchor="start" x="74" y="-319.5" font-family="Helvetica,sans-Serif" font-size="10.00">&#45; category: String</text>
<text text-anchor="start" x="74" y="-302.5" font-family="Helvetica,sans-Serif" font-size="10.00">&#45; expenseType: ExpenseType</text>
<text text-anchor="start" x="74" y="-285.5" font-family="Helvetica,sans-Serif" font-size="10.00">&#45; necessity: Necessity</text>
<text text-anchor="start" x="74" y="-268.5" font-family="Helvetica,sans-Serif" font-size="10.00">&#45; date: LocalDate</text>
<text text-anchor="start" x="74" y="-251.5" font-family="Helvetica,sans-Serif" font-size="10.00">&#45; description: String</text>
<text text-anchor="start" x="74" y="-234.5" font-family="Helvetica,sans-Serif" font-size="10.00"> </text>
<polygon fill="black" stroke="black" points="70,-381.5 70,-381.5 219,-381.5 219,-381.5 70,-381.5"/>
<polygon fill="black" stroke="black" points="70,-245.5 70,-245.5 219,-245.5 219,-245.5 70,-245.5"/>
<polygon fill="none" stroke="black" points="69.5,-228 69.5,-437 218.5,-437 218.5,-228 69.5,-228"/>
</g>
<!-- svc_impl&#45;&gt;ent -->
<g id="edge8" class="edge">
<title>svc_impl&#45;&gt;ent</title>
<path fill="none" stroke="#444444" d="M230.94,-835.89C177.91,-809.56 123.19,-771.35 93,-718 47.02,-636.77 65.79,-530.78 92.66,-450.65"/>
<polygon fill="#444444" stroke="#444444" points="95.98,-441.01 96.98,-451.93 94.35,-445.74 92.73,-450.47 92.73,-450.47 92.73,-450.47 94.35,-445.74 88.47,-449.01 95.98,-441.01 95.98,-441.01"/>
<text text-anchor="middle" x="111.5" y="-615.5" font-family="Helvetica,sans-Serif" font-size="10.00" fill="#444444">creates</text>
</g>
<!-- repo&#45;&gt;ent -->
<g id="edge4" class="edge">
<title>repo&#45;&gt;ent</title>
<path fill="none" stroke="#444444" d="M326.41,-560.31C299.67,-527.06 264.96,-483.9 233,-444.16"/>
<polygon fill="#444444" stroke="#444444" points="226.65,-436.27 236.42,-441.24 229.78,-440.16 232.92,-444.06 232.92,-444.06 232.92,-444.06 229.78,-440.16 229.41,-446.88 226.65,-436.27 226.65,-436.27"/>
<text text-anchor="middle" x="283.5" y="-477" font-family="Helvetica,sans-Serif" font-size="10.00" fill="#444444">persists</text>
</g>
<!-- enum_type -->
<g id="node6" class="node">
<title>enum_type</title>
<polygon fill="#fffde7" stroke="transparent" points="67.5,-36 67.5,-143 178.5,-143 178.5,-36 67.5,-36"/>
<polygon fill="#fff59d" stroke="transparent" points="69,-124.5 69,-141.5 178,-141.5 178,-124.5 69,-124.5"/>
<text text-anchor="start" x="92" y="-131.5" font-family="Helvetica,sans-Serif" font-style="italic" font-size="10.00">«Java Class»</text>
<polygon fill="#fffde7" stroke="transparent" points="69,-103.5 69,-124.5 178,-124.5 178,-103.5 69,-103.5"/>
<text text-anchor="start" x="72" y="-111.3" font-family="Helvetica,sans-Serif" font-weight="bold" font-size="14.00">ExpenseType</text>
<polygon fill="#fffde7" stroke="transparent" points="69,-87.5 69,-103.5 178,-103.5 178,-87.5 69,-87.5"/>
<text text-anchor="start" x="109.5" y="-93.3" font-family="Helvetica,sans-Serif" font-size="9.00" fill="#666666">model</text>
<text text-anchor="start" x="72" y="-76.5" font-family="Helvetica,sans-Serif" font-size="10.00">ONE_TIME</text>
<text text-anchor="start" x="72" y="-59.5" font-family="Helvetica,sans-Serif" font-size="10.00">RECURRING</text>
<text text-anchor="start" x="72" y="-42.5" font-family="Helvetica,sans-Serif" font-size="10.00"> </text>
<polygon fill="black" stroke="black" points="68,-87.5 68,-87.5 179,-87.5 179,-87.5 68,-87.5"/>
<polygon fill="black" stroke="black" points="68,-53.5 68,-53.5 179,-53.5 179,-53.5 68,-53.5"/>
<polygon fill="none" stroke="black" points="67.5,-36 67.5,-143 178.5,-143 178.5,-36 67.5,-36"/>
</g>
<!-- ent&#45;&gt;enum_type -->
<g id="edge5" class="edge">
<title>ent&#45;&gt;enum_type</title>
<path fill="none" stroke="#444444" stroke-dasharray="5,2" d="M134.61,-223.69C132.63,-201.07 130.61,-177.84 128.82,-157.25"/>
<polygon fill="#444444" stroke="#444444" points="127.93,-147.05 133.28,-156.63 128.36,-152.03 128.8,-157.02 128.8,-157.02 128.8,-157.02 128.36,-152.03 124.31,-157.41 127.93,-147.05 127.93,-147.05"/>
<text text-anchor="middle" x="152.5" y="-183" font-family="Helvetica,sans-Serif" font-size="10.00" fill="#444444">typed by</text>
</g>
<!-- enum_nec -->
<g id="node7" class="node">
<title>enum_nec</title>
<polygon fill="#fffde7" stroke="transparent" points="234.5,-36 234.5,-143 319.5,-143 319.5,-36 234.5,-36"/>
<polygon fill="#fff59d" stroke="transparent" points="236,-124.5 236,-141.5 319,-141.5 319,-124.5 236,-124.5"/>
<text text-anchor="start" x="246" y="-131.5" font-family="Helvetica,sans-Serif" font-style="italic" font-size="10.00">«Java Class»</text>
<polygon fill="#fffde7" stroke="transparent" points="236,-103.5 236,-124.5 319,-124.5 319,-103.5 236,-103.5"/>
<text text-anchor="start" x="239" y="-111.3" font-family="Helvetica,sans-Serif" font-weight="bold" font-size="14.00">Necessity</text>
<polygon fill="#fffde7" stroke="transparent" points="236,-87.5 236,-103.5 319,-103.5 319,-87.5 236,-87.5"/>
<text text-anchor="start" x="263.5" y="-93.3" font-family="Helvetica,sans-Serif" font-size="9.00" fill="#666666">model</text>
<text text-anchor="start" x="239" y="-76.5" font-family="Helvetica,sans-Serif" font-size="10.00">NEED</text>
<text text-anchor="start" x="239" y="-59.5" font-family="Helvetica,sans-Serif" font-size="10.00">WANT</text>
<text text-anchor="start" x="239" y="-42.5" font-family="Helvetica,sans-Serif" font-size="10.00"> </text>
<polygon fill="black" stroke="black" points="235,-87.5 235,-87.5 320,-87.5 320,-87.5 235,-87.5"/>
<polygon fill="black" stroke="black" points="235,-53.5 235,-53.5 320,-53.5 320,-53.5 235,-53.5"/>
<polygon fill="none" stroke="black" points="234.5,-36 234.5,-143 319.5,-143 319.5,-36 234.5,-36"/>
</g>
<!-- ent&#45;&gt;enum_nec -->
<g id="edge6" class="edge">
<title>ent&#45;&gt;enum_nec</title>
<path fill="none" stroke="#444444" stroke-dasharray="5,2" d="M203.5,-223.69C216.27,-200.55 229.38,-176.78 240.94,-155.84"/>
<polygon fill="#444444" stroke="#444444" points="245.79,-147.05 244.9,-157.98 243.37,-151.43 240.96,-155.81 240.96,-155.81 240.96,-155.81 243.37,-151.43 237.02,-153.63 245.79,-147.05 245.79,-147.05"/>
<text text-anchor="middle" x="247.5" y="-183" font-family="Helvetica,sans-Serif" font-size="10.00" fill="#444444">typed by</text>
</g>
</g>
</svg>
