<?xml version="1.0" encoding="UTF-8" standalone="no"?>
<!DOCTYPE svg PUBLIC "-//W3C//DTD SVG 1.1//EN"
 "http://www.w3.org/Graphics/SVG/1.1/DTD/svg11.dtd">
<!-- Generated by graphviz version 2.43.0 (0)
 -->
<!-- Title: %3 Pages: 1 -->
<svg width="2520pt" height="3496pt"
 viewBox="0.00 0.00 1008.00 1398.22" xmlns="http://www.w3.org/2000/svg" xmlns:xlink="http://www.w3.org/1999/xlink">
<g id="graph0" class="graph" transform="scale(1.82 1.82) rotate(0) translate(4 1913)">
<title>%3</title>
<polygon fill="white" stroke="transparent" points="-4,4 -4,-1913 1378,-1913 1378,4 -4,4"/>
<text text-anchor="middle" x="687" y="-1890.6" font-family="Helvetica,sans-Serif" font-size="18.00">Financial Management System — Class Diagram (Domain Model)</text>
<text text-anchor="middle" x="687" y="-1870.6" font-family="Helvetica,sans-Serif" font-size="18.00">CS 5394 Group 2 · Aakriti Dhakal · Agnes Jesionowska · Manoj Khanal</text>
<g id="clust1" class="cluster">
<title>cluster_entities</title>
<polygon fill="#f4f8fc" stroke="#4a6fa5" points="648,-285 648,-1400 930,-1400 930,-285 648,-285"/>
<text text-anchor="middle" x="789" y="-1384.8" font-family="Helvetica,sans-Serif" font-weight="bold" font-size="14.00">Domain Entities &#160;(com.fms.model)</text>
</g>
<g id="clust2" class="cluster">
<title>cluster_auth</title>
<polygon fill="#fff3e0" stroke="#e65100" points="938,-8 938,-1823 1160,-1823 1160,-8 938,-8"/>
<text text-anchor="middle" x="1049" y="-1807.8" font-family="Helvetica,sans-Serif" font-weight="bold" font-size="14.00">Authentication DTOs</text>
</g>
<g id="clust3" class="cluster">
<title>cluster_tx</title>
<polygon fill="#fffde7" stroke="#f9a825" points="8,-861 8,-1853 249,-1853 249,-861 8,-861"/>
<text text-anchor="middle" x="128.5" y="-1837.8" font-family="Helvetica,sans-Serif" font-weight="bold" font-size="14.00">Transactional DTOs</text>
</g>
<g id="clust4" class="cluster">
<title>cluster_analytics</title>
<polygon fill="#e3f2fd" stroke="#1565c0" points="257,-583 257,-1833 543,-1833 543,-583 257,-583"/>
<text text-anchor="middle" x="400" y="-1817.8" font-family="Helvetica,sans-Serif" font-weight="bold" font-size="14.00">Analytical / Calculation DTOs</text>
</g>
<g id="clust5" class="cluster">
<title>cluster_ai</title>
<polygon fill="#fce4ec" stroke="#ad1457" points="1168,-901 1168,-1833 1366,-1833 1366,-901 1168,-901"/>
<text text-anchor="middle" x="1267" y="-1817.8" font-family="Helvetica,sans-Serif" font-weight="bold" font-size="14.00">AI Advisor DTOs</text>
</g>
<!-- User -->
<g id="node1" class="node">
<title>User</title>
<polygon fill="#e8f5e9" stroke="transparent" points="675.5,-1127 675.5,-1369 866.5,-1369 866.5,-1127 675.5,-1127"/>
<polygon fill="#a5d6a7" stroke="transparent" points="677,-1348 677,-1368 866,-1368 866,-1348 677,-1348"/>
<text text-anchor="start" x="742.5" y="-1356.2" font-family="Helvetica,sans-Serif" font-style="italic" font-size="11.00">«@Entity»</text>
<polygon fill="#e8f5e9" stroke="transparent" points="677,-1328 677,-1348 866,-1348 866,-1328 677,-1328"/>
<text text-anchor="start" x="757" y="-1336.2" font-family="Helvetica,sans-Serif" font-weight="bold" font-size="11.00">User</text>
<text text-anchor="start" x="681" y="-1315.2" font-family="Helvetica,sans-Serif" font-size="11.00">&#45; id : Long</text>
<text text-anchor="start" x="681" y="-1295.2" font-family="Helvetica,sans-Serif" font-size="11.00">&#45; firstName : String</text>
<text text-anchor="start" x="681" y="-1275.2" font-family="Helvetica,sans-Serif" font-size="11.00">&#45; lastName : String</text>
<text text-anchor="start" x="681" y="-1255.2" font-family="Helvetica,sans-Serif" font-size="11.00">&#45; email : String &#160;{unique}</text>
<text text-anchor="start" x="681" y="-1235.2" font-family="Helvetica,sans-Serif" font-size="11.00">&#45; passwordHash : String</text>
<text text-anchor="start" x="681" y="-1215.2" font-family="Helvetica,sans-Serif" font-size="11.00">&#45; createdAt : LocalDateTime</text>
<text text-anchor="start" x="681" y="-1195.2" font-family="Helvetica,sans-Serif" font-size="11.00">+ getId() : Long</text>
<text text-anchor="start" x="681" y="-1175.2" font-family="Helvetica,sans-Serif" font-size="11.00">+ getEmail() : String</text>
<text text-anchor="start" x="681" y="-1155.2" font-family="Helvetica,sans-Serif" font-size="11.00">+ getFullName() : String</text>
<text text-anchor="start" x="681" y="-1135.2" font-family="Helvetica,sans-Serif" font-size="11.00"># onCreate() : void &#160;@PrePersist</text>
<polygon fill="black" stroke="black" points="676,-1328 676,-1328 867,-1328 867,-1328 676,-1328"/>
<polygon fill="black" stroke="black" points="676,-1208 676,-1208 867,-1208 867,-1208 676,-1208"/>
<polygon fill="none" stroke="black" points="675.5,-1127 675.5,-1369 866.5,-1369 866.5,-1127 675.5,-1127"/>
</g>
<!-- Income -->
<g id="node2" class="node">
<title>Income</title>
<polygon fill="#e8f5e9" stroke="transparent" points="725,-571 725,-773 891,-773 891,-571 725,-571"/>
<polygon fill="#a5d6a7" stroke="transparent" points="726,-752 726,-772 890,-772 890,-752 726,-752"/>
<text text-anchor="start" x="779" y="-760.2" font-family="Helvetica,sans-Serif" font-style="italic" font-size="11.00">«@Entity»</text>
<polygon fill="#e8f5e9" stroke="transparent" points="726,-732 726,-752 890,-752 890,-732 726,-732"/>
<text text-anchor="start" x="785.5" y="-740.2" font-family="Helvetica,sans-Serif" font-weight="bold" font-size="11.00">Income</text>
<text text-anchor="start" x="730" y="-719.2" font-family="Helvetica,sans-Serif" font-size="11.00">&#45; id : Long</text>
<text text-anchor="start" x="730" y="-699.2" font-family="Helvetica,sans-Serif" font-size="11.00">&#45; amount : BigDecimal</text>
<text text-anchor="start" x="730" y="-679.2" font-family="Helvetica,sans-Serif" font-size="11.00">&#45; source : String</text>
<text text-anchor="start" x="730" y="-659.2" font-family="Helvetica,sans-Serif" font-size="11.00">&#45; date : LocalDate</text>
<text text-anchor="start" x="730" y="-639.2" font-family="Helvetica,sans-Serif" font-size="11.00">&#45; description : String</text>
<text text-anchor="start" x="730" y="-619.2" font-family="Helvetica,sans-Serif" font-size="11.00">+ getAmount() : BigDecimal</text>
<text text-anchor="start" x="730" y="-599.2" font-family="Helvetica,sans-Serif" font-size="11.00">+ getSource() : String</text>
<text text-anchor="start" x="730" y="-579.2" font-family="Helvetica,sans-Serif" font-size="11.00">+ getDate() : LocalDate</text>
<polygon fill="black" stroke="black" points="725,-732 725,-732 891,-732 891,-732 725,-732"/>
<polygon fill="black" stroke="black" points="725,-632 725,-632 891,-632 891,-632 725,-632"/>
<polygon fill="none" stroke="black" points="725,-571 725,-773 891,-773 891,-571 725,-571"/>
</g>
<!-- User&#45;&gt;Income -->
<g id="edge1" class="edge">
<title>User&#45;&gt;Income</title>
<path fill="none" stroke="#2e7d32" stroke-width="1.1" d="M869.63,-1118.07C873.25,-1110.15 876.43,-1102.11 879,-1094 917.72,-972 910.07,-930.17 879,-806 876.27,-795.08 872.45,-784.08 867.99,-773.33"/>
<polygon fill="#2e7d32" stroke="#2e7d32" stroke-width="1.1" points="869.52,-1118.3 870.32,-1124.01 865.35,-1126.94 864.55,-1121.23 869.52,-1118.3"/>
<text text-anchor="middle" x="858.99" y="-776.33" font-family="Helvetica,sans-Serif" font-size="10.00">1..*</text>
<text text-anchor="middle" x="861.85" y="-1118.94" font-family="Helvetica,sans-Serif" font-size="10.00">1</text>
</g>
<!-- Expense -->
<g id="node3" class="node">
<title>Expense</title>
<polygon fill="#e8f5e9" stroke="transparent" points="688,-849 688,-1051 854,-1051 854,-849 688,-849"/>
<polygon fill="#a5d6a7" stroke="transparent" points="689,-1030 689,-1050 853,-1050 853,-1030 689,-1030"/>
<text text-anchor="start" x="742" y="-1038.2" font-family="Helvetica,sans-Serif" font-style="italic" font-size="11.00">«@Entity»</text>
<polygon fill="#e8f5e9" stroke="transparent" points="689,-1010 689,-1030 853,-1030 853,-1010 689,-1010"/>
<text text-anchor="start" x="745" y="-1018.2" font-family="Helvetica,sans-Serif" font-weight="bold" font-size="11.00">Expense</text>
<text text-anchor="start" x="693" y="-997.2" font-family="Helvetica,sans-Serif" font-size="11.00">&#45; id : Long</text>
<text text-anchor="start" x="693" y="-977.2" font-family="Helvetica,sans-Serif" font-size="11.00">&#45; amount : BigDecimal</text>
<text text-anchor="start" x="693" y="-957.2" font-family="Helvetica,sans-Serif" font-size="11.00">&#45; category : String</text>
<text text-anchor="start" x="693" y="-937.2" font-family="Helvetica,sans-Serif" font-size="11.00">&#45; date : LocalDate</text>
<text text-anchor="start" x="693" y="-917.2" font-family="Helvetica,sans-Serif" font-size="11.00">&#45; description : String</text>
<text text-anchor="start" x="693" y="-897.2" font-family="Helvetica,sans-Serif" font-size="11.00">+ getAmount() : BigDecimal</text>
<text text-anchor="start" x="693" y="-877.2" font-family="Helvetica,sans-Serif" font-size="11.00">+ getCategory() : String</text>
<text text-anchor="start" x="693" y="-857.2" font-family="Helvetica,sans-Serif" font-size="11.00">+ getDate() : LocalDate</text>
<polygon fill="black" stroke="black" points="688,-1010 688,-1010 854,-1010 854,-1010 688,-1010"/>
<polygon fill="black" stroke="black" points="688,-910 688,-910 854,-910 854,-910 688,-910"/>
<polygon fill="none" stroke="black" points="688,-849 688,-1051 854,-1051 854,-849 688,-849"/>
</g>
<!-- User&#45;&gt;Expense -->
<g id="edge2" class="edge">
<title>User&#45;&gt;Expense</title>
<path fill="none" stroke="#2e7d32" stroke-width="1.1" d="M760.57,-1116.9C760.4,-1094.95 760.54,-1072.47 761,-1051.42"/>
<polygon fill="#2e7d32" stroke="#2e7d32" stroke-width="1.1" points="760.57,-1117.01 763.82,-1121.77 760.66,-1126.61 757.42,-1121.84 760.57,-1117.01"/>
<text text-anchor="middle" x="752" y="-1054.42" font-family="Helvetica,sans-Serif" font-size="10.00">1..*</text>
<text text-anchor="middle" x="757.16" y="-1118.61" font-family="Helvetica,sans-Serif" font-size="10.00">1</text>
</g>
<!-- User&#45;&gt;Expense -->
<!-- TuitionPlan -->
<g id="node4" class="node">
<title>TuitionPlan</title>
<polygon fill="#e8f5e9" stroke="transparent" points="706.5,-293 706.5,-495 921.5,-495 921.5,-293 706.5,-293"/>
<polygon fill="#a5d6a7" stroke="transparent" points="708,-474 708,-494 921,-494 921,-474 708,-474"/>
<text text-anchor="start" x="785.5" y="-482.2" font-family="Helvetica,sans-Serif" font-style="italic" font-size="11.00">«@Entity»</text>
<polygon fill="#e8f5e9" stroke="transparent" points="708,-454 708,-474 921,-474 921,-454 708,-454"/>
<text text-anchor="start" x="780" y="-462.2" font-family="Helvetica,sans-Serif" font-weight="bold" font-size="11.00">TuitionPlan</text>
<text text-anchor="start" x="712" y="-441.2" font-family="Helvetica,sans-Serif" font-size="11.00">&#45; id : Long</text>
<text text-anchor="start" x="712" y="-421.2" font-family="Helvetica,sans-Serif" font-size="11.00">&#45; tuitionPerCourse : BigDecimal</text>
<text text-anchor="start" x="712" y="-401.2" font-family="Helvetica,sans-Serif" font-size="11.00">&#45; numberOfCourses : Integer</text>
<text text-anchor="start" x="712" y="-381.2" font-family="Helvetica,sans-Serif" font-size="11.00">&#45; scholarshipAmount : BigDecimal</text>
<text text-anchor="start" x="712" y="-361.2" font-family="Helvetica,sans-Serif" font-size="11.00">&#45; createdAt : LocalDateTime</text>
<text text-anchor="start" x="712" y="-341.2" font-family="Helvetica,sans-Serif" font-size="11.00">+ getTuitionPerCourse() : BigDecimal</text>
<text text-anchor="start" x="712" y="-321.2" font-family="Helvetica,sans-Serif" font-size="11.00">+ getNumberOfCourses() : Integer</text>
<text text-anchor="start" x="712" y="-301.2" font-family="Helvetica,sans-Serif" font-size="11.00"># onCreate() : void &#160;@PrePersist</text>
<polygon fill="black" stroke="black" points="707,-454 707,-454 922,-454 922,-454 707,-454"/>
<polygon fill="black" stroke="black" points="707,-354 707,-354 922,-354 922,-354 707,-354"/>
<polygon fill="none" stroke="black" points="706.5,-293 706.5,-495 921.5,-495 921.5,-293 706.5,-293"/>
</g>
<!-- User&#45;&gt;TuitionPlan -->
<g id="edge3" class="edge">
<title>User&#45;&gt;TuitionPlan</title>
<path fill="none" stroke="#2e7d32" stroke-width="1.1" d="M873.15,-1161.18C890.64,-1141.09 906.29,-1118.37 916,-1094 1002.08,-878.04 966.24,-795.55 906,-571 899.12,-545.36 888.06,-519.22 875.95,-495.2"/>
<polygon fill="#2e7d32" stroke="#2e7d32" stroke-width="1.1" points="873.03,-1161.31 872.21,-1167.02 866.63,-1168.46 867.44,-1162.75 873.03,-1161.31"/>
<text text-anchor="middle" x="866.95" y="-498.2" font-family="Helvetica,sans-Serif" font-size="10.00">1..*</text>
<text text-anchor="middle" x="870.13" y="-1171.46" font-family="Helvetica,sans-Serif" font-size="10.00">1</text>
</g>
<!-- Income&#45;&gt;TuitionPlan -->
<!-- RegisterRequest -->
<g id="node5" class="node">
<title>RegisterRequest</title>
<polygon fill="#ffe0b2" stroke="transparent" points="946,-16 946,-158 1152,-158 1152,-16 946,-16"/>
<polygon fill="#ffcc80" stroke="transparent" points="947,-137 947,-157 1151,-157 1151,-137 947,-137"/>
<text text-anchor="start" x="1030" y="-145.2" font-family="Helvetica,sans-Serif" font-style="italic" font-size="11.00">«DTO»</text>
<polygon fill="#ffe0b2" stroke="transparent" points="947,-117 947,-137 1151,-137 1151,-117 947,-117"/>
<text text-anchor="start" x="997.5" y="-125.2" font-family="Helvetica,sans-Serif" font-weight="bold" font-size="11.00">RegisterRequest</text>
<text text-anchor="start" x="951" y="-104.2" font-family="Helvetica,sans-Serif" font-size="11.00">+ firstName : String &#160;@NotBlank</text>
<text text-anchor="start" x="951" y="-84.2" font-family="Helvetica,sans-Serif" font-size="11.00">+ lastName : String &#160;@NotBlank</text>
<text text-anchor="start" x="951" y="-64.2" font-family="Helvetica,sans-Serif" font-size="11.00">+ email : String &#160;@Email</text>
<text text-anchor="start" x="951" y="-44.2" font-family="Helvetica,sans-Serif" font-size="11.00">+ password : String &#160;@Size(min=8)</text>
<text text-anchor="start" x="951" y="-24.2" font-family="Helvetica,sans-Serif" font-size="11.00"> </text>
<polygon fill="black" stroke="black" points="946,-117 946,-117 1152,-117 1152,-117 946,-117"/>
<polygon fill="black" stroke="black" points="946,-37 946,-37 1152,-37 1152,-37 946,-37"/>
<polygon fill="none" stroke="black" points="946,-16 946,-158 1152,-158 1152,-16 946,-16"/>
</g>
<!-- TuitionPlan&#45;&gt;RegisterRequest -->
<!-- LoginRequest -->
<g id="node6" class="node">
<title>LoginRequest</title>
<polygon fill="#ffe0b2" stroke="transparent" points="952,-1690 952,-1792 1140,-1792 1140,-1690 952,-1690"/>
<polygon fill="#ffcc80" stroke="transparent" points="953,-1771 953,-1791 1139,-1791 1139,-1771 953,-1771"/>
<text text-anchor="start" x="1027" y="-1779.2" font-family="Helvetica,sans-Serif" font-style="italic" font-size="11.00">«DTO»</text>
<polygon fill="#ffe0b2" stroke="transparent" points="953,-1751 953,-1771 1139,-1771 1139,-1751 953,-1751"/>
<text text-anchor="start" x="1004" y="-1759.2" font-family="Helvetica,sans-Serif" font-weight="bold" font-size="11.00">LoginRequest</text>
<text text-anchor="start" x="957" y="-1738.2" font-family="Helvetica,sans-Serif" font-size="11.00">+ email : String &#160;@Email</text>
<text text-anchor="start" x="957" y="-1718.2" font-family="Helvetica,sans-Serif" font-size="11.00">+ password : String &#160;@NotBlank</text>
<text text-anchor="start" x="957" y="-1698.2" font-family="Helvetica,sans-Serif" font-size="11.00"> </text>
<polygon fill="black" stroke="black" points="952,-1751 952,-1751 1140,-1751 1140,-1751 952,-1751"/>
<polygon fill="black" stroke="black" points="952,-1711 952,-1711 1140,-1711 1140,-1711 952,-1711"/>
<polygon fill="none" stroke="black" points="952,-1690 952,-1792 1140,-1792 1140,-1690 952,-1690"/>
</g>
<!-- AuthResponse -->
<g id="node7" class="node">
<title>AuthResponse</title>
<polygon fill="#ffe0b2" stroke="transparent" points="946.5,-1451 946.5,-1593 1067.5,-1593 1067.5,-1451 946.5,-1451"/>
<polygon fill="#ffcc80" stroke="transparent" points="948,-1572 948,-1592 1067,-1592 1067,-1572 948,-1572"/>
<text text-anchor="start" x="988.5" y="-1580.2" font-family="Helvetica,sans-Serif" font-style="italic" font-size="11.00">«DTO»</text>
<polygon fill="#ffe0b2" stroke="transparent" points="948,-1552 948,-1572 1067,-1572 1067,-1552 948,-1552"/>
<text text-anchor="start" x="963.5" y="-1560.2" font-family="Helvetica,sans-Serif" font-weight="bold" font-size="11.00">AuthResponse</text>
<text text-anchor="start" x="952" y="-1539.2" font-family="Helvetica,sans-Serif" font-size="11.00">+ token : String</text>
<text text-anchor="start" x="952" y="-1519.2" font-family="Helvetica,sans-Serif" font-size="11.00">+ email : String</text>
<text text-anchor="start" x="952" y="-1499.2" font-family="Helvetica,sans-Serif" font-size="11.00">+ firstName : String</text>
<text text-anchor="start" x="952" y="-1479.2" font-family="Helvetica,sans-Serif" font-size="11.00">+ lastName : String</text>
<text text-anchor="start" x="952" y="-1459.2" font-family="Helvetica,sans-Serif" font-size="11.00"> </text>
<polygon fill="black" stroke="black" points="947,-1552 947,-1552 1068,-1552 1068,-1552 947,-1552"/>
<polygon fill="black" stroke="black" points="947,-1472 947,-1472 1068,-1472 1068,-1472 947,-1472"/>
<polygon fill="none" stroke="black" points="946.5,-1451 946.5,-1593 1067.5,-1593 1067.5,-1451 946.5,-1451"/>
</g>
<!-- AuthResponse&#45;&gt;User -->
<g id="edge7" class="edge">
<title>AuthResponse&#45;&gt;User</title>
<path fill="none" stroke="#666666" stroke-width="1.1" stroke-dasharray="5,2" d="M946.22,-1450.95C923.59,-1424.87 897.25,-1394.51 871.98,-1365.39"/>
<polygon fill="#666666" stroke="#666666" stroke-width="1.1" points="866.61,-1359.19 874.57,-1362.87 869.27,-1362.18 871.89,-1365.2 871.85,-1365.23 871.81,-1365.27 869.19,-1362.24 869.13,-1367.59 866.61,-1359.19 866.61,-1359.19"/>
<text text-anchor="middle" x="929.5" y="-1410.8" font-family="Helvetica,sans-Serif" font-size="9.00">maps</text>
</g>
<!-- IncomeDTO -->
<g id="node8" class="node">
<title>IncomeDTO</title>
<polygon fill="#fff8e1" stroke="transparent" points="20.5,-869 20.5,-1031 241.5,-1031 241.5,-869 20.5,-869"/>
<polygon fill="#ffecb3" stroke="transparent" points="22,-1010 22,-1030 241,-1030 241,-1010 22,-1010"/>
<text text-anchor="start" x="112.5" y="-1018.2" font-family="Helvetica,sans-Serif" font-style="italic" font-size="11.00">«DTO»</text>
<polygon fill="#fff8e1" stroke="transparent" points="22,-990 22,-1010 241,-1010 241,-990 22,-990"/>
<text text-anchor="start" x="96.5" y="-998.2" font-family="Helvetica,sans-Serif" font-weight="bold" font-size="11.00">IncomeDTO</text>
<text text-anchor="start" x="26" y="-977.2" font-family="Helvetica,sans-Serif" font-size="11.00">+ id : Long</text>
<text text-anchor="start" x="26" y="-957.2" font-family="Helvetica,sans-Serif" font-size="11.00">+ amount : BigDecimal &#160;@DecimalMin</text>
<text text-anchor="start" x="26" y="-937.2" font-family="Helvetica,sans-Serif" font-size="11.00">+ source : String &#160;@NotBlank</text>
<text text-anchor="start" x="26" y="-917.2" font-family="Helvetica,sans-Serif" font-size="11.00">+ date : LocalDate</text>
<text text-anchor="start" x="26" y="-897.2" font-family="Helvetica,sans-Serif" font-size="11.00">+ description : String</text>
<text text-anchor="start" x="26" y="-877.2" font-family="Helvetica,sans-Serif" font-size="11.00"> </text>
<polygon fill="black" stroke="black" points="21,-990 21,-990 242,-990 242,-990 21,-990"/>
<polygon fill="black" stroke="black" points="21,-890 21,-890 242,-890 242,-890 21,-890"/>
<polygon fill="none" stroke="black" points="20.5,-869 20.5,-1031 241.5,-1031 241.5,-869 20.5,-869"/>
</g>
<!-- AuthResponse&#45;&gt;IncomeDTO -->
<!-- IncomeDTO&#45;&gt;Income -->
<g id="edge4" class="edge">
<title>IncomeDTO&#45;&gt;Income</title>
<path fill="none" stroke="#666666" stroke-width="1.1" stroke-dasharray="5,2" d="M217.55,-868.95C228.03,-861.52 238.95,-854.66 250,-849 372.41,-786.28 418.97,-814.82 550,-773 606.48,-754.97 668.46,-731.09 717.52,-711.18"/>
<polygon fill="#666666" stroke="#666666" stroke-width="1.1" points="724.97,-708.15 718.92,-714.5 721.28,-709.7 717.58,-711.21 717.56,-711.16 717.54,-711.12 721.25,-709.61 716.2,-707.83 724.97,-708.15 724.97,-708.15"/>
<text text-anchor="middle" x="387.5" y="-808.8" font-family="Helvetica,sans-Serif" font-size="9.00">maps</text>
</g>
<!-- ExpenseDTO -->
<g id="node9" class="node">
<title>ExpenseDTO</title>
<polygon fill="#fff8e1" stroke="transparent" points="15.5,-1660 15.5,-1822 236.5,-1822 236.5,-1660 15.5,-1660"/>
<polygon fill="#ffecb3" stroke="transparent" points="17,-1801 17,-1821 236,-1821 236,-1801 17,-1801"/>
<text text-anchor="start" x="107.5" y="-1809.2" font-family="Helvetica,sans-Serif" font-style="italic" font-size="11.00">«DTO»</text>
<polygon fill="#fff8e1" stroke="transparent" points="17,-1781 17,-1801 236,-1801 236,-1781 17,-1781"/>
<text text-anchor="start" x="88" y="-1789.2" font-family="Helvetica,sans-Serif" font-weight="bold" font-size="11.00">ExpenseDTO</text>
<text text-anchor="start" x="21" y="-1768.2" font-family="Helvetica,sans-Serif" font-size="11.00">+ id : Long</text>
<text text-anchor="start" x="21" y="-1748.2" font-family="Helvetica,sans-Serif" font-size="11.00">+ amount : BigDecimal &#160;@DecimalMin</text>
<text text-anchor="start" x="21" y="-1728.2" font-family="Helvetica,sans-Serif" font-size="11.00">+ category : String &#160;@NotBlank</text>
<text text-anchor="start" x="21" y="-1708.2" font-family="Helvetica,sans-Serif" font-size="11.00">+ date : LocalDate</text>
<text text-anchor="start" x="21" y="-1688.2" font-family="Helvetica,sans-Serif" font-size="11.00">+ description : String</text>
<text text-anchor="start" x="21" y="-1668.2" font-family="Helvetica,sans-Serif" font-size="11.00"> </text>
<polygon fill="black" stroke="black" points="16,-1781 16,-1781 237,-1781 237,-1781 16,-1781"/>
<polygon fill="black" stroke="black" points="16,-1681 16,-1681 237,-1681 237,-1681 16,-1681"/>
<polygon fill="none" stroke="black" points="15.5,-1660 15.5,-1822 236.5,-1822 236.5,-1660 15.5,-1660"/>
</g>
<!-- ExpenseDTO&#45;&gt;Expense -->
<g id="edge5" class="edge">
<title>ExpenseDTO&#45;&gt;Expense</title>
<path fill="none" stroke="#666666" stroke-width="1.1" stroke-dasharray="5,2" d="M236.71,-1665.55C345.72,-1590.49 502.19,-1477.49 547,-1418 630.58,-1307.05 598.59,-1251.09 661,-1127 672.52,-1104.1 686.13,-1080.34 699.78,-1057.96"/>
<polygon fill="#666666" stroke="#666666" stroke-width="1.1" points="704.02,-1051.06 702.9,-1059.76 701.96,-1054.49 699.87,-1057.9 699.83,-1057.87 699.79,-1057.85 701.88,-1054.44 696.76,-1055.99 704.02,-1051.06 704.02,-1051.06"/>
<text text-anchor="middle" x="564.5" y="-1410.8" font-family="Helvetica,sans-Serif" font-size="9.00">maps</text>
</g>
<!-- DashboardSummaryDTO -->
<g id="node10" class="node">
<title>DashboardSummaryDTO</title>
<polygon fill="#bbdefb" stroke="transparent" points="265,-1167 265,-1329 495,-1329 495,-1167 265,-1167"/>
<polygon fill="#90caf9" stroke="transparent" points="266,-1308 266,-1328 494,-1328 494,-1308 266,-1308"/>
<text text-anchor="start" x="361" y="-1316.2" font-family="Helvetica,sans-Serif" font-style="italic" font-size="11.00">«DTO»</text>
<polygon fill="#bbdefb" stroke="transparent" points="266,-1288 266,-1308 494,-1308 494,-1288 266,-1288"/>
<text text-anchor="start" x="304.5" y="-1296.2" font-family="Helvetica,sans-Serif" font-weight="bold" font-size="11.00">DashboardSummaryDTO</text>
<text text-anchor="start" x="270" y="-1275.2" font-family="Helvetica,sans-Serif" font-size="11.00">+ totalIncome : BigDecimal</text>
<text text-anchor="start" x="270" y="-1255.2" font-family="Helvetica,sans-Serif" font-size="11.00">+ totalExpenses : BigDecimal</text>
<text text-anchor="start" x="270" y="-1235.2" font-family="Helvetica,sans-Serif" font-size="11.00">+ netBalance : BigDecimal</text>
<text text-anchor="start" x="270" y="-1215.2" font-family="Helvetica,sans-Serif" font-size="11.00">+ recentIncome : List&lt;IncomeDTO&gt;</text>
<text text-anchor="start" x="270" y="-1195.2" font-family="Helvetica,sans-Serif" font-size="11.00">+ recentExpenses : List&lt;ExpenseDTO&gt;</text>
<text text-anchor="start" x="270" y="-1175.2" font-family="Helvetica,sans-Serif" font-size="11.00"> </text>
<polygon fill="black" stroke="black" points="265,-1288 265,-1288 495,-1288 495,-1288 265,-1288"/>
<polygon fill="black" stroke="black" points="265,-1188 265,-1188 495,-1188 495,-1188 265,-1188"/>
<polygon fill="none" stroke="black" points="265,-1167 265,-1329 495,-1329 495,-1167 265,-1167"/>
</g>
<!-- ExpenseDTO&#45;&gt;DashboardSummaryDTO -->
<!-- DashboardSummaryDTO&#45;&gt;IncomeDTO -->
<g id="edge8" class="edge">
<title>DashboardSummaryDTO&#45;&gt;IncomeDTO</title>
<path fill="none" stroke="#1565c0" stroke-width="1.1" d="M306.31,-1159.4C272.14,-1118.78 231.8,-1070.83 198.44,-1031.17"/>
<polygon fill="none" stroke="#1565c0" stroke-width="1.1" points="306.44,-1159.55 311.98,-1161.16 312.62,-1166.9 307.08,-1165.28 306.44,-1159.55"/>
<text text-anchor="middle" x="256.5" y="-1086.8" font-family="Helvetica,sans-Serif" font-size="9.00">0..*</text>
</g>
<!-- DashboardSummaryDTO&#45;&gt;ExpenseDTO -->
<g id="edge9" class="edge">
<title>DashboardSummaryDTO&#45;&gt;ExpenseDTO</title>
<path fill="none" stroke="#1565c0" stroke-width="1.1" d="M316.66,-1336.87C299.57,-1358.41 280.41,-1380.77 261,-1400 234.66,-1426.09 215.12,-1419.86 195,-1451 154.34,-1513.93 137.61,-1598.49 130.74,-1659.87"/>
<polygon fill="none" stroke="#1565c0" stroke-width="1.1" points="316.68,-1336.84 317.14,-1331.09 322.62,-1329.3 322.17,-1335.05 316.68,-1336.84"/>
<text text-anchor="middle" x="203.5" y="-1519.8" font-family="Helvetica,sans-Serif" font-size="9.00">0..*</text>
</g>
<!-- SimulationRequestDTO -->
<g id="node13" class="node">
<title>SimulationRequestDTO</title>
<polygon fill="#bbdefb" stroke="transparent" points="270.5,-889 270.5,-1011 531.5,-1011 531.5,-889 270.5,-889"/>
<polygon fill="#90caf9" stroke="transparent" points="272,-990 272,-1010 531,-1010 531,-990 272,-990"/>
<text text-anchor="start" x="382.5" y="-998.2" font-family="Helvetica,sans-Serif" font-style="italic" font-size="11.00">«DTO»</text>
<polygon fill="#bbdefb" stroke="transparent" points="272,-970 272,-990 531,-990 531,-970 272,-970"/>
<text text-anchor="start" x="330.5" y="-978.2" font-family="Helvetica,sans-Serif" font-weight="bold" font-size="11.00">SimulationRequestDTO</text>
<text text-anchor="start" x="276" y="-957.2" font-family="Helvetica,sans-Serif" font-size="11.00">+ hypotheticalMonthlyIncome : BigDecimal</text>
<text text-anchor="start" x="276" y="-937.2" font-family="Helvetica,sans-Serif" font-size="11.00">+ hypotheticalMonthlyExpenses : BigDecimal</text>
<text text-anchor="start" x="276" y="-917.2" font-family="Helvetica,sans-Serif" font-size="11.00">+ months : Integer &#160;@Min(1) @Max(60)</text>
<text text-anchor="start" x="276" y="-897.2" font-family="Helvetica,sans-Serif" font-size="11.00"> </text>
<polygon fill="black" stroke="black" points="271,-970 271,-970 532,-970 532,-970 271,-970"/>
<polygon fill="black" stroke="black" points="271,-910 271,-910 532,-910 532,-910 271,-910"/>
<polygon fill="none" stroke="black" points="270.5,-889 270.5,-1011 531.5,-1011 531.5,-889 270.5,-889"/>
</g>
<!-- DashboardSummaryDTO&#45;&gt;SimulationRequestDTO -->
<!-- TuitionRequestDTO -->
<g id="node11" class="node">
<title>TuitionRequestDTO</title>
<polygon fill="#bbdefb" stroke="transparent" points="265.5,-1680 265.5,-1802 534.5,-1802 534.5,-1680 265.5,-1680"/>
<polygon fill="#90caf9" stroke="transparent" points="267,-1781 267,-1801 534,-1801 534,-1781 267,-1781"/>
<text text-anchor="start" x="381.5" y="-1789.2" font-family="Helvetica,sans-Serif" font-style="italic" font-size="11.00">«DTO»</text>
<polygon fill="#bbdefb" stroke="transparent" points="267,-1761 267,-1781 534,-1781 534,-1761 267,-1761"/>
<text text-anchor="start" x="341.5" y="-1769.2" font-family="Helvetica,sans-Serif" font-weight="bold" font-size="11.00">TuitionRequestDTO</text>
<text text-anchor="start" x="271" y="-1748.2" font-family="Helvetica,sans-Serif" font-size="11.00">+ tuitionPerCourse : BigDecimal &#160;@DecimalMin</text>
<text text-anchor="start" x="271" y="-1728.2" font-family="Helvetica,sans-Serif" font-size="11.00">+ numberOfCourses : Integer &#160;@Min(1)</text>
<text text-anchor="start" x="271" y="-1708.2" font-family="Helvetica,sans-Serif" font-size="11.00">+ scholarshipAmount : BigDecimal</text>
<text text-anchor="start" x="271" y="-1688.2" font-family="Helvetica,sans-Serif" font-size="11.00"> </text>
<polygon fill="black" stroke="black" points="266,-1761 266,-1761 535,-1761 535,-1761 266,-1761"/>
<polygon fill="black" stroke="black" points="266,-1701 266,-1701 535,-1701 535,-1701 266,-1701"/>
<polygon fill="none" stroke="black" points="265.5,-1680 265.5,-1802 534.5,-1802 534.5,-1680 265.5,-1680"/>
</g>
<!-- SimulationResultDTO -->
<g id="node14" class="node">
<title>SimulationResultDTO</title>
<polygon fill="#bbdefb" stroke="transparent" points="307,-1461 307,-1583 535,-1583 535,-1461 307,-1461"/>
<polygon fill="#90caf9" stroke="transparent" points="308,-1562 308,-1582 534,-1582 534,-1562 308,-1562"/>
<text text-anchor="start" x="402" y="-1570.2" font-family="Helvetica,sans-Serif" font-style="italic" font-size="11.00">«DTO»</text>
<polygon fill="#bbdefb" stroke="transparent" points="308,-1542 308,-1562 534,-1562 534,-1542 308,-1542"/>
<text text-anchor="start" x="355.5" y="-1550.2" font-family="Helvetica,sans-Serif" font-weight="bold" font-size="11.00">SimulationResultDTO</text>
<text text-anchor="start" x="312" y="-1529.2" font-family="Helvetica,sans-Serif" font-size="11.00">+ projectedFinalBalance : BigDecimal</text>
<text text-anchor="start" x="312" y="-1509.2" font-family="Helvetica,sans-Serif" font-size="11.00">+ projectedTotalSavings : BigDecimal</text>
<text text-anchor="start" x="312" y="-1489.2" font-family="Helvetica,sans-Serif" font-size="11.00">+ monthlyBalances : List&lt;BigDecimal&gt;</text>
<text text-anchor="start" x="312" y="-1469.2" font-family="Helvetica,sans-Serif" font-size="11.00"> </text>
<polygon fill="black" stroke="black" points="307,-1542 307,-1542 535,-1542 535,-1542 307,-1542"/>
<polygon fill="black" stroke="black" points="307,-1482 307,-1482 535,-1482 535,-1482 307,-1482"/>
<polygon fill="none" stroke="black" points="307,-1461 307,-1583 535,-1583 535,-1461 307,-1461"/>
</g>
<!-- TuitionRequestDTO&#45;&gt;SimulationResultDTO -->
<!-- TuitionResultDTO -->
<g id="node12" class="node">
<title>TuitionResultDTO</title>
<polygon fill="#bbdefb" stroke="transparent" points="333.5,-591 333.5,-753 534.5,-753 534.5,-591 333.5,-591"/>
<polygon fill="#90caf9" stroke="transparent" points="335,-732 335,-752 534,-752 534,-732 335,-732"/>
<text text-anchor="start" x="415.5" y="-740.2" font-family="Helvetica,sans-Serif" font-style="italic" font-size="11.00">«DTO»</text>
<polygon fill="#bbdefb" stroke="transparent" points="335,-712 335,-732 534,-732 534,-712 335,-712"/>
<text text-anchor="start" x="381.5" y="-720.2" font-family="Helvetica,sans-Serif" font-weight="bold" font-size="11.00">TuitionResultDTO</text>
<text text-anchor="start" x="339" y="-699.2" font-family="Helvetica,sans-Serif" font-size="11.00">+ tuitionPerCourse : BigDecimal</text>
<text text-anchor="start" x="339" y="-679.2" font-family="Helvetica,sans-Serif" font-size="11.00">+ numberOfCourses : Integer</text>
<text text-anchor="start" x="339" y="-659.2" font-family="Helvetica,sans-Serif" font-size="11.00">+ scholarshipAmount : BigDecimal</text>
<text text-anchor="start" x="339" y="-639.2" font-family="Helvetica,sans-Serif" font-size="11.00">+ grossTuition : BigDecimal</text>
<text text-anchor="start" x="339" y="-619.2" font-family="Helvetica,sans-Serif" font-size="11.00">+ netTuition : BigDecimal</text>
<text text-anchor="start" x="339" y="-599.2" font-family="Helvetica,sans-Serif" font-size="11.00"> </text>
<polygon fill="black" stroke="black" points="334,-712 334,-712 535,-712 535,-712 334,-712"/>
<polygon fill="black" stroke="black" points="334,-612 334,-612 535,-612 535,-612 334,-612"/>
<polygon fill="none" stroke="black" points="333.5,-591 333.5,-753 534.5,-753 534.5,-591 333.5,-591"/>
</g>
<!-- TuitionResultDTO&#45;&gt;TuitionPlan -->
<g id="edge6" class="edge">
<title>TuitionResultDTO&#45;&gt;TuitionPlan</title>
<path fill="none" stroke="#666666" stroke-width="1.1" stroke-dasharray="5,2" d="M534.84,-597.76C585.55,-560.93 647.22,-516.14 699.68,-478.03"/>
<polygon fill="#666666" stroke="#666666" stroke-width="1.1" points="706.36,-473.18 702.01,-480.79 703.16,-475.57 699.92,-477.92 699.89,-477.88 699.86,-477.84 703.1,-475.49 697.78,-474.97 706.36,-473.18 706.36,-473.18"/>
<text text-anchor="middle" x="636.5" y="-530.8" font-family="Helvetica,sans-Serif" font-size="9.00">maps</text>
</g>
<!-- AIQueryDTO -->
<g id="node15" class="node">
<title>AIQueryDTO</title>
<polygon fill="#f8bbd0" stroke="transparent" points="1176,-909 1176,-991 1358,-991 1358,-909 1176,-909"/>
<polygon fill="#f48fb1" stroke="transparent" points="1177,-970 1177,-990 1357,-990 1357,-970 1177,-970"/>
<text text-anchor="start" x="1248" y="-978.2" font-family="Helvetica,sans-Serif" font-style="italic" font-size="11.00">«DTO»</text>
<polygon fill="#f8bbd0" stroke="transparent" points="1177,-950 1177,-970 1357,-970 1357,-950 1177,-950"/>
<text text-anchor="start" x="1229.5" y="-958.2" font-family="Helvetica,sans-Serif" font-weight="bold" font-size="11.00">AIQueryDTO</text>
<text text-anchor="start" x="1181" y="-937.2" font-family="Helvetica,sans-Serif" font-size="11.00">+ question : String &#160;@NotBlank</text>
<text text-anchor="start" x="1181" y="-917.2" font-family="Helvetica,sans-Serif" font-size="11.00"> </text>
<polygon fill="black" stroke="black" points="1176,-950 1176,-950 1358,-950 1358,-950 1176,-950"/>
<polygon fill="black" stroke="black" points="1176,-930 1176,-930 1358,-930 1358,-930 1176,-930"/>
<polygon fill="none" stroke="black" points="1176,-909 1176,-991 1358,-991 1358,-909 1176,-909"/>
</g>
<!-- SimulationResultDTO&#45;&gt;AIQueryDTO -->
<!-- AIResponseDTO -->
<g id="node16" class="node">
<title>AIResponseDTO</title>
<polygon fill="#f8bbd0" stroke="transparent" points="1196.5,-1680 1196.5,-1802 1337.5,-1802 1337.5,-1680 1196.5,-1680"/>
<polygon fill="#f48fb1" stroke="transparent" points="1198,-1781 1198,-1801 1337,-1801 1337,-1781 1198,-1781"/>
<text text-anchor="start" x="1248.5" y="-1789.2" font-family="Helvetica,sans-Serif" font-style="italic" font-size="11.00">«DTO»</text>
<polygon fill="#f8bbd0" stroke="transparent" points="1198,-1761 1198,-1781 1337,-1781 1337,-1761 1198,-1761"/>
<text text-anchor="start" x="1219" y="-1769.2" font-family="Helvetica,sans-Serif" font-weight="bold" font-size="11.00">AIResponseDTO</text>
<text text-anchor="start" x="1202" y="-1748.2" font-family="Helvetica,sans-Serif" font-size="11.00">+ answer : String</text>
<text text-anchor="start" x="1202" y="-1728.2" font-family="Helvetica,sans-Serif" font-size="11.00">+ model : String</text>
<text text-anchor="start" x="1202" y="-1708.2" font-family="Helvetica,sans-Serif" font-size="11.00">+ generatedAt : Instant</text>
<text text-anchor="start" x="1202" y="-1688.2" font-family="Helvetica,sans-Serif" font-size="11.00"> </text>
<polygon fill="black" stroke="black" points="1197,-1761 1197,-1761 1338,-1761 1338,-1761 1197,-1761"/>
<polygon fill="black" stroke="black" points="1197,-1701 1197,-1701 1338,-1701 1338,-1701 1197,-1701"/>
<polygon fill="none" stroke="black" points="1196.5,-1680 1196.5,-1802 1337.5,-1802 1337.5,-1680 1196.5,-1680"/>
</g>
</g>
</svg>
