<?xml version="1.0" encoding="UTF-8" standalone="no"?>
<!DOCTYPE svg PUBLIC "-//W3C//DTD SVG 1.1//EN"
 "http://www.w3.org/Graphics/SVG/1.1/DTD/svg11.dtd">
<!-- Generated by graphviz version 2.43.0 (0)
 -->
<!-- Title: %3 Pages: 1 -->
<svg width="2640pt" height="1813pt"
 viewBox="0.00 0.00 1056.00 725.00" xmlns="http://www.w3.org/2000/svg" xmlns:xlink="http://www.w3.org/1999/xlink">
<g id="graph0" class="graph" transform="scale(2.5 2.5) rotate(0) translate(4 721)">
<title>%3</title>
<polygon fill="white" stroke="transparent" points="-4,4 -4,-721 1052,-721 1052,4 -4,4"/>
<text text-anchor="middle" x="524" y="-701.8" font-family="Helvetica,sans-Serif" font-size="14.00">FMS — Expense Prediction (class diagram)</text>
<g id="clust1" class="cluster">
<title>cluster_com</title>
<path fill="none" stroke="#333333" stroke-width="1.2" d="M20,-8C20,-8 1028,-8 1028,-8 1034,-8 1040,-14 1040,-20 1040,-20 1040,-674 1040,-674 1040,-680 1034,-686 1028,-686 1028,-686 20,-686 20,-686 14,-686 8,-680 8,-674 8,-674 8,-20 8,-20 8,-14 14,-8 20,-8"/>
<text text-anchor="middle" x="30" y="-672.4" font-family="Helvetica,sans-Serif" font-weight="bold" font-size="12.00">com</text>
</g>
<g id="clust2" class="cluster">
<title>cluster_fms</title>
<path fill="none" stroke="#333333" stroke-width="1.2" d="M28,-16C28,-16 1020,-16 1020,-16 1026,-16 1032,-22 1032,-28 1032,-28 1032,-645 1032,-645 1032,-651 1026,-657 1020,-657 1020,-657 28,-657 28,-657 22,-657 16,-651 16,-645 16,-645 16,-28 16,-28 16,-22 22,-16 28,-16"/>
<text text-anchor="middle" x="37" y="-643.4" font-family="Helvetica,sans-Serif" font-weight="bold" font-size="12.00">fms</text>
</g>
<g id="clust3" class="cluster">
<title>cluster_prediction</title>
<path fill="none" stroke="#333333" stroke-width="1.2" d="M36,-24C36,-24 1012,-24 1012,-24 1018,-24 1024,-30 1024,-36 1024,-36 1024,-616 1024,-616 1024,-622 1018,-628 1012,-628 1012,-628 36,-628 36,-628 30,-628 24,-622 24,-616 24,-616 24,-36 24,-36 24,-30 30,-24 36,-24"/>
<text text-anchor="middle" x="66" y="-614.4" font-family="Helvetica,sans-Serif" font-weight="bold" font-size="12.00">prediction</text>
</g>
<!-- ctrl -->
<g id="node1" class="node">
<title>ctrl</title>
<polygon fill="#fffde7" stroke="transparent" points="40,-488 40,-578 460,-578 460,-488 40,-488"/>
<polygon fill="#fff59d" stroke="transparent" points="41,-560 41,-577 459,-577 459,-560 41,-560"/>
<text text-anchor="start" x="218.5" y="-567" font-family="Helvetica,sans-Serif" font-style="italic" font-size="10.00">«Java Class»</text>
<polygon fill="#fffde7" stroke="transparent" points="41,-539 41,-560 459,-560 459,-539 41,-539"/>
<text text-anchor="start" x="170" y="-546.8" font-family="Helvetica,sans-Serif" font-weight="bold" font-size="14.00">PredictionController</text>
<polygon fill="#fffde7" stroke="transparent" points="41,-523 41,-539 459,-539 459,-523 41,-523"/>
<text text-anchor="start" x="228.5" y="-528.8" font-family="Helvetica,sans-Serif" font-size="9.00" fill="#666666">controller</text>
<text text-anchor="start" x="44" y="-512" font-family="Helvetica,sans-Serif" font-size="10.00">&#45; predictionService: ExpensePredictionService</text>
<text text-anchor="start" x="44" y="-495" font-family="Helvetica,sans-Serif" font-size="10.00">+ predictExpenses(userDetails: UserDetails): ResponseEntity&lt;List&lt;ExpenseDTO&gt;&gt;</text>
<polygon fill="black" stroke="black" points="40,-523 40,-523 460,-523 460,-523 40,-523"/>
<polygon fill="black" stroke="black" points="40,-506 40,-506 460,-506 460,-506 40,-506"/>
<polygon fill="none" stroke="black" points="40,-488 40,-578 460,-578 460,-488 40,-488"/>
</g>
<!-- svc_if -->
<g id="node2" class="node">
<title>svc_if</title>
<polygon fill="#fffde7" stroke="transparent" points="212,-270.5 212,-360.5 538,-360.5 538,-270.5 212,-270.5"/>
<polygon fill="#ffe082" stroke="transparent" points="213,-342.5 213,-359.5 537,-359.5 537,-342.5 213,-342.5"/>
<text text-anchor="start" x="335" y="-349.5" font-family="Helvetica,sans-Serif" font-style="italic" font-size="10.00">«Java Interface»</text>
<polygon fill="#fffde7" stroke="transparent" points="213,-321.5 213,-342.5 537,-342.5 537,-321.5 213,-321.5"/>
<text text-anchor="start" x="272.5" y="-329.3" font-family="Helvetica,sans-Serif" font-weight="bold" font-size="14.00">ExpensePredictionService</text>
<polygon fill="#fffde7" stroke="transparent" points="213,-305.5 213,-321.5 537,-321.5 537,-305.5 213,-305.5"/>
<text text-anchor="start" x="359" y="-311.3" font-family="Helvetica,sans-Serif" font-size="9.00" fill="#666666">service</text>
<text text-anchor="start" x="216" y="-294.5" font-family="Helvetica,sans-Serif" font-size="10.00"> </text>
<text text-anchor="start" x="216" y="-277.5" font-family="Helvetica,sans-Serif" font-size="10.00">+ predictNextMonthExpenses(email: String): List&lt;ExpenseDTO&gt;</text>
<polygon fill="black" stroke="black" points="212,-305.5 212,-305.5 538,-305.5 538,-305.5 212,-305.5"/>
<polygon fill="black" stroke="black" points="212,-288.5 212,-288.5 538,-288.5 538,-288.5 212,-288.5"/>
<polygon fill="none" stroke="black" points="212,-270.5 212,-360.5 538,-360.5 538,-270.5 212,-270.5"/>
</g>
<!-- ctrl&#45;&gt;svc_if -->
<g id="edge1" class="edge">
<title>ctrl&#45;&gt;svc_if</title>
<path fill="none" stroke="#444444" d="M277.9,-483.91C296.79,-451.34 321.84,-408.15 341.76,-373.8"/>
<polygon fill="#444444" stroke="#444444" points="346.97,-364.82 345.85,-375.73 344.46,-369.14 341.95,-373.47 341.95,-373.47 341.95,-373.47 344.46,-369.14 338.06,-371.21 346.97,-364.82 346.97,-364.82"/>
<text text-anchor="middle" x="323.5" y="-426" font-family="Helvetica,sans-Serif" font-size="10.00" fill="#444444">uses</text>
</g>
<!-- dto -->
<g id="node6" class="node">
<title>dto</title>
<polygon fill="#fffde7" stroke="transparent" points="40.5,-245 40.5,-386 155.5,-386 155.5,-245 40.5,-245"/>
<polygon fill="#fff59d" stroke="transparent" points="42,-367.5 42,-384.5 155,-384.5 155,-367.5 42,-367.5"/>
<text text-anchor="start" x="67" y="-374.5" font-family="Helvetica,sans-Serif" font-style="italic" font-size="10.00">«Java Class»</text>
<polygon fill="#fffde7" stroke="transparent" points="42,-346.5 42,-367.5 155,-367.5 155,-346.5 42,-346.5"/>
<text text-anchor="start" x="48.5" y="-354.3" font-family="Helvetica,sans-Serif" font-weight="bold" font-size="14.00">ExpenseDTO</text>
<polygon fill="#fffde7" stroke="transparent" points="42,-330.5 42,-346.5 155,-346.5 155,-330.5 42,-330.5"/>
<text text-anchor="start" x="90.5" y="-336.3" font-family="Helvetica,sans-Serif" font-size="9.00" fill="#666666">dto</text>
<text text-anchor="start" x="45" y="-319.5" font-family="Helvetica,sans-Serif" font-size="10.00">&#45; amount: BigDecimal</text>
<text text-anchor="start" x="45" y="-302.5" font-family="Helvetica,sans-Serif" font-size="10.00">&#45; category: String</text>
<text text-anchor="start" x="45" y="-285.5" font-family="Helvetica,sans-Serif" font-size="10.00">&#45; date: LocalDate</text>
<text text-anchor="start" x="45" y="-268.5" font-family="Helvetica,sans-Serif" font-size="10.00">&#45; description: String</text>
<text text-anchor="start" x="45" y="-251.5" font-family="Helvetica,sans-Serif" font-size="10.00"> </text>
<polygon fill="black" stroke="black" points="41,-330.5 41,-330.5 156,-330.5 156,-330.5 41,-330.5"/>
<polygon fill="black" stroke="black" points="41,-262.5 41,-262.5 156,-262.5 156,-262.5 41,-262.5"/>
<polygon fill="none" stroke="black" points="40.5,-245 40.5,-386 155.5,-386 155.5,-245 40.5,-245"/>
</g>
<!-- ctrl&#45;&gt;dto -->
<g id="edge5" class="edge">
<title>ctrl&#45;&gt;dto</title>
<path fill="none" stroke="#444444" stroke-dasharray="5,2" d="M216.08,-483.91C198.4,-458.84 176.28,-427.49 155.99,-398.71"/>
<polygon fill="#444444" stroke="#444444" points="150.04,-390.28 159.48,-395.85 152.92,-394.36 155.8,-398.45 155.8,-398.45 155.8,-398.45 152.92,-394.36 152.12,-401.04 150.04,-390.28 150.04,-390.28"/>
<text text-anchor="middle" x="196.5" y="-426" font-family="Helvetica,sans-Serif" font-size="10.00" fill="#444444">returns</text>
</g>
<!-- svc_impl -->
<g id="node3" class="node">
<title>svc_impl</title>
<polygon fill="#fffde7" stroke="transparent" points="516,-471 516,-595 842,-595 842,-471 516,-471"/>
<polygon fill="#fff59d" stroke="transparent" points="517,-577 517,-594 841,-594 841,-577 517,-577"/>
<text text-anchor="start" x="647.5" y="-584" font-family="Helvetica,sans-Serif" font-style="italic" font-size="10.00">«Java Class»</text>
<polygon fill="#fffde7" stroke="transparent" points="517,-556 517,-577 841,-577 841,-556 517,-556"/>
<text text-anchor="start" x="560" y="-563.8" font-family="Helvetica,sans-Serif" font-weight="bold" font-size="14.00">ExpensePredictionServiceImpl</text>
<polygon fill="#fffde7" stroke="transparent" points="517,-540 517,-556 841,-556 841,-540 517,-540"/>
<text text-anchor="start" x="663" y="-545.8" font-family="Helvetica,sans-Serif" font-size="9.00" fill="#666666">service</text>
<text text-anchor="start" x="520" y="-529" font-family="Helvetica,sans-Serif" font-size="10.00">&#45; expenseRepository: ExpenseRepository</text>
<text text-anchor="start" x="520" y="-512" font-family="Helvetica,sans-Serif" font-size="10.00">&#45; userRepository: UserRepository</text>
<text text-anchor="start" x="520" y="-495" font-family="Helvetica,sans-Serif" font-size="10.00">+ predictNextMonthExpenses(email: String): List&lt;ExpenseDTO&gt;</text>
<text text-anchor="start" x="520" y="-478" font-family="Helvetica,sans-Serif" font-size="10.00">// 3&#45;month moving average, grouped by category</text>
<polygon fill="black" stroke="black" points="516,-540 516,-540 842,-540 842,-540 516,-540"/>
<polygon fill="black" stroke="black" points="516,-506 516,-506 842,-506 842,-506 516,-506"/>
<polygon fill="none" stroke="black" points="516,-471 516,-595 842,-595 842,-471 516,-471"/>
</g>
<!-- svc_impl&#45;&gt;svc_if -->
<g id="edge2" class="edge">
<title>svc_impl&#45;&gt;svc_if</title>
<path fill="none" stroke="#444444" stroke-dasharray="5,2" d="M586.96,-466.76C543.64,-436.05 492.57,-399.85 451.42,-370.67"/>
<polygon fill="none" stroke="#444444" points="453.24,-367.68 443.06,-364.75 449.2,-373.39 453.24,-367.68"/>
<text text-anchor="middle" x="565.5" y="-426" font-family="Helvetica,sans-Serif" font-size="10.00" fill="#444444">implements</text>
</g>
<!-- repo -->
<g id="node4" class="node">
<title>repo</title>
<polygon fill="#fffde7" stroke="transparent" points="594,-270.5 594,-360.5 1008,-360.5 1008,-270.5 594,-270.5"/>
<polygon fill="#ffe082" stroke="transparent" points="595,-342.5 595,-359.5 1007,-359.5 1007,-342.5 595,-342.5"/>
<text text-anchor="start" x="761" y="-349.5" font-family="Helvetica,sans-Serif" font-style="italic" font-size="10.00">«Java Interface»</text>
<polygon fill="#fffde7" stroke="transparent" points="595,-321.5 595,-342.5 1007,-342.5 1007,-321.5 595,-321.5"/>
<text text-anchor="start" x="725.5" y="-329.3" font-family="Helvetica,sans-Serif" font-weight="bold" font-size="14.00">ExpenseRepository</text>
<polygon fill="#fffde7" stroke="transparent" points="595,-305.5 595,-321.5 1007,-321.5 1007,-305.5 595,-305.5"/>
<text text-anchor="start" x="778" y="-311.3" font-family="Helvetica,sans-Serif" font-size="9.00" fill="#666666">repository</text>
<text text-anchor="start" x="598" y="-294.5" font-family="Helvetica,sans-Serif" font-size="10.00"> </text>
<text text-anchor="start" x="598" y="-277.5" font-family="Helvetica,sans-Serif" font-size="10.00">+ findByUserAndDateBetween(u: User, s: LocalDate, e: LocalDate): List&lt;Expense&gt;</text>
<polygon fill="black" stroke="black" points="594,-305.5 594,-305.5 1008,-305.5 1008,-305.5 594,-305.5"/>
<polygon fill="black" stroke="black" points="594,-288.5 594,-288.5 1008,-288.5 1008,-288.5 594,-288.5"/>
<polygon fill="none" stroke="black" points="594,-270.5 594,-360.5 1008,-360.5 1008,-270.5 594,-270.5"/>
</g>
<!-- svc_impl&#45;&gt;repo -->
<g id="edge3" class="edge">
<title>svc_impl&#45;&gt;repo</title>
<path fill="none" stroke="#444444" d="M715.94,-466.76C732.71,-437.14 752.37,-402.41 768.56,-373.81"/>
<polygon fill="#444444" stroke="#444444" points="773.69,-364.75 772.67,-375.67 771.22,-369.1 768.76,-373.45 768.76,-373.45 768.76,-373.45 771.22,-369.1 764.84,-371.23 773.69,-364.75 773.69,-364.75"/>
<text text-anchor="middle" x="751.5" y="-426" font-family="Helvetica,sans-Serif" font-size="10.00" fill="#444444">uses</text>
</g>
<!-- svc_impl&#45;&gt;dto -->
<g id="edge6" class="edge">
<title>svc_impl&#45;&gt;dto</title>
<path fill="none" stroke="#444444" d="M507.79,-473.46C501.11,-471.27 494.5,-469.1 488,-467 424.74,-446.51 409.42,-439.47 345,-423 274.23,-404.91 249.62,-422.08 184,-390 179.97,-388.03 175.98,-385.83 172.04,-383.45"/>
<polygon fill="#444444" stroke="#444444" points="163.53,-377.98 174.38,-379.6 167.74,-380.68 171.95,-383.39 171.95,-383.39 171.95,-383.39 167.74,-380.68 169.51,-387.17 163.53,-377.98 163.53,-377.98"/>
<text text-anchor="middle" x="402.5" y="-426" font-family="Helvetica,sans-Serif" font-size="10.00" fill="#444444">creates</text>
</g>
<!-- ent -->
<g id="node5" class="node">
<title>ent</title>
<polygon fill="#fffde7" stroke="transparent" points="743.5,-36 743.5,-160 858.5,-160 858.5,-36 743.5,-36"/>
<polygon fill="#fff59d" stroke="transparent" points="745,-142 745,-159 858,-159 858,-142 745,-142"/>
<text text-anchor="start" x="770" y="-149" font-family="Helvetica,sans-Serif" font-style="italic" font-size="10.00">«Java Class»</text>
<polygon fill="#fffde7" stroke="transparent" points="745,-121 745,-142 858,-142 858,-121 745,-121"/>
<text text-anchor="start" x="768" y="-128.8" font-family="Helvetica,sans-Serif" font-weight="bold" font-size="14.00">Expense</text>
<polygon fill="#fffde7" stroke="transparent" points="745,-105 745,-121 858,-121 858,-105 745,-105"/>
<text text-anchor="start" x="787.5" y="-110.8" font-family="Helvetica,sans-Serif" font-size="9.00" fill="#666666">model</text>
<text text-anchor="start" x="748" y="-94" font-family="Helvetica,sans-Serif" font-size="10.00">&#45; amount: BigDecimal</text>
<text text-anchor="start" x="748" y="-77" font-family="Helvetica,sans-Serif" font-size="10.00">&#45; category: String</text>
<text text-anchor="start" x="748" y="-60" font-family="Helvetica,sans-Serif" font-size="10.00">&#45; date: LocalDate</text>
<text text-anchor="start" x="748" y="-43" font-family="Helvetica,sans-Serif" font-size="10.00"> </text>
<polygon fill="black" stroke="black" points="744,-105 744,-105 859,-105 859,-105 744,-105"/>
<polygon fill="black" stroke="black" points="744,-54 744,-54 859,-54 859,-54 744,-54"/>
<polygon fill="none" stroke="black" points="743.5,-36 743.5,-160 858.5,-160 858.5,-36 743.5,-36"/>
</g>
<!-- repo&#45;&gt;ent -->
<g id="edge4" class="edge">
<title>repo&#45;&gt;ent</title>
<path fill="none" stroke="#444444" d="M801,-266.41C801,-239.32 801,-204.9 801,-174.32"/>
<polygon fill="#444444" stroke="#444444" points="801,-164.11 805.5,-174.11 801,-169.11 801,-174.11 801,-174.11 801,-174.11 801,-169.11 796.5,-174.11 801,-164.11 801,-164.11"/>
<text text-anchor="middle" x="820.5" y="-200" font-family="Helvetica,sans-Serif" font-size="10.00" fill="#444444">persists</text>
</g>
</g>
</svg>
