<?xml version="1.0" encoding="UTF-8" standalone="no"?>
<!DOCTYPE svg PUBLIC "-//W3C//DTD SVG 1.1//EN"
 "http://www.w3.org/Graphics/SVG/1.1/DTD/svg11.dtd">
<!-- Generated by graphviz version 2.43.0 (0)
 -->
<!-- Title: %3 Pages: 1 -->
<svg width="1748pt" height="4800pt"
 viewBox="0.00 0.00 629.24 1728.00" xmlns="http://www.w3.org/2000/svg" xmlns:xlink="http://www.w3.org/1999/xlink">
<g id="graph0" class="graph" transform="scale(2.67 2.67) rotate(0) translate(4 1792)">
<title>%3</title>
<polygon fill="white" stroke="transparent" points="-4,4 -4,-1792 650,-1792 650,4 -4,4"/>
<text text-anchor="middle" x="323" y="-1769.6" font-family="Helvetica,sans-Serif" font-size="18.00">Financial Management System — Overview Class Diagram</text>
<text text-anchor="middle" x="323" y="-1749.6" font-family="Helvetica,sans-Serif" font-size="18.00">CS 5394 Group 2 · Aakriti Dhakal · Agnes Jesionowska · Manoj Khanal</text>
<g id="clust1" class="cluster">
<title>cluster_fe</title>
<polygon fill="#f1f8e9" stroke="#2e7d32" points="13,-1265 13,-1732 455,-1732 455,-1265 13,-1265"/>
<text text-anchor="middle" x="234" y="-1716.8" font-family="Helvetica,sans-Serif" font-weight="bold" font-size="14.00">Frontend (React)</text>
</g>
<g id="clust2" class="cluster">
<title>cluster_api</title>
<polygon fill="#ffebee" stroke="#c62828" points="312,-911 312,-1183 511,-1183 511,-911 312,-911"/>
<text text-anchor="middle" x="411.5" y="-1167.8" font-family="Helvetica,sans-Serif" font-weight="bold" font-size="14.00">REST API (HTTP + JWT)</text>
</g>
<g id="clust3" class="cluster">
<title>cluster_svc</title>
<polygon fill="#e3f2fd" stroke="#1565c0" points="302,-609 302,-881 520,-881 520,-609 302,-609"/>
<text text-anchor="middle" x="411" y="-865.8" font-family="Helvetica,sans-Serif" font-weight="bold" font-size="14.00">Business Layer (Services)</text>
</g>
<g id="clust4" class="cluster">
<title>cluster_repo</title>
<polygon fill="#fbeaff" stroke="#6a1b9a" points="334,-381 334,-569 494,-569 494,-381 334,-381"/>
<text text-anchor="middle" x="414" y="-553.8" font-family="Helvetica,sans-Serif" font-weight="bold" font-size="14.00">Data Access Layer</text>
</g>
<g id="clust5" class="cluster">
<title>cluster_model</title>
<polygon fill="#f4f8fc" stroke="#4a6fa5" points="341,-163 341,-351 513,-351 513,-163 341,-163"/>
<text text-anchor="middle" x="427" y="-335.8" font-family="Helvetica,sans-Serif" font-weight="bold" font-size="14.00">Model (JPA Entities)</text>
</g>
<g id="clust6" class="cluster">
<title>cluster_cfg</title>
<polygon fill="#fff3e0" stroke="#e65100" points="463,-1223 463,-1432 633,-1432 633,-1223 463,-1223"/>
<text text-anchor="middle" x="548" y="-1416.8" font-family="Helvetica,sans-Serif" font-weight="bold" font-size="14.00">Security / Config</text>
</g>
<g id="clust7" class="cluster">
<title>cluster_ext</title>
<polygon fill="#eceff1" stroke="#37474f" points="111,-8 111,-537.5 326,-537.5 326,-8 111,-8"/>
<text text-anchor="middle" x="218.5" y="-522.3" font-family="Helvetica,sans-Serif" font-weight="bold" font-size="14.00">External</text>
</g>
<!-- FE_Pages -->
<g id="node1" class="node">
<title>FE_Pages</title>
<polygon fill="#dcedc8" stroke="transparent" points="375.5,-1615 375.5,-1701 446.5,-1701 446.5,-1615 375.5,-1615"/>
<polygon fill="#c5e1a5" stroke="transparent" points="377,-1679 377,-1700 446,-1700 446,-1679 377,-1679"/>
<text text-anchor="start" x="381" y="-1687.4" font-family="Helvetica,sans-Serif" font-style="italic" font-size="12.00">«module»</text>
<polygon fill="#dcedc8" stroke="transparent" points="377,-1658 377,-1679 446,-1679 446,-1658 377,-1658"/>
<text text-anchor="start" x="391" y="-1666.4" font-family="Helvetica,sans-Serif" font-weight="bold" font-size="12.00">Pages</text>
<text text-anchor="start" x="381" y="-1644.4" font-family="Helvetica,sans-Serif" font-size="12.00"> </text>
<text text-anchor="start" x="381" y="-1623.4" font-family="Helvetica,sans-Serif" font-size="12.00"> </text>
<polygon fill="black" stroke="black" points="376,-1658 376,-1658 447,-1658 447,-1658 376,-1658"/>
<polygon fill="black" stroke="black" points="376,-1637 376,-1637 447,-1637 447,-1637 376,-1637"/>
<polygon fill="none" stroke="black" points="375.5,-1615 375.5,-1701 446.5,-1701 446.5,-1615 375.5,-1615"/>
</g>
<!-- FE_Components -->
<g id="node2" class="node">
<title>FE_Components</title>
<polygon fill="#dcedc8" stroke="transparent" points="21.5,-1470 21.5,-1556 116.5,-1556 116.5,-1470 21.5,-1470"/>
<polygon fill="#c5e1a5" stroke="transparent" points="23,-1534 23,-1555 116,-1555 116,-1534 23,-1534"/>
<text text-anchor="start" x="39" y="-1542.4" font-family="Helvetica,sans-Serif" font-style="italic" font-size="12.00">«module»</text>
<polygon fill="#dcedc8" stroke="transparent" points="23,-1513 23,-1534 116,-1534 116,-1513 23,-1513"/>
<text text-anchor="start" x="27" y="-1521.4" font-family="Helvetica,sans-Serif" font-weight="bold" font-size="12.00">Components</text>
<text text-anchor="start" x="27" y="-1499.4" font-family="Helvetica,sans-Serif" font-size="12.00"> </text>
<text text-anchor="start" x="27" y="-1478.4" font-family="Helvetica,sans-Serif" font-size="12.00"> </text>
<polygon fill="black" stroke="black" points="22,-1513 22,-1513 117,-1513 117,-1513 22,-1513"/>
<polygon fill="black" stroke="black" points="22,-1492 22,-1492 117,-1492 117,-1492 22,-1492"/>
<polygon fill="none" stroke="black" points="21.5,-1470 21.5,-1556 116.5,-1556 116.5,-1470 21.5,-1470"/>
</g>
<!-- FE_Pages&#45;&gt;FE_Components -->
<g id="edge1" class="edge">
<title>FE_Pages&#45;&gt;FE_Components</title>
<path fill="none" stroke="#2e7d32" stroke-width="1.1" d="M375.35,-1647.26C320.98,-1631.71 214.82,-1598.66 131,-1556 128.62,-1554.79 126.23,-1553.51 123.84,-1552.17"/>
<polygon fill="#2e7d32" stroke="#2e7d32" stroke-width="1.1" points="116.69,-1548 125.41,-1548.91 120.17,-1549.97 123.62,-1551.98 123.6,-1552.02 123.57,-1552.07 120.12,-1550.05 121.79,-1555.14 116.69,-1548 116.69,-1548"/>
</g>
<!-- FE_Services_JS -->
<g id="node3" class="node">
<title>FE_Services_JS</title>
<polygon fill="#dcedc8" stroke="transparent" points="146,-1470 146,-1556 242,-1556 242,-1470 146,-1470"/>
<polygon fill="#c5e1a5" stroke="transparent" points="147,-1534 147,-1555 241,-1555 241,-1534 147,-1534"/>
<text text-anchor="start" x="163.5" y="-1542.4" font-family="Helvetica,sans-Serif" font-style="italic" font-size="12.00">«module»</text>
<polygon fill="#dcedc8" stroke="transparent" points="147,-1513 147,-1534 241,-1534 241,-1513 147,-1513"/>
<text text-anchor="start" x="151" y="-1521.4" font-family="Helvetica,sans-Serif" font-weight="bold" font-size="12.00">Services (JS)</text>
<text text-anchor="start" x="151" y="-1499.4" font-family="Helvetica,sans-Serif" font-size="12.00"> </text>
<text text-anchor="start" x="151" y="-1478.4" font-family="Helvetica,sans-Serif" font-size="12.00"> </text>
<polygon fill="black" stroke="black" points="146,-1513 146,-1513 242,-1513 242,-1513 146,-1513"/>
<polygon fill="black" stroke="black" points="146,-1492 146,-1492 242,-1492 242,-1492 146,-1492"/>
<polygon fill="none" stroke="black" points="146,-1470 146,-1556 242,-1556 242,-1470 146,-1470"/>
</g>
<!-- FE_Pages&#45;&gt;FE_Services_JS -->
<g id="edge2" class="edge">
<title>FE_Pages&#45;&gt;FE_Services_JS</title>
<path fill="none" stroke="#2e7d32" stroke-width="1.1" d="M375.47,-1633.81C344.23,-1613.39 297.54,-1582.81 257,-1556 254.44,-1554.31 251.82,-1552.57 249.17,-1550.82"/>
<polygon fill="#2e7d32" stroke="#2e7d32" stroke-width="1.1" points="242.13,-1546.14 250.79,-1547.57 245.49,-1548.31 248.82,-1550.52 248.8,-1550.57 248.77,-1550.61 245.44,-1548.4 246.8,-1553.57 242.13,-1546.14 242.13,-1546.14"/>
</g>
<!-- FE_AuthContext -->
<g id="node5" class="node">
<title>FE_AuthContext</title>
<polygon fill="#dcedc8" stroke="transparent" points="271.5,-1470 271.5,-1556 366.5,-1556 366.5,-1470 271.5,-1470"/>
<polygon fill="#c5e1a5" stroke="transparent" points="273,-1534 273,-1555 366,-1555 366,-1534 273,-1534"/>
<text text-anchor="start" x="289" y="-1542.4" font-family="Helvetica,sans-Serif" font-style="italic" font-size="12.00">«module»</text>
<polygon fill="#dcedc8" stroke="transparent" points="273,-1513 273,-1534 366,-1534 366,-1513 273,-1513"/>
<text text-anchor="start" x="277" y="-1521.4" font-family="Helvetica,sans-Serif" font-weight="bold" font-size="12.00">AuthContext</text>
<text text-anchor="start" x="277" y="-1499.4" font-family="Helvetica,sans-Serif" font-size="12.00"> </text>
<text text-anchor="start" x="277" y="-1478.4" font-family="Helvetica,sans-Serif" font-size="12.00"> </text>
<polygon fill="black" stroke="black" points="272,-1513 272,-1513 367,-1513 367,-1513 272,-1513"/>
<polygon fill="black" stroke="black" points="272,-1492 272,-1492 367,-1492 367,-1492 272,-1492"/>
<polygon fill="none" stroke="black" points="271.5,-1470 271.5,-1556 366.5,-1556 366.5,-1470 271.5,-1470"/>
</g>
<!-- FE_Pages&#45;&gt;FE_AuthContext -->
<g id="edge4" class="edge">
<title>FE_Pages&#45;&gt;FE_AuthContext</title>
<path fill="none" stroke="#2e7d32" stroke-width="1.1" stroke-dasharray="5,2" d="M383.89,-1614.87C373.51,-1598.72 361.56,-1580.15 350.77,-1563.39"/>
<polygon fill="#2e7d32" stroke="#2e7d32" stroke-width="1.1" points="346.23,-1556.32 353.59,-1561.1 348.44,-1559.66 350.6,-1563.03 350.56,-1563.05 350.52,-1563.08 348.35,-1559.72 347.53,-1565 346.23,-1556.32 346.23,-1556.32"/>
</g>
<!-- Controllers -->
<g id="node6" class="node">
<title>Controllers</title>
<polygon fill="#ffcdd2" stroke="transparent" points="337,-919 337,-1152 485,-1152 485,-919 337,-919"/>
<polygon fill="#ef9a9a" stroke="transparent" points="338,-1129.5 338,-1150.5 484,-1150.5 484,-1129.5 338,-1129.5"/>
<text text-anchor="start" x="388" y="-1137.9" font-family="Helvetica,sans-Serif" font-style="italic" font-size="12.00">«REST»</text>
<polygon fill="#ffcdd2" stroke="transparent" points="338,-1108.5 338,-1129.5 484,-1129.5 484,-1108.5 338,-1108.5"/>
<text text-anchor="start" x="342" y="-1116.9" font-family="Helvetica,sans-Serif" font-weight="bold" font-size="12.00">8 × @RestController</text>
<text text-anchor="start" x="342" y="-1094.9" font-family="Helvetica,sans-Serif" font-size="12.00">/auth</text>
<text text-anchor="start" x="342" y="-1073.9" font-family="Helvetica,sans-Serif" font-size="12.00">/income</text>
<text text-anchor="start" x="342" y="-1052.9" font-family="Helvetica,sans-Serif" font-size="12.00">/expense</text>
<text text-anchor="start" x="342" y="-1031.9" font-family="Helvetica,sans-Serif" font-size="12.00">/dashboard</text>
<text text-anchor="start" x="342" y="-1010.9" font-family="Helvetica,sans-Serif" font-size="12.00">/tuition</text>
<text text-anchor="start" x="342" y="-989.9" font-family="Helvetica,sans-Serif" font-size="12.00">/prediction</text>
<text text-anchor="start" x="342" y="-968.9" font-family="Helvetica,sans-Serif" font-size="12.00">/simulation</text>
<text text-anchor="start" x="342" y="-947.9" font-family="Helvetica,sans-Serif" font-size="12.00">/ai</text>
<text text-anchor="start" x="342" y="-926.9" font-family="Helvetica,sans-Serif" font-size="12.00"> </text>
<polygon fill="black" stroke="black" points="337,-1108.5 337,-1108.5 485,-1108.5 485,-1108.5 337,-1108.5"/>
<polygon fill="black" stroke="black" points="337,-940.5 337,-940.5 485,-940.5 485,-940.5 337,-940.5"/>
<polygon fill="none" stroke="black" points="337,-919 337,-1152 485,-1152 485,-919 337,-919"/>
</g>
<!-- FE_Pages&#45;&gt;Controllers -->
<!-- FE_axiosInstance -->
<g id="node4" class="node">
<title>FE_axiosInstance</title>
<polygon fill="#dcedc8" stroke="transparent" points="172,-1273 172,-1359 276,-1359 276,-1273 172,-1273"/>
<polygon fill="#c5e1a5" stroke="transparent" points="173,-1337 173,-1358 275,-1358 275,-1337 173,-1337"/>
<text text-anchor="start" x="193.5" y="-1345.4" font-family="Helvetica,sans-Serif" font-style="italic" font-size="12.00">«module»</text>
<polygon fill="#dcedc8" stroke="transparent" points="173,-1316 173,-1337 275,-1337 275,-1316 173,-1316"/>
<text text-anchor="start" x="177" y="-1324.4" font-family="Helvetica,sans-Serif" font-weight="bold" font-size="12.00">axiosInstance</text>
<text text-anchor="start" x="177" y="-1302.4" font-family="Helvetica,sans-Serif" font-size="12.00"> </text>
<text text-anchor="start" x="177" y="-1281.4" font-family="Helvetica,sans-Serif" font-size="12.00"> </text>
<polygon fill="black" stroke="black" points="172,-1316 172,-1316 276,-1316 276,-1316 172,-1316"/>
<polygon fill="black" stroke="black" points="172,-1295 172,-1295 276,-1295 276,-1295 172,-1295"/>
<polygon fill="none" stroke="black" points="172,-1273 172,-1359 276,-1359 276,-1273 172,-1273"/>
</g>
<!-- FE_Services_JS&#45;&gt;FE_axiosInstance -->
<g id="edge3" class="edge">
<title>FE_Services_JS&#45;&gt;FE_axiosInstance</title>
<path fill="none" stroke="#2e7d32" stroke-width="1.1" d="M200.51,-1469.69C205.13,-1439.66 211.35,-1399.23 216.23,-1367.51"/>
<polygon fill="#2e7d32" stroke="#2e7d32" stroke-width="1.1" points="217.5,-1359.23 219.84,-1367.68 216.94,-1363.19 216.34,-1367.14 216.29,-1367.14 216.24,-1367.13 216.85,-1363.18 212.73,-1366.59 217.5,-1359.23 217.5,-1359.23"/>
</g>
<!-- FE_axiosInstance&#45;&gt;Controllers -->
<g id="edge5" class="edge">
<title>FE_axiosInstance&#45;&gt;Controllers</title>
<path fill="none" stroke="#455a64" stroke-width="2" d="M252.4,-1272.7C273.69,-1241 303.92,-1195.98 332.28,-1153.74"/>
<polygon fill="#455a64" stroke="#455a64" stroke-width="2" points="336.81,-1146.98 335.34,-1155.63 335,-1150.58 332.77,-1153.91 332.35,-1153.63 331.94,-1153.35 334.17,-1150.03 329.37,-1151.62 336.81,-1146.98 336.81,-1146.98"/>
<text text-anchor="middle" x="345.5" y="-1194" font-family="Helvetica,sans-Serif" font-size="10.00">HTTPS + Bearer</text>
</g>
<!-- Services -->
<g id="node7" class="node">
<title>Services</title>
<polygon fill="#bbdefb" stroke="transparent" points="329,-617 329,-850 493,-850 493,-617 329,-617"/>
<polygon fill="#90caf9" stroke="transparent" points="330,-827.5 330,-848.5 492,-848.5 492,-827.5 330,-827.5"/>
<text text-anchor="start" x="355" y="-835.9" font-family="Helvetica,sans-Serif" font-style="italic" font-size="12.00">«interface + impl»</text>
<polygon fill="#bbdefb" stroke="transparent" points="330,-806.5 330,-827.5 492,-827.5 492,-806.5 330,-806.5"/>
<text text-anchor="start" x="366.5" y="-814.9" font-family="Helvetica,sans-Serif" font-weight="bold" font-size="12.00">8 × @Service</text>
<text text-anchor="start" x="334" y="-792.9" font-family="Helvetica,sans-Serif" font-size="12.00">AuthService</text>
<text text-anchor="start" x="334" y="-771.9" font-family="Helvetica,sans-Serif" font-size="12.00">IncomeService</text>
<text text-anchor="start" x="334" y="-750.9" font-family="Helvetica,sans-Serif" font-size="12.00">ExpenseService</text>
<text text-anchor="start" x="334" y="-729.9" font-family="Helvetica,sans-Serif" font-size="12.00">DashboardService</text>
<text text-anchor="start" x="334" y="-708.9" font-family="Helvetica,sans-Serif" font-size="12.00">TuitionService</text>
<text text-anchor="start" x="334" y="-687.9" font-family="Helvetica,sans-Serif" font-size="12.00">ExpensePredictionService</text>
<text text-anchor="start" x="334" y="-666.9" font-family="Helvetica,sans-Serif" font-size="12.00">WhatIfSimulationService</text>
<text text-anchor="start" x="334" y="-645.9" font-family="Helvetica,sans-Serif" font-size="12.00">AIAdvisorService</text>
<text text-anchor="start" x="334" y="-624.9" font-family="Helvetica,sans-Serif" font-size="12.00"> </text>
<polygon fill="black" stroke="black" points="329,-806.5 329,-806.5 493,-806.5 493,-806.5 329,-806.5"/>
<polygon fill="black" stroke="black" points="329,-638.5 329,-638.5 493,-638.5 493,-638.5 329,-638.5"/>
<polygon fill="none" stroke="black" points="329,-617 329,-850 493,-850 493,-617 329,-617"/>
</g>
<!-- Controllers&#45;&gt;Services -->
<g id="edge7" class="edge">
<title>Controllers&#45;&gt;Services</title>
<path fill="none" stroke="#c62828" stroke-width="1.1" d="M400.75,-918.94C400.46,-899.21 400.42,-878.64 400.64,-858.7"/>
<polygon fill="#c62828" stroke="#c62828" stroke-width="1.1" points="400.74,-850.49 404.24,-858.54 400.74,-854.49 400.69,-858.49 400.64,-858.49 400.59,-858.49 400.64,-854.49 397.04,-858.45 400.74,-850.49 400.74,-850.49"/>
</g>
<!-- Controllers&#45;&gt;Services -->
<!-- Repositories -->
<g id="node8" class="node">
<title>Repositories</title>
<polygon fill="#f3e5f5" stroke="transparent" points="342.5,-389 342.5,-538 479.5,-538 479.5,-389 342.5,-389"/>
<polygon fill="#e1bee7" stroke="transparent" points="344,-515.5 344,-536.5 479,-536.5 479,-515.5 344,-515.5"/>
<text text-anchor="start" x="376.5" y="-523.9" font-family="Helvetica,sans-Serif" font-style="italic" font-size="12.00">«interface»</text>
<polygon fill="#f3e5f5" stroke="transparent" points="344,-494.5 344,-515.5 479,-515.5 479,-494.5 344,-494.5"/>
<text text-anchor="start" x="351" y="-502.9" font-family="Helvetica,sans-Serif" font-weight="bold" font-size="12.00">4 × JpaRepository</text>
<text text-anchor="start" x="348" y="-480.9" font-family="Helvetica,sans-Serif" font-size="12.00">UserRepository</text>
<text text-anchor="start" x="348" y="-459.9" font-family="Helvetica,sans-Serif" font-size="12.00">IncomeRepository</text>
<text text-anchor="start" x="348" y="-438.9" font-family="Helvetica,sans-Serif" font-size="12.00">ExpenseRepository</text>
<text text-anchor="start" x="348" y="-417.9" font-family="Helvetica,sans-Serif" font-size="12.00">TuitionPlanRepository</text>
<text text-anchor="start" x="348" y="-396.9" font-family="Helvetica,sans-Serif" font-size="12.00"> </text>
<polygon fill="black" stroke="black" points="343,-494.5 343,-494.5 480,-494.5 480,-494.5 343,-494.5"/>
<polygon fill="black" stroke="black" points="343,-410.5 343,-410.5 480,-410.5 480,-410.5 343,-410.5"/>
<polygon fill="none" stroke="black" points="342.5,-389 342.5,-538 479.5,-538 479.5,-389 342.5,-389"/>
</g>
<!-- Services&#45;&gt;Repositories -->
<g id="edge8" class="edge">
<title>Services&#45;&gt;Repositories</title>
<path fill="none" stroke="#1565c0" stroke-width="1.1" d="M400.59,-616.9C400.36,-593.18 400.58,-568.67 401.24,-546.44"/>
<polygon fill="#1565c0" stroke="#1565c0" stroke-width="1.1" points="401.5,-538.35 404.84,-546.46 401.42,-542.35 401.29,-546.35 401.24,-546.35 401.19,-546.34 401.32,-542.35 397.64,-546.23 401.5,-538.35 401.5,-538.35"/>
</g>
<!-- Services&#45;&gt;Repositories -->
<!-- OpenAI -->
<g id="node12" class="node">
<title>OpenAI</title>
<polygon fill="#cfd8dc" stroke="transparent" points="118.5,-420.5 118.5,-506.5 313.5,-506.5 313.5,-420.5 118.5,-420.5"/>
<polygon fill="#b0bec5" stroke="transparent" points="120,-484.5 120,-505.5 313,-505.5 313,-484.5 120,-484.5"/>
<text text-anchor="start" x="160.5" y="-492.9" font-family="Helvetica,sans-Serif" font-style="italic" font-size="12.00">«external service»</text>
<polygon fill="#cfd8dc" stroke="transparent" points="120,-463.5 120,-484.5 313,-484.5 313,-463.5 120,-463.5"/>
<text text-anchor="start" x="178.5" y="-471.9" font-family="Helvetica,sans-Serif" font-weight="bold" font-size="12.00">OpenAI API</text>
<text text-anchor="start" x="124" y="-449.9" font-family="Helvetica,sans-Serif" font-size="12.00">chat/completions (gpt&#45;4o&#45;mini)</text>
<text text-anchor="start" x="124" y="-428.9" font-family="Helvetica,sans-Serif" font-size="12.00"> </text>
<polygon fill="black" stroke="black" points="119,-463.5 119,-463.5 314,-463.5 314,-463.5 119,-463.5"/>
<polygon fill="black" stroke="black" points="119,-442.5 119,-442.5 314,-442.5 314,-442.5 119,-442.5"/>
<polygon fill="none" stroke="black" points="118.5,-420.5 118.5,-506.5 313.5,-506.5 313.5,-420.5 118.5,-420.5"/>
</g>
<!-- Services&#45;&gt;OpenAI -->
<g id="edge11" class="edge">
<title>Services&#45;&gt;OpenAI</title>
<path fill="none" stroke="#1565c0" stroke-width="1.1" stroke-dasharray="5,2" d="M328.87,-619.62C301.77,-582.38 273.05,-542.91 251.37,-513.11"/>
<polygon fill="#1565c0" stroke="#1565c0" stroke-width="1.1" points="246.57,-506.51 254.19,-510.86 248.96,-509.72 251.32,-512.95 251.28,-512.98 251.24,-513.01 248.88,-509.78 248.37,-515.1 246.57,-506.51 246.57,-506.51"/>
<text text-anchor="middle" x="342.5" y="-580" font-family="Helvetica,sans-Serif" font-size="10.00">AIAdvisorService</text>
</g>
<!-- Entities -->
<g id="node9" class="node">
<title>Entities</title>
<polygon fill="#e8f5e9" stroke="transparent" points="360.5,-171 360.5,-320 449.5,-320 449.5,-171 360.5,-171"/>
<polygon fill="#c8e6c9" stroke="transparent" points="362,-297.5 362,-318.5 449,-318.5 449,-297.5 362,-297.5"/>
<text text-anchor="start" x="368" y="-305.9" font-family="Helvetica,sans-Serif" font-style="italic" font-size="12.00">«persistent»</text>
<polygon fill="#e8f5e9" stroke="transparent" points="362,-276.5 362,-297.5 449,-297.5 449,-276.5 362,-276.5"/>
<text text-anchor="start" x="366" y="-284.9" font-family="Helvetica,sans-Serif" font-weight="bold" font-size="12.00">4 × @Entity</text>
<text text-anchor="start" x="366" y="-262.9" font-family="Helvetica,sans-Serif" font-size="12.00">User</text>
<text text-anchor="start" x="366" y="-241.9" font-family="Helvetica,sans-Serif" font-size="12.00">Income</text>
<text text-anchor="start" x="366" y="-220.9" font-family="Helvetica,sans-Serif" font-size="12.00">Expense</text>
<text text-anchor="start" x="366" y="-199.9" font-family="Helvetica,sans-Serif" font-size="12.00">TuitionPlan</text>
<text text-anchor="start" x="366" y="-178.9" font-family="Helvetica,sans-Serif" font-size="12.00"> </text>
<polygon fill="black" stroke="black" points="361,-276.5 361,-276.5 450,-276.5 450,-276.5 361,-276.5"/>
<polygon fill="black" stroke="black" points="361,-192.5 361,-192.5 450,-192.5 450,-192.5 361,-192.5"/>
<polygon fill="none" stroke="black" points="360.5,-171 360.5,-320 449.5,-320 449.5,-171 360.5,-171"/>
</g>
<!-- Repositories&#45;&gt;Entities -->
<g id="edge9" class="edge">
<title>Repositories&#45;&gt;Entities</title>
<path fill="none" stroke="#6a1b9a" stroke-width="1.1" stroke-dasharray="5,2" d="M398.94,-388.77C397.83,-369.33 397.17,-348.23 397.05,-328.39"/>
<polygon fill="#6a1b9a" stroke="#6a1b9a" stroke-width="1.1" points="397.03,-320.27 400.65,-328.26 397.09,-324.26 397.1,-328.26 397.05,-328.26 397,-328.27 396.99,-324.27 393.45,-328.27 397.03,-320.27 397.03,-320.27"/>
</g>
<!-- Repositories&#45;&gt;Entities -->
<!-- PostgreSQL -->
<g id="node11" class="node">
<title>PostgreSQL</title>
<polygon fill="#cfd8dc" stroke="transparent" points="226.5,-16 226.5,-102 317.5,-102 317.5,-16 226.5,-16"/>
<polygon fill="#b0bec5" stroke="transparent" points="228,-80 228,-101 317,-101 317,-80 228,-80"/>
<text text-anchor="start" x="237" y="-88.4" font-family="Helvetica,sans-Serif" font-style="italic" font-size="12.00">«database»</text>
<polygon fill="#cfd8dc" stroke="transparent" points="228,-59 228,-80 317,-80 317,-59 228,-59"/>
<text text-anchor="start" x="232" y="-67.4" font-family="Helvetica,sans-Serif" font-weight="bold" font-size="12.00">PostgreSQL</text>
<text text-anchor="start" x="232" y="-45.4" font-family="Helvetica,sans-Serif" font-size="12.00">fms_db</text>
<text text-anchor="start" x="232" y="-24.4" font-family="Helvetica,sans-Serif" font-size="12.00"> </text>
<polygon fill="black" stroke="black" points="227,-59 227,-59 318,-59 318,-59 227,-59"/>
<polygon fill="black" stroke="black" points="227,-38 227,-38 318,-38 318,-38 227,-38"/>
<polygon fill="none" stroke="black" points="226.5,-16 226.5,-102 317.5,-102 317.5,-16 226.5,-16"/>
</g>
<!-- Entities&#45;&gt;PostgreSQL -->
<g id="edge10" class="edge">
<title>Entities&#45;&gt;PostgreSQL</title>
<path fill="none" stroke="#455a64" stroke-width="1.1" d="M362.36,-170.85C360.58,-168.18 358.79,-165.56 357,-163 344.2,-144.73 329.01,-125.64 315.04,-108.93"/>
<polygon fill="#455a64" stroke="#455a64" stroke-width="1.1" points="309.55,-102.41 317.46,-106.21 312.16,-105.44 314.74,-108.5 314.7,-108.53 314.66,-108.56 312.09,-105.5 311.95,-110.85 309.55,-102.41 309.55,-102.41"/>
<text text-anchor="middle" x="375.5" y="-134" font-family="Helvetica,sans-Serif" font-size="10.00">Hibernate / JPA</text>
</g>
<!-- Entities&#45;&gt;PostgreSQL -->
<!-- Security -->
<g id="node10" class="node">
<title>Security</title>
<polygon fill="#ffe0b2" stroke="transparent" points="471,-1231 471,-1401 625,-1401 625,-1231 471,-1231"/>
<polygon fill="#ffcc80" stroke="transparent" points="472,-1379 472,-1400 624,-1400 624,-1379 472,-1379"/>
<text text-anchor="start" x="493.5" y="-1387.4" font-family="Helvetica,sans-Serif" font-style="italic" font-size="12.00">«@Configuration»</text>
<polygon fill="#ffe0b2" stroke="transparent" points="472,-1358 472,-1379 624,-1379 624,-1358 472,-1358"/>
<text text-anchor="start" x="498.5" y="-1366.4" font-family="Helvetica,sans-Serif" font-weight="bold" font-size="12.00">Security Stack</text>
<text text-anchor="start" x="476" y="-1344.4" font-family="Helvetica,sans-Serif" font-size="12.00">SecurityConfig</text>
<text text-anchor="start" x="476" y="-1323.4" font-family="Helvetica,sans-Serif" font-size="12.00">JwtAuthFilter</text>
<text text-anchor="start" x="476" y="-1302.4" font-family="Helvetica,sans-Serif" font-size="12.00">JwtUtil</text>
<text text-anchor="start" x="476" y="-1281.4" font-family="Helvetica,sans-Serif" font-size="12.00">CorsConfig</text>
<text text-anchor="start" x="476" y="-1260.4" font-family="Helvetica,sans-Serif" font-size="12.00">GlobalExceptionHandler</text>
<text text-anchor="start" x="476" y="-1239.4" font-family="Helvetica,sans-Serif" font-size="12.00"> </text>
<polygon fill="black" stroke="black" points="471,-1358 471,-1358 625,-1358 625,-1358 471,-1358"/>
<polygon fill="black" stroke="black" points="471,-1253 471,-1253 625,-1253 625,-1253 471,-1253"/>
<polygon fill="none" stroke="black" points="471,-1231 471,-1401 625,-1401 625,-1231 471,-1231"/>
</g>
<!-- Security&#45;&gt;Controllers -->
<g id="edge6" class="edge">
<title>Security&#45;&gt;Controllers</title>
<path fill="none" stroke="#e65100" stroke-width="1.1" stroke-dasharray="5,2" d="M506.52,-1230.69C495.5,-1208.27 483.36,-1183.59 471.54,-1159.56"/>
<polygon fill="#e65100" stroke="#e65100" stroke-width="1.1" points="467.88,-1152.13 474.64,-1157.72 469.69,-1155.7 471.46,-1159.29 471.41,-1159.31 471.37,-1159.33 469.6,-1155.74 468.18,-1160.9 467.88,-1152.13 467.88,-1152.13"/>
<text text-anchor="middle" x="522.5" y="-1194" font-family="Helvetica,sans-Serif" font-size="10.00">JwtAuthFilter</text>
</g>
</g>
</svg>
