<?xml version="1.0" encoding="UTF-8" standalone="no"?>
<!DOCTYPE svg PUBLIC "-//W3C//DTD SVG 1.1//EN"
 "http://www.w3.org/Graphics/SVG/1.1/DTD/svg11.dtd">
<!-- Generated by graphviz version 2.43.0 (0)
 -->
<!-- Title: %3 Pages: 1 -->
<svg width="4758pt" height="1290pt"
 viewBox="0.00 0.00 1903.00 516.00" xmlns="http://www.w3.org/2000/svg" xmlns:xlink="http://www.w3.org/1999/xlink">
<g id="graph0" class="graph" transform="scale(2.5 2.5) rotate(0) translate(4 512)">
<title>%3</title>
<polygon fill="white" stroke="transparent" points="-4,4 -4,-512 1899,-512 1899,4 -4,4"/>
<text text-anchor="middle" x="947.5" y="-492.8" font-family="Helvetica,sans-Serif" font-size="14.00">FMS — What&#45;If Simulation (class diagram)</text>
<g id="clust1" class="cluster">
<title>cluster_com</title>
<path fill="none" stroke="#333333" stroke-width="1.2" d="M20,-8C20,-8 1875,-8 1875,-8 1881,-8 1887,-14 1887,-20 1887,-20 1887,-465 1887,-465 1887,-471 1881,-477 1875,-477 1875,-477 20,-477 20,-477 14,-477 8,-471 8,-465 8,-465 8,-20 8,-20 8,-14 14,-8 20,-8"/>
<text text-anchor="middle" x="30" y="-463.4" font-family="Helvetica,sans-Serif" font-weight="bold" font-size="12.00">com</text>
</g>
<g id="clust2" class="cluster">
<title>cluster_fms</title>
<path fill="none" stroke="#333333" stroke-width="1.2" d="M28,-16C28,-16 1867,-16 1867,-16 1873,-16 1879,-22 1879,-28 1879,-28 1879,-436 1879,-436 1879,-442 1873,-448 1867,-448 1867,-448 28,-448 28,-448 22,-448 16,-442 16,-436 16,-436 16,-28 16,-28 16,-22 22,-16 28,-16"/>
<text text-anchor="middle" x="37" y="-434.4" font-family="Helvetica,sans-Serif" font-weight="bold" font-size="12.00">fms</text>
</g>
<g id="clust3" class="cluster">
<title>cluster_simulation</title>
<path fill="none" stroke="#333333" stroke-width="1.2" d="M36,-24C36,-24 1859,-24 1859,-24 1865,-24 1871,-30 1871,-36 1871,-36 1871,-407 1871,-407 1871,-413 1865,-419 1859,-419 1859,-419 36,-419 36,-419 30,-419 24,-413 24,-407 24,-407 24,-36 24,-36 24,-30 30,-24 36,-24"/>
<text text-anchor="middle" x="67.5" y="-405.4" font-family="Helvetica,sans-Serif" font-weight="bold" font-size="12.00">simulation</text>
</g>
<!-- ctrl -->
<g id="node1" class="node">
<title>ctrl</title>
<polygon fill="#fffde7" stroke="transparent" points="1185,-270.5 1185,-360.5 1743,-360.5 1743,-270.5 1185,-270.5"/>
<polygon fill="#fff59d" stroke="transparent" points="1186,-342.5 1186,-359.5 1742,-359.5 1742,-342.5 1186,-342.5"/>
<text text-anchor="start" x="1432.5" y="-349.5" font-family="Helvetica,sans-Serif" font-style="italic" font-size="10.00">«Java Class»</text>
<polygon fill="#fffde7" stroke="transparent" points="1186,-321.5 1186,-342.5 1742,-342.5 1742,-321.5 1186,-321.5"/>
<text text-anchor="start" x="1382.5" y="-329.3" font-family="Helvetica,sans-Serif" font-weight="bold" font-size="14.00">SimulationController</text>
<polygon fill="#fffde7" stroke="transparent" points="1186,-305.5 1186,-321.5 1742,-321.5 1742,-305.5 1186,-305.5"/>
<text text-anchor="start" x="1442.5" y="-311.3" font-family="Helvetica,sans-Serif" font-size="9.00" fill="#666666">controller</text>
<text text-anchor="start" x="1189" y="-294.5" font-family="Helvetica,sans-Serif" font-size="10.00">&#45; simulationService: WhatIfSimulationService</text>
<text text-anchor="start" x="1189" y="-277.5" font-family="Helvetica,sans-Serif" font-size="10.00">+ runSimulation(userDetails: UserDetails, req: SimulationRequestDTO): ResponseEntity&lt;SimulationResultDTO&gt;</text>
<polygon fill="black" stroke="black" points="1185,-305.5 1185,-305.5 1743,-305.5 1743,-305.5 1185,-305.5"/>
<polygon fill="black" stroke="black" points="1185,-288.5 1185,-288.5 1743,-288.5 1743,-288.5 1185,-288.5"/>
<polygon fill="none" stroke="black" points="1185,-270.5 1185,-360.5 1743,-360.5 1743,-270.5 1185,-270.5"/>
</g>
<!-- svc_if -->
<g id="node2" class="node">
<title>svc_if</title>
<polygon fill="#fffde7" stroke="transparent" points="860.5,-53 860.5,-143 1269.5,-143 1269.5,-53 860.5,-53"/>
<polygon fill="#ffe082" stroke="transparent" points="862,-125 862,-142 1269,-142 1269,-125 862,-125"/>
<text text-anchor="start" x="1025.5" y="-132" font-family="Helvetica,sans-Serif" font-style="italic" font-size="10.00">«Java Interface»</text>
<polygon fill="#fffde7" stroke="transparent" points="862,-104 862,-125 1269,-125 1269,-104 862,-104"/>
<text text-anchor="start" x="968" y="-111.8" font-family="Helvetica,sans-Serif" font-weight="bold" font-size="14.00">WhatIfSimulationService</text>
<polygon fill="#fffde7" stroke="transparent" points="862,-88 862,-104 1269,-104 1269,-88 862,-88"/>
<text text-anchor="start" x="1049.5" y="-93.8" font-family="Helvetica,sans-Serif" font-size="9.00" fill="#666666">service</text>
<text text-anchor="start" x="865" y="-77" font-family="Helvetica,sans-Serif" font-size="10.00"> </text>
<text text-anchor="start" x="865" y="-60" font-family="Helvetica,sans-Serif" font-size="10.00">+ runSimulation(email: String, req: SimulationRequestDTO): SimulationResultDTO</text>
<polygon fill="black" stroke="black" points="861,-88 861,-88 1270,-88 1270,-88 861,-88"/>
<polygon fill="black" stroke="black" points="861,-71 861,-71 1270,-71 1270,-71 861,-71"/>
<polygon fill="none" stroke="black" points="860.5,-53 860.5,-143 1269.5,-143 1269.5,-53 860.5,-53"/>
</g>
<!-- ctrl&#45;&gt;svc_if -->
<g id="edge1" class="edge">
<title>ctrl&#45;&gt;svc_if</title>
<path fill="none" stroke="#444444" d="M1374.95,-266.41C1312.11,-232.46 1227.91,-186.99 1163.13,-152"/>
<polygon fill="#444444" stroke="#444444" points="1154.12,-147.13 1165.06,-147.93 1158.52,-149.51 1162.92,-151.89 1162.92,-151.89 1162.92,-151.89 1158.52,-149.51 1160.78,-155.84 1154.12,-147.13 1154.12,-147.13"/>
<text text-anchor="middle" x="1275.5" y="-200" font-family="Helvetica,sans-Serif" font-size="10.00" fill="#444444">uses</text>
</g>
<!-- dto_req -->
<g id="node7" class="node">
<title>dto_req</title>
<polygon fill="#fffde7" stroke="transparent" points="1325.5,-36 1325.5,-160 1602.5,-160 1602.5,-36 1325.5,-36"/>
<polygon fill="#fff59d" stroke="transparent" points="1327,-142 1327,-159 1602,-159 1602,-142 1327,-142"/>
<text text-anchor="start" x="1433" y="-149" font-family="Helvetica,sans-Serif" font-style="italic" font-size="10.00">«Java Class»</text>
<polygon fill="#fffde7" stroke="transparent" points="1327,-121 1327,-142 1602,-142 1602,-121 1327,-121"/>
<text text-anchor="start" x="1374" y="-128.8" font-family="Helvetica,sans-Serif" font-weight="bold" font-size="14.00">SimulationRequestDTO</text>
<polygon fill="#fffde7" stroke="transparent" points="1327,-105 1327,-121 1602,-121 1602,-105 1327,-105"/>
<text text-anchor="start" x="1456.5" y="-110.8" font-family="Helvetica,sans-Serif" font-size="9.00" fill="#666666">dto</text>
<text text-anchor="start" x="1330" y="-94" font-family="Helvetica,sans-Serif" font-size="10.00">&#45; hypotheticalMonthlyIncome: BigDecimal &#160;@NotNull</text>
<text text-anchor="start" x="1330" y="-77" font-family="Helvetica,sans-Serif" font-size="10.00">&#45; hypotheticalMonthlyExpenses: BigDecimal &#160;@NotNull</text>
<text text-anchor="start" x="1330" y="-60" font-family="Helvetica,sans-Serif" font-size="10.00">&#45; projectionMonths: Integer &#160;@Min(1) @Max(120)</text>
<text text-anchor="start" x="1330" y="-43" font-family="Helvetica,sans-Serif" font-size="10.00"> </text>
<polygon fill="black" stroke="black" points="1326,-105 1326,-105 1603,-105 1603,-105 1326,-105"/>
<polygon fill="black" stroke="black" points="1326,-54 1326,-54 1603,-54 1603,-54 1326,-54"/>
<polygon fill="none" stroke="black" points="1325.5,-36 1325.5,-160 1602.5,-160 1602.5,-36 1325.5,-36"/>
</g>
<!-- ctrl&#45;&gt;dto_req -->
<g id="edge6" class="edge">
<title>ctrl&#45;&gt;dto_req</title>
<path fill="none" stroke="#444444" stroke-dasharray="5,2" d="M1464,-266.41C1464,-239.32 1464,-204.9 1464,-174.32"/>
<polygon fill="#444444" stroke="#444444" points="1464,-164.11 1468.5,-174.11 1464,-169.11 1464,-174.11 1464,-174.11 1464,-174.11 1464,-169.11 1459.5,-174.11 1464,-164.11 1464,-164.11"/>
<text text-anchor="middle" x="1485" y="-200" font-family="Helvetica,sans-Serif" font-size="10.00" fill="#444444">receives</text>
</g>
<!-- dto_res -->
<g id="node8" class="node">
<title>dto_res</title>
<polygon fill="#fffde7" stroke="transparent" points="1659,-36 1659,-160 1855,-160 1855,-36 1659,-36"/>
<polygon fill="#fff59d" stroke="transparent" points="1660,-142 1660,-159 1854,-159 1854,-142 1660,-142"/>
<text text-anchor="start" x="1725.5" y="-149" font-family="Helvetica,sans-Serif" font-style="italic" font-size="10.00">«Java Class»</text>
<polygon fill="#fffde7" stroke="transparent" points="1660,-121 1660,-142 1854,-142 1854,-121 1660,-121"/>
<text text-anchor="start" x="1674" y="-128.8" font-family="Helvetica,sans-Serif" font-weight="bold" font-size="14.00">SimulationResultDTO</text>
<polygon fill="#fffde7" stroke="transparent" points="1660,-105 1660,-121 1854,-121 1854,-105 1660,-105"/>
<text text-anchor="start" x="1749" y="-110.8" font-family="Helvetica,sans-Serif" font-size="9.00" fill="#666666">dto</text>
<text text-anchor="start" x="1663" y="-94" font-family="Helvetica,sans-Serif" font-size="10.00">&#45; projectedFinalBalance: BigDecimal</text>
<text text-anchor="start" x="1663" y="-77" font-family="Helvetica,sans-Serif" font-size="10.00">&#45; projectedTotalSavings: BigDecimal</text>
<text text-anchor="start" x="1663" y="-60" font-family="Helvetica,sans-Serif" font-size="10.00">&#45; monthlyBalances: List&lt;BigDecimal&gt;</text>
<text text-anchor="start" x="1663" y="-43" font-family="Helvetica,sans-Serif" font-size="10.00"> </text>
<polygon fill="black" stroke="black" points="1659,-105 1659,-105 1855,-105 1855,-105 1659,-105"/>
<polygon fill="black" stroke="black" points="1659,-54 1659,-54 1855,-54 1855,-54 1659,-54"/>
<polygon fill="none" stroke="black" points="1659,-36 1659,-160 1855,-160 1855,-36 1659,-36"/>
</g>
<!-- ctrl&#45;&gt;dto_res -->
<g id="edge7" class="edge">
<title>ctrl&#45;&gt;dto_res</title>
<path fill="none" stroke="#444444" stroke-dasharray="5,2" d="M1529.39,-266.41C1567.89,-238.09 1617.31,-201.74 1660.26,-170.16"/>
<polygon fill="#444444" stroke="#444444" points="1668.47,-164.11 1663.08,-173.66 1664.45,-167.07 1660.42,-170.04 1660.42,-170.04 1660.42,-170.04 1664.45,-167.07 1657.75,-166.41 1668.47,-164.11 1668.47,-164.11"/>
<text text-anchor="middle" x="1636.5" y="-200" font-family="Helvetica,sans-Serif" font-size="10.00" fill="#444444">returns</text>
</g>
<!-- svc_impl -->
<g id="node3" class="node">
<title>svc_impl</title>
<polygon fill="#fffde7" stroke="transparent" points="358.5,-245 358.5,-386 767.5,-386 767.5,-245 358.5,-245"/>
<polygon fill="#fff59d" stroke="transparent" points="360,-367.5 360,-384.5 767,-384.5 767,-367.5 360,-367.5"/>
<text text-anchor="start" x="532" y="-374.5" font-family="Helvetica,sans-Serif" font-style="italic" font-size="10.00">«Java Class»</text>
<polygon fill="#fffde7" stroke="transparent" points="360,-346.5 360,-367.5 767,-367.5 767,-346.5 360,-346.5"/>
<text text-anchor="start" x="449" y="-354.3" font-family="Helvetica,sans-Serif" font-weight="bold" font-size="14.00">WhatIfSimulationServiceImpl</text>
<polygon fill="#fffde7" stroke="transparent" points="360,-330.5 360,-346.5 767,-346.5 767,-330.5 360,-330.5"/>
<text text-anchor="start" x="547.5" y="-336.3" font-family="Helvetica,sans-Serif" font-size="9.00" fill="#666666">service</text>
<text text-anchor="start" x="363" y="-319.5" font-family="Helvetica,sans-Serif" font-size="10.00">&#45; userRepository: UserRepository</text>
<text text-anchor="start" x="363" y="-302.5" font-family="Helvetica,sans-Serif" font-size="10.00">&#45; incomeRepository: IncomeRepository</text>
<text text-anchor="start" x="363" y="-285.5" font-family="Helvetica,sans-Serif" font-size="10.00">&#45; expenseRepository: ExpenseRepository</text>
<text text-anchor="start" x="363" y="-268.5" font-family="Helvetica,sans-Serif" font-size="10.00">+ runSimulation(email: String, req: SimulationRequestDTO): SimulationResultDTO</text>
<text text-anchor="start" x="363" y="-251.5" font-family="Helvetica,sans-Serif" font-size="10.00">// balance += monthlyIncome − monthlyExpenses &#160;(loop over projectionMonths)</text>
<polygon fill="black" stroke="black" points="359,-330.5 359,-330.5 768,-330.5 768,-330.5 359,-330.5"/>
<polygon fill="black" stroke="black" points="359,-279.5 359,-279.5 768,-279.5 768,-279.5 359,-279.5"/>
<polygon fill="none" stroke="black" points="358.5,-245 358.5,-386 767.5,-386 767.5,-245 358.5,-245"/>
</g>
<!-- svc_impl&#45;&gt;svc_if -->
<g id="edge2" class="edge">
<title>svc_impl&#45;&gt;svc_if</title>
<path fill="none" stroke="#444444" stroke-dasharray="5,2" d="M734.36,-240.94C803.11,-211.42 880.77,-178.09 943.53,-151.14"/>
<polygon fill="none" stroke="#444444" points="945.27,-154.21 953.08,-147.05 942.51,-147.78 945.27,-154.21"/>
<text text-anchor="middle" x="858.5" y="-200" font-family="Helvetica,sans-Serif" font-size="10.00" fill="#444444">implements</text>
</g>
<!-- repo_u -->
<g id="node4" class="node">
<title>repo_u</title>
<polygon fill="#fffde7" stroke="transparent" points="308,-53 308,-143 542,-143 542,-53 308,-53"/>
<polygon fill="#ffe082" stroke="transparent" points="309,-125 309,-142 541,-142 541,-125 309,-125"/>
<text text-anchor="start" x="385" y="-132" font-family="Helvetica,sans-Serif" font-style="italic" font-size="10.00">«Java Interface»</text>
<polygon fill="#fffde7" stroke="transparent" points="309,-104 309,-125 541,-125 541,-104 309,-104"/>
<text text-anchor="start" x="364.5" y="-111.8" font-family="Helvetica,sans-Serif" font-weight="bold" font-size="14.00">UserRepository</text>
<polygon fill="#fffde7" stroke="transparent" points="309,-88 309,-104 541,-104 541,-88 309,-88"/>
<text text-anchor="start" x="402" y="-93.8" font-family="Helvetica,sans-Serif" font-size="9.00" fill="#666666">repository</text>
<text text-anchor="start" x="312" y="-77" font-family="Helvetica,sans-Serif" font-size="10.00"> </text>
<text text-anchor="start" x="312" y="-60" font-family="Helvetica,sans-Serif" font-size="10.00">+ findByEmail(email: String): Optional&lt;User&gt;</text>
<polygon fill="black" stroke="black" points="308,-88 308,-88 542,-88 542,-88 308,-88"/>
<polygon fill="black" stroke="black" points="308,-71 308,-71 542,-71 542,-71 308,-71"/>
<polygon fill="none" stroke="black" points="308,-53 308,-143 542,-143 542,-53 308,-53"/>
</g>
<!-- svc_impl&#45;&gt;repo_u -->
<g id="edge3" class="edge">
<title>svc_impl&#45;&gt;repo_u</title>
<path fill="none" stroke="#444444" d="M515.89,-240.94C498.08,-213.11 478.08,-181.9 461.4,-155.84"/>
<polygon fill="#444444" stroke="#444444" points="455.87,-147.21 465.05,-153.2 458.57,-151.42 461.26,-155.63 461.26,-155.63 461.26,-155.63 458.57,-151.42 457.48,-158.06 455.87,-147.21 455.87,-147.21"/>
<text text-anchor="middle" x="530" y="-200" font-family="Helvetica,sans-Serif" font-size="10.00" fill="#444444">reads baseline</text>
</g>
<!-- repo_i -->
<g id="node5" class="node">
<title>repo_i</title>
<polygon fill="#fffde7" stroke="transparent" points="598,-53 598,-143 804,-143 804,-53 598,-53"/>
<polygon fill="#ffe082" stroke="transparent" points="599,-125 599,-142 803,-142 803,-125 599,-125"/>
<text text-anchor="start" x="661" y="-132" font-family="Helvetica,sans-Serif" font-style="italic" font-size="10.00">«Java Interface»</text>
<polygon fill="#fffde7" stroke="transparent" points="599,-104 599,-125 803,-125 803,-104 599,-104"/>
<text text-anchor="start" x="630" y="-111.8" font-family="Helvetica,sans-Serif" font-weight="bold" font-size="14.00">IncomeRepository</text>
<polygon fill="#fffde7" stroke="transparent" points="599,-88 599,-104 803,-104 803,-88 599,-88"/>
<text text-anchor="start" x="678" y="-93.8" font-family="Helvetica,sans-Serif" font-size="9.00" fill="#666666">repository</text>
<text text-anchor="start" x="602" y="-77" font-family="Helvetica,sans-Serif" font-size="10.00"> </text>
<text text-anchor="start" x="602" y="-60" font-family="Helvetica,sans-Serif" font-size="10.00">+ findByUser(user: User): List&lt;Income&gt;</text>
<polygon fill="black" stroke="black" points="598,-88 598,-88 804,-88 804,-88 598,-88"/>
<polygon fill="black" stroke="black" points="598,-71 598,-71 804,-71 804,-71 598,-71"/>
<polygon fill="none" stroke="black" points="598,-53 598,-143 804,-143 804,-53 598,-53"/>
</g>
<!-- svc_impl&#45;&gt;repo_i -->
<g id="edge4" class="edge">
<title>svc_impl&#45;&gt;repo_i</title>
<path fill="none" stroke="#444444" d="M610.11,-240.94C627.92,-213.11 647.92,-181.9 664.6,-155.84"/>
<polygon fill="#444444" stroke="#444444" points="670.13,-147.21 668.52,-158.06 667.43,-151.42 664.74,-155.63 664.74,-155.63 664.74,-155.63 667.43,-151.42 660.95,-153.2 670.13,-147.21 670.13,-147.21"/>
<text text-anchor="middle" x="668" y="-200" font-family="Helvetica,sans-Serif" font-size="10.00" fill="#444444">reads history</text>
</g>
<!-- repo_e -->
<g id="node6" class="node">
<title>repo_e</title>
<polygon fill="#fffde7" stroke="transparent" points="40.5,-53 40.5,-143 251.5,-143 251.5,-53 40.5,-53"/>
<polygon fill="#ffe082" stroke="transparent" points="42,-125 42,-142 251,-142 251,-125 42,-125"/>
<text text-anchor="start" x="106.5" y="-132" font-family="Helvetica,sans-Serif" font-style="italic" font-size="10.00">«Java Interface»</text>
<polygon fill="#fffde7" stroke="transparent" points="42,-104 42,-125 251,-125 251,-104 42,-104"/>
<text text-anchor="start" x="71" y="-111.8" font-family="Helvetica,sans-Serif" font-weight="bold" font-size="14.00">ExpenseRepository</text>
<polygon fill="#fffde7" stroke="transparent" points="42,-88 42,-104 251,-104 251,-88 42,-88"/>
<text text-anchor="start" x="123.5" y="-93.8" font-family="Helvetica,sans-Serif" font-size="9.00" fill="#666666">repository</text>
<text text-anchor="start" x="45" y="-77" font-family="Helvetica,sans-Serif" font-size="10.00"> </text>
<text text-anchor="start" x="45" y="-60" font-family="Helvetica,sans-Serif" font-size="10.00">+ findByUser(user: User): List&lt;Expense&gt;</text>
<polygon fill="black" stroke="black" points="41,-88 41,-88 252,-88 252,-88 41,-88"/>
<polygon fill="black" stroke="black" points="41,-71 41,-71 252,-71 252,-71 41,-71"/>
<polygon fill="none" stroke="black" points="40.5,-53 40.5,-143 251.5,-143 251.5,-53 40.5,-53"/>
</g>
<!-- svc_impl&#45;&gt;repo_e -->
<g id="edge5" class="edge">
<title>svc_impl&#45;&gt;repo_e</title>
<path fill="none" stroke="#444444" d="M420.66,-240.94C363.9,-211.61 299.83,-178.5 247.87,-151.64"/>
<polygon fill="#444444" stroke="#444444" points="238.97,-147.05 249.92,-147.64 243.41,-149.34 247.86,-151.64 247.86,-151.64 247.86,-151.64 243.41,-149.34 245.79,-155.64 238.97,-147.05 238.97,-147.05"/>
<text text-anchor="middle" x="386" y="-200" font-family="Helvetica,sans-Serif" font-size="10.00" fill="#444444">reads history</text>
</g>
</g>
</svg>
