<?xml version="1.0" encoding="UTF-8" standalone="no"?>
<!DOCTYPE svg PUBLIC "-//W3C//DTD SVG 1.1//EN"
 "http://www.w3.org/Graphics/SVG/1.1/DTD/svg11.dtd">
<!-- Generated by graphviz version 2.43.0 (0)
 -->
<!-- Title: %3 Pages: 1 -->
<svg width="3715pt" height="2025pt"
 viewBox="0.00 0.00 1486.00 810.00" xmlns="http://www.w3.org/2000/svg" xmlns:xlink="http://www.w3.org/1999/xlink">
<g id="graph0" class="graph" transform="scale(2.5 2.5) rotate(0) translate(4 806)">
<title>%3</title>
<polygon fill="white" stroke="transparent" points="-4,4 -4,-806 1482,-806 1482,4 -4,4"/>
<text text-anchor="middle" x="739" y="-786.8" font-family="Helvetica,sans-Serif" font-size="14.00">FMS — Tuition Planning (class diagram)</text>
<g id="clust1" class="cluster">
<title>cluster_com</title>
<path fill="none" stroke="#333333" stroke-width="1.2" d="M20,-8C20,-8 1458,-8 1458,-8 1464,-8 1470,-14 1470,-20 1470,-20 1470,-759 1470,-759 1470,-765 1464,-771 1458,-771 1458,-771 20,-771 20,-771 14,-771 8,-765 8,-759 8,-759 8,-20 8,-20 8,-14 14,-8 20,-8"/>
<text text-anchor="middle" x="30" y="-757.4" font-family="Helvetica,sans-Serif" font-weight="bold" font-size="12.00">com</text>
</g>
<g id="clust2" class="cluster">
<title>cluster_fms</title>
<path fill="none" stroke="#333333" stroke-width="1.2" d="M28,-16C28,-16 1450,-16 1450,-16 1456,-16 1462,-22 1462,-28 1462,-28 1462,-730 1462,-730 1462,-736 1456,-742 1450,-742 1450,-742 28,-742 28,-742 22,-742 16,-736 16,-730 16,-730 16,-28 16,-28 16,-22 22,-16 28,-16"/>
<text text-anchor="middle" x="37" y="-728.4" font-family="Helvetica,sans-Serif" font-weight="bold" font-size="12.00">fms</text>
</g>
<g id="clust3" class="cluster">
<title>cluster_tuition</title>
<path fill="none" stroke="#333333" stroke-width="1.2" d="M36,-24C36,-24 1442,-24 1442,-24 1448,-24 1454,-30 1454,-36 1454,-36 1454,-701 1454,-701 1454,-707 1448,-713 1442,-713 1442,-713 36,-713 36,-713 30,-713 24,-707 24,-701 24,-701 24,-36 24,-36 24,-30 30,-24 36,-24"/>
<text text-anchor="middle" x="54.5" y="-699.4" font-family="Helvetica,sans-Serif" font-weight="bold" font-size="12.00">tuition</text>
</g>
<!-- ctrl -->
<g id="node1" class="node">
<title>ctrl</title>
<polygon fill="#fffde7" stroke="transparent" points="834.5,-564.5 834.5,-654.5 1327.5,-654.5 1327.5,-564.5 834.5,-564.5"/>
<polygon fill="#fff59d" stroke="transparent" points="836,-636.5 836,-653.5 1327,-653.5 1327,-636.5 836,-636.5"/>
<text text-anchor="start" x="1050" y="-643.5" font-family="Helvetica,sans-Serif" font-style="italic" font-size="10.00">«Java Class»</text>
<polygon fill="#fffde7" stroke="transparent" points="836,-615.5 836,-636.5 1327,-636.5 1327,-615.5 836,-615.5"/>
<text text-anchor="start" x="1015" y="-623.3" font-family="Helvetica,sans-Serif" font-weight="bold" font-size="14.00">TuitionController</text>
<polygon fill="#fffde7" stroke="transparent" points="836,-599.5 836,-615.5 1327,-615.5 1327,-599.5 836,-599.5"/>
<text text-anchor="start" x="1060" y="-605.3" font-family="Helvetica,sans-Serif" font-size="9.00" fill="#666666">controller</text>
<text text-anchor="start" x="839" y="-588.5" font-family="Helvetica,sans-Serif" font-size="10.00">&#45; tuitionService: TuitionService</text>
<text text-anchor="start" x="839" y="-571.5" font-family="Helvetica,sans-Serif" font-size="10.00">+ calculate(userDetails: UserDetails, req: TuitionRequestDTO): ResponseEntity&lt;TuitionResultDTO&gt;</text>
<polygon fill="black" stroke="black" points="835,-599.5 835,-599.5 1328,-599.5 1328,-599.5 835,-599.5"/>
<polygon fill="black" stroke="black" points="835,-582.5 835,-582.5 1328,-582.5 1328,-582.5 835,-582.5"/>
<polygon fill="none" stroke="black" points="834.5,-564.5 834.5,-654.5 1327.5,-654.5 1327.5,-564.5 834.5,-564.5"/>
</g>
<!-- svc_if -->
<g id="node2" class="node">
<title>svc_if</title>
<polygon fill="#fffde7" stroke="transparent" points="549.5,-330 549.5,-420 894.5,-420 894.5,-330 549.5,-330"/>
<polygon fill="#ffe082" stroke="transparent" points="551,-402 551,-419 894,-419 894,-402 551,-402"/>
<text text-anchor="start" x="682.5" y="-409" font-family="Helvetica,sans-Serif" font-style="italic" font-size="10.00">«Java Interface»</text>
<polygon fill="#fffde7" stroke="transparent" points="551,-381 551,-402 894,-402 894,-381 551,-381"/>
<text text-anchor="start" x="666.5" y="-388.8" font-family="Helvetica,sans-Serif" font-weight="bold" font-size="14.00">TuitionService</text>
<polygon fill="#fffde7" stroke="transparent" points="551,-365 551,-381 894,-381 894,-365 551,-365"/>
<text text-anchor="start" x="706.5" y="-370.8" font-family="Helvetica,sans-Serif" font-size="9.00" fill="#666666">service</text>
<text text-anchor="start" x="554" y="-354" font-family="Helvetica,sans-Serif" font-size="10.00"> </text>
<text text-anchor="start" x="554" y="-337" font-family="Helvetica,sans-Serif" font-size="10.00">+ calculate(email: String, req: TuitionRequestDTO): TuitionResultDTO</text>
<polygon fill="black" stroke="black" points="550,-365 550,-365 895,-365 895,-365 550,-365"/>
<polygon fill="black" stroke="black" points="550,-348 550,-348 895,-348 895,-348 550,-348"/>
<polygon fill="none" stroke="black" points="549.5,-330 549.5,-420 894.5,-420 894.5,-330 549.5,-330"/>
</g>
<!-- ctrl&#45;&gt;svc_if -->
<g id="edge1" class="edge">
<title>ctrl&#45;&gt;svc_if</title>
<path fill="none" stroke="#444444" d="M1006.61,-560.33C947.77,-522.22 865.65,-469.03 804.74,-429.58"/>
<polygon fill="#444444" stroke="#444444" points="796.29,-424.11 807.13,-425.77 800.49,-426.83 804.68,-429.55 804.68,-429.55 804.68,-429.55 800.49,-426.83 802.24,-433.33 796.29,-424.11 796.29,-424.11"/>
<text text-anchor="middle" x="923.5" y="-494" font-family="Helvetica,sans-Serif" font-size="10.00" fill="#444444">uses</text>
</g>
<!-- dto_req -->
<g id="node6" class="node">
<title>dto_req</title>
<polygon fill="#fffde7" stroke="transparent" points="950.5,-313 950.5,-437 1211.5,-437 1211.5,-313 950.5,-313"/>
<polygon fill="#fff59d" stroke="transparent" points="952,-419 952,-436 1211,-436 1211,-419 952,-419"/>
<text text-anchor="start" x="1050" y="-426" font-family="Helvetica,sans-Serif" font-style="italic" font-size="10.00">«Java Class»</text>
<polygon fill="#fffde7" stroke="transparent" points="952,-398 952,-419 1211,-419 1211,-398 952,-398"/>
<text text-anchor="start" x="1006" y="-405.8" font-family="Helvetica,sans-Serif" font-weight="bold" font-size="14.00">TuitionRequestDTO</text>
<polygon fill="#fffde7" stroke="transparent" points="952,-382 952,-398 1211,-398 1211,-382 952,-382"/>
<text text-anchor="start" x="1073.5" y="-387.8" font-family="Helvetica,sans-Serif" font-size="9.00" fill="#666666">dto</text>
<text text-anchor="start" x="955" y="-371" font-family="Helvetica,sans-Serif" font-size="10.00">&#45; tuitionPerCourse: BigDecimal &#160;@DecimalMin(0.01)</text>
<text text-anchor="start" x="955" y="-354" font-family="Helvetica,sans-Serif" font-size="10.00">&#45; numberOfCourses: Integer &#160;@Min(1)</text>
<text text-anchor="start" x="955" y="-337" font-family="Helvetica,sans-Serif" font-size="10.00">&#45; scholarshipAmount: BigDecimal</text>
<text text-anchor="start" x="955" y="-320" font-family="Helvetica,sans-Serif" font-size="10.00"> </text>
<polygon fill="black" stroke="black" points="951,-382 951,-382 1212,-382 1212,-382 951,-382"/>
<polygon fill="black" stroke="black" points="951,-331 951,-331 1212,-331 1212,-331 951,-331"/>
<polygon fill="none" stroke="black" points="950.5,-313 950.5,-437 1211.5,-437 1211.5,-313 950.5,-313"/>
</g>
<!-- ctrl&#45;&gt;dto_req -->
<g id="edge5" class="edge">
<title>ctrl&#45;&gt;dto_req</title>
<path fill="none" stroke="#444444" stroke-dasharray="5,2" d="M1081,-560.33C1081,-528.97 1081,-487.42 1081,-451.7"/>
<polygon fill="#444444" stroke="#444444" points="1081,-441.31 1085.5,-451.31 1081,-446.31 1081,-451.31 1081,-451.31 1081,-451.31 1081,-446.31 1076.5,-451.31 1081,-441.31 1081,-441.31"/>
<text text-anchor="middle" x="1102" y="-494" font-family="Helvetica,sans-Serif" font-size="10.00" fill="#444444">receives</text>
</g>
<!-- dto_res -->
<g id="node7" class="node">
<title>dto_res</title>
<polygon fill="#fffde7" stroke="transparent" points="1267.5,-296 1267.5,-454 1438.5,-454 1438.5,-296 1267.5,-296"/>
<polygon fill="#fff59d" stroke="transparent" points="1269,-436 1269,-453 1438,-453 1438,-436 1269,-436"/>
<text text-anchor="start" x="1322" y="-443" font-family="Helvetica,sans-Serif" font-style="italic" font-size="10.00">«Java Class»</text>
<polygon fill="#fffde7" stroke="transparent" points="1269,-415 1269,-436 1438,-436 1438,-415 1269,-415"/>
<text text-anchor="start" x="1285.5" y="-422.8" font-family="Helvetica,sans-Serif" font-weight="bold" font-size="14.00">TuitionResultDTO</text>
<polygon fill="#fffde7" stroke="transparent" points="1269,-399 1269,-415 1438,-415 1438,-399 1269,-399"/>
<text text-anchor="start" x="1345.5" y="-404.8" font-family="Helvetica,sans-Serif" font-size="9.00" fill="#666666">dto</text>
<text text-anchor="start" x="1272" y="-388" font-family="Helvetica,sans-Serif" font-size="10.00">&#45; tuitionPerCourse: BigDecimal</text>
<text text-anchor="start" x="1272" y="-371" font-family="Helvetica,sans-Serif" font-size="10.00">&#45; numberOfCourses: Integer</text>
<text text-anchor="start" x="1272" y="-354" font-family="Helvetica,sans-Serif" font-size="10.00">&#45; scholarshipAmount: BigDecimal</text>
<text text-anchor="start" x="1272" y="-337" font-family="Helvetica,sans-Serif" font-size="10.00">&#45; grossTuition: BigDecimal</text>
<text text-anchor="start" x="1272" y="-320" font-family="Helvetica,sans-Serif" font-size="10.00">&#45; netTuition: BigDecimal</text>
<text text-anchor="start" x="1272" y="-303" font-family="Helvetica,sans-Serif" font-size="10.00"> </text>
<polygon fill="black" stroke="black" points="1268,-399 1268,-399 1439,-399 1439,-399 1268,-399"/>
<polygon fill="black" stroke="black" points="1268,-314 1268,-314 1439,-314 1439,-314 1268,-314"/>
<polygon fill="none" stroke="black" points="1267.5,-296 1267.5,-454 1438.5,-454 1438.5,-296 1267.5,-296"/>
</g>
<!-- ctrl&#45;&gt;dto_res -->
<g id="edge6" class="edge">
<title>ctrl&#45;&gt;dto_res</title>
<path fill="none" stroke="#444444" stroke-dasharray="5,2" d="M1137.36,-560.33C1170.33,-532.14 1212.94,-495.72 1251.56,-462.71"/>
<polygon fill="#444444" stroke="#444444" points="1259.23,-456.15 1254.55,-466.07 1255.43,-459.4 1251.63,-462.65 1251.63,-462.65 1251.63,-462.65 1255.43,-459.4 1248.71,-459.23 1259.23,-456.15 1259.23,-456.15"/>
<text text-anchor="middle" x="1234.5" y="-494" font-family="Helvetica,sans-Serif" font-size="10.00" fill="#444444">returns</text>
</g>
<!-- svc_impl -->
<g id="node3" class="node">
<title>svc_impl</title>
<polygon fill="#fffde7" stroke="transparent" points="291.5,-539 291.5,-680 636.5,-680 636.5,-539 291.5,-539"/>
<polygon fill="#fff59d" stroke="transparent" points="293,-661.5 293,-678.5 636,-678.5 636,-661.5 293,-661.5"/>
<text text-anchor="start" x="433" y="-668.5" font-family="Helvetica,sans-Serif" font-style="italic" font-size="10.00">«Java Class»</text>
<polygon fill="#fffde7" stroke="transparent" points="293,-640.5 293,-661.5 636,-661.5 636,-640.5 293,-640.5"/>
<text text-anchor="start" x="392" y="-648.3" font-family="Helvetica,sans-Serif" font-weight="bold" font-size="14.00">TuitionServiceImpl</text>
<polygon fill="#fffde7" stroke="transparent" points="293,-624.5 293,-640.5 636,-640.5 636,-624.5 293,-624.5"/>
<text text-anchor="start" x="448.5" y="-630.3" font-family="Helvetica,sans-Serif" font-size="9.00" fill="#666666">service</text>
<text text-anchor="start" x="296" y="-613.5" font-family="Helvetica,sans-Serif" font-size="10.00">&#45; tuitionPlanRepository: TuitionPlanRepository</text>
<text text-anchor="start" x="296" y="-596.5" font-family="Helvetica,sans-Serif" font-size="10.00">&#45; userRepository: UserRepository</text>
<text text-anchor="start" x="296" y="-579.5" font-family="Helvetica,sans-Serif" font-size="10.00">+ calculate(email: String, req: TuitionRequestDTO): TuitionResultDTO</text>
<text text-anchor="start" x="296" y="-562.5" font-family="Helvetica,sans-Serif" font-size="10.00">// grossTuition = perCourse × numberOfCourses</text>
<text text-anchor="start" x="296" y="-545.5" font-family="Helvetica,sans-Serif" font-size="10.00">// netTuition &#160;&#160;= max(0, gross − scholarship)</text>
<polygon fill="black" stroke="black" points="292,-624.5 292,-624.5 637,-624.5 637,-624.5 292,-624.5"/>
<polygon fill="black" stroke="black" points="292,-590.5 292,-590.5 637,-590.5 637,-590.5 292,-590.5"/>
<polygon fill="none" stroke="black" points="291.5,-539 291.5,-680 636.5,-680 636.5,-539 291.5,-539"/>
</g>
<!-- svc_impl&#45;&gt;svc_if -->
<g id="edge2" class="edge">
<title>svc_impl&#45;&gt;svc_if</title>
<path fill="none" stroke="#444444" stroke-dasharray="5,2" d="M545.63,-534.94C582.96,-501.29 626.44,-462.11 660.89,-431.07"/>
<polygon fill="none" stroke="#444444" points="663.46,-433.47 668.54,-424.17 658.77,-428.27 663.46,-433.47"/>
<text text-anchor="middle" x="622.5" y="-494" font-family="Helvetica,sans-Serif" font-size="10.00" fill="#444444">implements</text>
</g>
<!-- repo -->
<g id="node4" class="node">
<title>repo</title>
<polygon fill="#fffde7" stroke="transparent" points="40,-321.5 40,-428.5 376,-428.5 376,-321.5 40,-321.5"/>
<polygon fill="#ffe082" stroke="transparent" points="41,-410 41,-427 375,-427 375,-410 41,-410"/>
<text text-anchor="start" x="168" y="-417" font-family="Helvetica,sans-Serif" font-style="italic" font-size="10.00">«Java Interface»</text>
<polygon fill="#fffde7" stroke="transparent" points="41,-389 41,-410 375,-410 375,-389 41,-389"/>
<text text-anchor="start" x="121.5" y="-396.8" font-family="Helvetica,sans-Serif" font-weight="bold" font-size="14.00">TuitionPlanRepository</text>
<polygon fill="#fffde7" stroke="transparent" points="41,-373 41,-389 375,-389 375,-373 41,-373"/>
<text text-anchor="start" x="185" y="-378.8" font-family="Helvetica,sans-Serif" font-size="9.00" fill="#666666">repository</text>
<text text-anchor="start" x="44" y="-362" font-family="Helvetica,sans-Serif" font-size="10.00"> </text>
<text text-anchor="start" x="44" y="-345" font-family="Helvetica,sans-Serif" font-size="10.00">+ findByUser(user: User): List&lt;TuitionPlan&gt;</text>
<text text-anchor="start" x="44" y="-328" font-family="Helvetica,sans-Serif" font-size="10.00">+ findByUserOrderByCreatedAtDesc(user: User): List&lt;TuitionPlan&gt;</text>
<polygon fill="black" stroke="black" points="40,-373 40,-373 376,-373 376,-373 40,-373"/>
<polygon fill="black" stroke="black" points="40,-356 40,-356 376,-356 376,-356 40,-356"/>
<polygon fill="none" stroke="black" points="40,-321.5 40,-428.5 376,-428.5 376,-321.5 40,-321.5"/>
</g>
<!-- svc_impl&#45;&gt;repo -->
<g id="edge3" class="edge">
<title>svc_impl&#45;&gt;repo</title>
<path fill="none" stroke="#444444" d="M383,-534.94C349.23,-504.27 310.4,-469 277.9,-439.49"/>
<polygon fill="#444444" stroke="#444444" points="270.22,-432.5 280.64,-435.9 273.92,-435.87 277.62,-439.23 277.62,-439.23 277.62,-439.23 273.92,-435.87 274.59,-442.56 270.22,-432.5 270.22,-432.5"/>
<text text-anchor="middle" x="354.5" y="-494" font-family="Helvetica,sans-Serif" font-size="10.00" fill="#444444">uses</text>
</g>
<!-- ent -->
<g id="node5" class="node">
<title>ent</title>
<polygon fill="#fffde7" stroke="transparent" points="250.5,-36 250.5,-211 421.5,-211 421.5,-36 250.5,-36"/>
<polygon fill="#fff59d" stroke="transparent" points="252,-192.5 252,-209.5 421,-209.5 421,-192.5 252,-192.5"/>
<text text-anchor="start" x="305" y="-199.5" font-family="Helvetica,sans-Serif" font-style="italic" font-size="10.00">«Java Class»</text>
<polygon fill="#fffde7" stroke="transparent" points="252,-171.5 252,-192.5 421,-192.5 421,-171.5 252,-171.5"/>
<text text-anchor="start" x="292.5" y="-179.3" font-family="Helvetica,sans-Serif" font-weight="bold" font-size="14.00">TuitionPlan</text>
<polygon fill="#fffde7" stroke="transparent" points="252,-155.5 252,-171.5 421,-171.5 421,-155.5 252,-155.5"/>
<text text-anchor="start" x="322.5" y="-161.3" font-family="Helvetica,sans-Serif" font-size="9.00" fill="#666666">model</text>
<text text-anchor="start" x="255" y="-144.5" font-family="Helvetica,sans-Serif" font-size="10.00">&#45; id: Long</text>
<text text-anchor="start" x="255" y="-127.5" font-family="Helvetica,sans-Serif" font-size="10.00">&#45; user: User</text>
<text text-anchor="start" x="255" y="-110.5" font-family="Helvetica,sans-Serif" font-size="10.00">&#45; tuitionPerCourse: BigDecimal</text>
<text text-anchor="start" x="255" y="-93.5" font-family="Helvetica,sans-Serif" font-size="10.00">&#45; numberOfCourses: Integer</text>
<text text-anchor="start" x="255" y="-76.5" font-family="Helvetica,sans-Serif" font-size="10.00">&#45; scholarshipAmount: BigDecimal</text>
<text text-anchor="start" x="255" y="-59.5" font-family="Helvetica,sans-Serif" font-size="10.00">&#45; createdAt: LocalDateTime</text>
<text text-anchor="start" x="255" y="-42.5" font-family="Helvetica,sans-Serif" font-size="10.00"> </text>
<polygon fill="black" stroke="black" points="251,-155.5 251,-155.5 422,-155.5 422,-155.5 251,-155.5"/>
<polygon fill="black" stroke="black" points="251,-53.5 251,-53.5 422,-53.5 422,-53.5 251,-53.5"/>
<polygon fill="none" stroke="black" points="250.5,-36 250.5,-211 421.5,-211 421.5,-36 250.5,-36"/>
</g>
<!-- svc_impl&#45;&gt;ent -->
<g id="edge7" class="edge">
<title>svc_impl&#45;&gt;ent</title>
<path fill="none" stroke="#444444" d="M454.28,-534.93C444.73,-470.15 428.06,-373.68 404,-292 397.44,-269.74 389,-246.37 380.31,-224.38"/>
<polygon fill="#444444" stroke="#444444" points="376.57,-215.05 384.47,-222.66 378.43,-219.69 380.29,-224.33 380.29,-224.33 380.29,-224.33 378.43,-219.69 376.11,-226 376.57,-215.05 376.57,-215.05"/>
<text text-anchor="middle" x="458.5" y="-372.5" font-family="Helvetica,sans-Serif" font-size="10.00" fill="#444444">creates</text>
</g>
<!-- repo&#45;&gt;ent -->
<g id="edge4" class="edge">
<title>repo&#45;&gt;ent</title>
<path fill="none" stroke="#444444" d="M237.05,-317.38C251.14,-289.9 268.51,-256.06 284.73,-224.44"/>
<polygon fill="#444444" stroke="#444444" points="289.5,-215.14 288.94,-226.09 287.22,-219.59 284.93,-224.04 284.93,-224.04 284.93,-224.04 287.22,-219.59 280.93,-221.99 289.5,-215.14 289.5,-215.14"/>
<text text-anchor="middle" x="291.5" y="-251" font-family="Helvetica,sans-Serif" font-size="10.00" fill="#444444">persists</text>
</g>
</g>
</svg>
